<mxfile host="app.diagrams.net" agent="Mozilla/5.0 (Windows NT 10.0; Win64; x64; rv:133.0) Gecko/20100101 Firefox/133.0" version="25.0.3">
  <diagram name="Page-1" id="4ra5poe0NueJ6RKLMNBE">
    <mxGraphModel dx="1660" dy="768" grid="1" gridSize="10" guides="1" tooltips="1" connect="1" arrows="1" fold="1" page="1" pageScale="1" pageWidth="3300" pageHeight="4681" math="0" shadow="0">
      <root>
        <mxCell id="0" />
        <mxCell id="1" parent="0" />
        <mxCell id="qnlNdgl8_N1mm-C95D2T-1" value="" style="rounded=0;whiteSpace=wrap;html=1;" vertex="1" parent="1">
          <mxGeometry x="260" y="150" width="120" height="60" as="geometry" />
        </mxCell>
        <mxCell id="qnlNdgl8_N1mm-C95D2T-3" style="edgeStyle=orthogonalEdgeStyle;rounded=0;orthogonalLoop=1;jettySize=auto;html=1;entryX=0.5;entryY=1;entryDx=0;entryDy=0;" edge="1" parent="1" source="qnlNdgl8_N1mm-C95D2T-2" target="qnlNdgl8_N1mm-C95D2T-1">
          <mxGeometry relative="1" as="geometry" />
        </mxCell>
        <mxCell id="qnlNdgl8_N1mm-C95D2T-2" value="" style="shape=hexagon;perimeter=hexagonPerimeter2;whiteSpace=wrap;html=1;fixedSize=1;" vertex="1" parent="1">
          <mxGeometry x="260" y="300" width="120" height="80" as="geometry" />
        </mxCell>
        <mxCell id="qnlNdgl8_N1mm-C95D2T-4" value="" style="shape=image;verticalLabelPosition=bottom;labelBackgroundColor=default;verticalAlign=top;aspect=fixed;imageAspect=0;image=data:image/png,iVBORw0KGgoAAAANSUhEUgAAA2UAAAMWCAYAAABxwC48AAAgAElEQVR4Xuy9ecxdx3XgWdz3nRQlURJXSSS1mZJsSbTTji1L2bx0JnYaGgs9yWQCjCdCMGik/wvyh5HGTCczjQBtIH80BhMMgmgGjUwncXZ6nbQYa7E2auNOiqIo7vv2cZs69716X736ajl1qu69dd93ri2QfLeWU6eWe3731D015eGHH74lMlxvvfWW+P3f//0MJY1GEb/7u787Gg3hVrAGHBqoa77z3Gl3yH32yccrATY/8NBAkPfe3RElFDWvng8qjKnXVie2vFLkxSrZJW+ovdR2ljAebGPB19422lp3na72Uuul5ksZD6Exqs8BM61+L2ZtaEpec/7G6tfV3pi2xug3VV5XX2HltbUXmzelTzF5X/rJa+KZZ57BLslR6bZt2ya2b99uzTOFoSxKl8HEbFAGVcQJRkQDDGUj0pGyGb/5G79eAVCsEZH6UMY8HH1ajpU3t9ETY0CktJVqaFHzKZ3H6teWLwdcY2faZJU3RsdUHeUavylzJhbKqG2l5kvRkS0vVg5sOts8ouZNWVswL5Vc46QpeRnKsKtu4ekAyp5//vlKyj/90z8tXFoWjzVA1wBDGV13JeS0ecSUXBjDqY6HMkYvOR7KsQBKrTPFSMtdJ7Y8bDqzr6j5UnTkyxuSJ3Q/58uAJmDV1x5qW0ue47Y2lSxvCIhCYG22l9qnKfOtyTrbfoHGUIZ5GncgjQ5lurgMaB3oPBYxSgMMZVHqaj2xC8JitoU1+VBuwpD11UFtaxcMQ5fBEzIMSwAxin5t7cW8eNDbm2M8tFFnF/o0FyjEvFRKqTMlL3UcmXXqYzM0rihzxrY2hurJtT741qfQeM6l3//0f/yfvH2xdaslgwAuKGNAy6BcLqIoDTCUFdUdVmFyfx8WeiDW8VBuyhBwGT2Y+nMZApi66gCFGPlj0rpkbWocuYxnTBu6bsjqYynU3tB930pHzVunftlr2M43wU3BahNeQ/aUlW/foCTEQJlZEHvRUKrlRIVpgKGssA7pi5MbxExQwBo8bRvemN7BGIau9lKN0VyGS136DW0LiwHHNnQUq98c26Ri62zz5QV7DfFBi9oYv5g1ybW25cpLneN1rUm29lLHMVZHDGWYJ2gH0lCgTG8WA1oHOplFrDTAUFbOQKgbxOowArpkyKr2Yx/oPqO7LcMlxdBS7cGU0XVDVu+7UHupbaWOo9xzBisHNl3IeA7ps25YxbSD2qcpfVNXnaH2Uuul5sulI9ca6movRV6GsnLsmyRJUqGMAS1J/Zy5QQ0wlDWobEtVqSAWemD7WpfiPaI8IM2HeSlgg/UaNmWM5jJ6YiOfUfu0bnkxLxN8fdN1r2HsHG/baxgrr96/lDFI9bakvqRJGfcpeZvWr01PMWshpU9z9Q1/U9aufZOt9pxQZgrFXrRs3cQFZdAAQ1kGJUYUoSAs10M55uFIqTOHgZfroRzTVqrhQs2X03ApBVaxQN9FeWNkbnv8xox724sP1Y+YcqhtpeajrEk+iMPKgU1nmwNt5OUXaL2ewL5AU/ObPWURxknJSeuEMr3dDGglj4LJIRtDWf39HBMx0SVNCYZADLCUIG9Mz4a8KT4jntpWar6QcRJqN8bAs7W3DXljxpzZ7pC8vrJDeTHzNAb86upTF8Ao2erULxbqMbCoyoqR1/VCKbZfUvomRt7Y8etLr9+j6jcmX4qOqHkxumUoCz0NOnK/KShjQOvIgBhhMRnK6unc1G2J1AeVmS/WAIkxRs20MXlDxiK2V6h1UvTrMvJijJcm5aUYsrn6haJfm7wxuk2pMyVvG32aS16lc6ye22hrrjpjQAVj8LvWqFzyYvvEteZj5cCms7WXmrcO/dpkYSjDPkkLT9cGlJkqYS9a4YNkRMRjKMvXkW16xKgPxxTjzmYMYCGwBHmpRg/ki5E/Jm0uKKLW6RoPmPLqMLQwsxMjW8igNMdtqMzQfZ/c1Lx16tcnU4nypurX1iZqO3OuoSlrUoxO2mhrk3WquvibMswK2oE0JUCZriYGtA4Mmo6KyFCW1nEYj5jPmKrT0Ip5SGO1gJHXlabJh7JqD0be1DfetjqobaXma9IwNNur9BdjUDYprwt0sfLa2ovNaxuHMXnbGA9NzJkQJFN1hH0p5FofYvJT+6YE/er6D+m6BHlDMrrmOEMZ9sleeLrSoMxUF0Na4QOoQ+IxlMV3FgbE6gCiLhmyTUKRqWuqsZSi3xRQKUFeqtHDXkP7eVldNmTNsRAan6H7dayFddZZt9cwZq6lrEnYvKV4DeuYM7x9Md6+KTJH6VCmK40Brcgh1BmhGMrCXVXntkSMcYFJE3rzHPMGGPswd2mOatTU8VAO964/oleqQenSBbVPU/qmiTpzGnhNyOsDesycSYFx19v9GKO96TmT6jVsWl7by6GS9VuKvJixn3v8xvQLdh1kKMM8ATuQpktQxoDWgQFVsIgMZfbOSfWGYR8argeb/nvMw6oLhqzN8Ig1Aij6zVFvLv3GtLfrhqzSO2Yc59Ivpq5UA9gcg+ZKEpKB2lZqvpQ5Y8uLHZelyIt9DGNepLjmL7WtWF3a2kCtMzQefDKVKK9NNwxl2FFfeLquQpmpVvaiFT7QChCPoWy8E9oAMR8oYB+22HQ5H+h11IkpE5MmZztDhktoCufwGoaMe1OGHDqKgUasjjDGbkxbSzcMzfaWLq9vHGHGA3sNhaCO35h82PnmWptyrA9dkZe/KQs9oTpyf1SgTFc3A1pHBl/DYk52KEsFsaYMLZ+BF/OAbEreVFDIYeBRjY8Uo4eqX2o+G9RTx0NMvhQdpeRto09zyav6CqvnNtqaq059/ofamzL2c8kbklFvj01erBzYdDlfLNWhX0w7MGlC7cS8DHD1DfQpe8oaNijrqm4UoYwBra7R0u1yJyOU5QSxmId5inFn5qUaPW3JG1NvioeBagik9E3uOjFGFCZN7jfluXRkGlqhtuTWL2bFDsnkKyMkr6/sUF5Mn6Yashj9xLwMSIGYkNEes67kGr+hOl0vlGL7pSl5TR3HjsGSX6AxlMXM5oLTjjqUmapnL1rBg7Fm0SYDlNUZqAPTPbEPOZvB43ug28qn1pnLEIg1QGLk9UFbyGDS+6tOwzvFaPcZSepeTDtT+jQlb0yf5uqXNuTNVWedcybV8I5dk0IwFTuO2xhL1DrN8aDrIjRvu7Im+cYDVm/YdKGx5NMpQxnGQulAmskGZXqXMKB1YIBmFHFUoSzVG5ZiaKXkzfWgasrAyyVvyFjxGe0xBl4J8lLbCvli5I9JmwuKqHW65gymvC4bsuZYCLU3dD/nywCb4R0zdjHroK891LZS82HkTdUvv0B7aKDCmLFEneMMZRmNxTaLmsxQxoDW5shrvu5RgrIQiGEWduoDHVO2q3epdYaMCJ9MJcqb0+DRobQu/abKmzoebH1IbSs1X2gMYnVke4kABpXt+s3f+PWhn2OMuzrlxbYVK6/ZvykvWlLyYuVNhbgur0kp+o15qZRr/DbVp6a8+hwJyZBjTeJAH83blLXUyFBmVyt70WoZbq0W2nUoC4EY1lCKfTCmPBxT8k5WwyX0ADf7maonar6UPk3JazPcsQZiDqMHWxfWYNdB7I033rBO3y1btgx+V4AWGh/UtlLzpfSpKy9GFkwa15rYRt4UTxlV3lLnuKs9pcqLGUe+9aEJryF7ylo1L/NVzlAW1iUDWlhHXUjRRShLATHbm7uYbWFUQyDFSKujTkyZmDS2MU7Nl6KjUN4U4w8L9iEw8IFjTF6MfjEGHrXONkDM1Qc6oEEagDRzPueWt47xEGt4p8C4Lj9mLIXmeBP6zek1jBn3oXUl9IzPod/JJG/uscRQFhqhHbnPUBbXUQxocfoqKXUXoKzpQB0ugyflgZGSt+6Hcg4Dj2p8pBg9sYasmnfUfLb8MX2TUm8u/caMw1x1mjoytyW6PGKUdZLiRUsZgyl5c+nX1JNvTJYwBlPnDLYNufSbKi92HGNepLjmL7WtWF2GwDxGR6E545MpVl6GMuzoKzwdQ1laBzGkpemvydylQlmqNyy08Id0TAUV6sMxp7wxD0ibvNg2YNPlfKDXUWeozFhDQG9vqGzfOKTmDcnrK5daZ2j8YrYlhuZk7H2XF20U4BoLXjG7AHLO09B4yDnuqWu1KQN17FPzUXVka2/qmo+dW9S2htaknONBL4uhDNuzhadjKEvvIB3Mvrx1/aDAv96+N71wLiGbBkqCsjZBDPvQSIGYnEYPVt7UOs32du2hHCtvqsFDNbRyggLVQAMZYvKG2toGiPkWRtOLFtPW2HGUA8xzzXElC7a91Lbmkhcrp23O6HoPlVOCvCEZXeNIzVVsX2HTpT4vcox737qCaYeehgN9ZDMV2y2IoSxd/y4o00tmQEvXc2oJbUNZKSAW83A0HxptGD0p8sbkdb2FxhjwmAeoa/xS8+Y0tGLKKkHemLUg9HLB1b8hnZQGYi6dYLY5Uvs0BKu+fqqzTl/fUeul5kvRETavrb1tyBuaM7nGQ8paHYI/7NrSpH5d7dWfb+wpw/Zc4ekYytI7CANlDGjpek4toQ0oSwWxph5ypm5DDxzX/VLlTQWikGEfA39YQyvnm9zYOs32hsZDqn7bbCvlxYMthH3O78VS1zqV39zWmPubVcwLC5cR3MacmUzyjvILNNecxfQvdS2LXUNjn6kxa6itDbAmwfyeu2BJruVjUM62bdvE9u3breVOefjhh2/lqPGtt94SdRlpOeRrqgyGsnRNx0KZWSN70dL7AFNCHfMd5o9+waJoe6sVY4C08dDoMkxhHsR1GIYxRk/X9avrLzSWuz5+MX1leysNhou62gI0E8J0Q2rr1q1VxEZz3GLa20afphjBPnlD7aW2NVSu7xlFrROjI5dcpcqLgRPfms9ew3ENHvjwI4xpFEzjhbJb8tJLeOSRR4IF2hIwlPW0wlBGGj5DmVKhTC+MAS29P1wl5IIyG4iZD0f10MA++Op8KGMeciFD2ywjxVNGbSs1H8ZwSTGYMLrIpV/M7KDqCZsvp9cQOz9s7cbKm5rX9pIl9P1Gk4Cmg5jrbTboAKBMecqw412la2r8tjEe2qiz7jUJs+b7wCZ1zmCfF6H1LNccjx3H1Hqp+VLGg219srU3xYMWBWV6p8YAGkMZQ1loQcDezwllDGhYrcenS4EyDIhhDBfXAorJq1rcJSPC1l5qW2Py5XzIxdRbwkO5DXljDLw2dJRzPEBZISjTVycd0OD3HF40LIjpcmCgzOybmL6KSavLRc2Xs0/VnMHIgkmDgSLqPI2ZayEdhdoSuo9pZ055Q0/9kLyYF2glyYvRb0x0Un08xHjRvFD2zW9+8xYmDHkI0BjKGMpCExx7vy4oM+tnLxq2R+zpYqDMhDAoMfX7MPMBaUoZu7hitRF6UPnKoeYNeVN8Dz5qnSEDpI52+uoMwXPoftPyhsZTSF7f/bb7NLehlfJRPdWLRgExDJRh+8b3Rj63fusY+9h2qrpzvEArbU3C6lWlo4JjTL5cOkoZgyl5Y9oaWkOx/RNTp8vu0MsIedGCUKYLjgE0SG9CGkNZT4u8fTFkioTvNwVluiQMaOF+MVOEoKwOEItZhFPeUpttjTVAXIZIzOIfW2cOoydGv7l0RDUiUmSl1mnr1zr7VNdx7HjIkbepOlOgTG9nCNBSQUyvS3nKUsZhypyl9k0ueWPGvW2+YeUvRV7sE9IlL6a9mDQuOah5qflCa2io3ND93O0MyRvq35C8rvs2QLNB2b/9N79diTAFPGU+YTCQBoDGUMZQFhrU2PttQJmSjeEM20vCGtjHtS0xZUEMLYY+iW1GD9aYoNZLzZdLR6Y+Qu0tQd6QjCHAwLYBm84HnHAvVV7sLHPJG2pH1wzZXFDmAjT1u+8bMWyfqHQq0EfMWMDOcWq/d82QVfKa7Q2Nb+yaH9M3Tc6ZFBi36ayENQnbJyodtW9i8mHnm032usYDQJqCMgViev1BKNMTYwAt9PY8duHrWnr2lKX3WAlQ9txzz4kXX3xRwOHVDGr2PlVzHfN9WEkPDcybzJLkTTW0bO1t2+ip88HqMni60KcUIyLlxYPLKMau4rkMl5hvyrCyqXS+rUKxZenpMd+U5dZvzBhue47HyGqOe13PmLWC2lZqPso81dtEXaNKkBfTH75xj10z2mhrHXWG2mvej4IypWgTziCA45QpU6zr22SDNIaylMdcL29pUKa3iAHN3r+5vw+jLvyphgC1Xmq+FHlj6nQZPZgyQg8V34yv4yEXWmGoBk9OQwujV5vhkmM8YHWOTWfqm5rPp986PGVtQxlVT6F8vvuhvHXM1brrtJXf9TUp5nvnuvVrGxNN6te1Xre5hoaeMSkvW0K6JUOZ8iSoiPoAZUdOnBJ/9Ed/VMn773//2xPaNRkAjaEMO5zd6UqGMlNqhjRhPasHOwqoDxxqvpDhHSo3dN/Vbmq+kLwhPYfqdd0P5avDuEtpK1bekIE3aoZACqDqfYzVb8jAc+l3FKAsZGzVMWdy1ZnjZUBoLUoxZM21oWvyxqwrtrbGtJc6V6n5cq3b5vgJ6awEeUMyhtZQWxtqgzJTwSakjSqgMZRhl+bRgDK9FZMB0PTDUlXbYeuRukLn9uQyImIWQ+pDw2bQxtTb5YdGjBFA1W8phpYau5i+baNPc+pXX69C7W2yrV2FMtvh0dgnIFW/rjUUs7ZS68w5BkPjLmTI2uDOtl5R24rRo6uPqXVi9JvS723Im1qnrb116jdVXlv+GHlV2sagTBd4lL1oDGXYR9LoQdmoAppra6JtwQHjSr8gb8zCZI6KNvKmeI9KkhczE33yYu81BXAYwwXzYHXJm9LvmHqpxmhd+rW1lzp+Uw3ZUf+mzAYS1PGAzZf6UinXfMPKm1NHdc2ZVMPbBZwp8qbkjemb1Dmu2h5TpzkGY8ooQd6YtrYKZaMMaAxlGFPQn6ZL2xexre2SF80GYaGF3zTm1L9jvGhdeijbDJ6QjnzAmZI3ZuGnGlopDzhqnTnHQxM6GgV5Y8YhFeBs46GrnrKu7AzA9lXKPMfW0QTYYGTBpKnzZUvONSnUltD93O2se80v6QVaSltt7WjFU+YzZLu+zZGhDIsp7nSjCGV6a0sEtNyBOvT2qoeP7kUzjZkuPTRcQIZ5i0dtZ66FP8bodtWJNdyobcWWn9O48+k3JE/ovm9FpOqozvHga09d8o4SlNWlo9CTFVuvb/3KCQq55PW9zMLIO9lfoOVY80N9mfOFVIq8KXkxY8nWztx1Fgdleud3cZsjQxl2+k5eKCsF0HKDmGtRsxkLtm2O2JGDNT5yGu0xdbq8hrGLdy7DO+ZhQ6kzt9FTt7z6uIjp1xwPZIp+c9RLaWeThlbXoax0/frARr+HmXvUtpby8gIrPzZdzudMrvVB70dMOzBpXM9nal5qvpCOfOWWMgZ9tk6RUGaDMVsjSgwWwlCGNa0ZypQGmvScNQVioQeVCSg+L1poEfaNuBIWYSVfrMETC3F1PeRi9Btj4JUgL6ZPfHCCbQM2nc94jpE1Zc748obaEbrvGktdhTIV6KOpvqHqFzsebOWXsIbG6DdG3tJeoNW95ud+gVa3vF19gYadb7b1sFgoiw25XwqgMZQxlMVqoG4oSwWxmIdcjFHpKlcHNIrRU7fhQn1j6GpvqfJS22mDGPXwpra1rjEYmqsx8roMntINF9OAwMpra2+M8azXO+qBProwfl0GcMxLpRRjNCVvzDz1PaNiXiqVIC91vtnWPV9ZufQbI2/uOYMtj9pWbPk23et5OwtlesNK2ubIUBYyc8L3R/2bMlMDCsqef/75oVvmIe1hzfVSUAJ1xMBUSI6cixp2myO1zlwPVqwh6wOWkF5tedt8yFHkjTHw2ujTXOMB+iVG/pi0ueZq7jqx5dnSjaKnDKuPkJFWyhz3tYfa1lyGbIyOsHPc1qaS5Q2No9AzymwvtU+x+g3JW0ef6nW6XqLF1FuHjkYCykoCNIYyrKnmTsdQNlE3GECbDOHnbV600MMm5+JfxyKMeYhR66Xmw8jkmsEYw8UlV6nyYtoa+6aZ2laMflPlTZ0zLoPHNVe7CmWuF2CjsCb5nuRdGIN1vLyI7dcuz3HqC7SmdJTzGaWPlRCUUfsUK+/IQZk5EZv2ojGUMZTFasDlKXOVgwE0yBsK14xdJEIGWt2LsMvAiwm33yUjwtbe0IPC9QYwJl+u8ZBSZ91jSemp7gcrBoqoRk+KfmPy5pozpi5sMnQZynweBt94zqXfmD7NNcf1dmHa0cZ8w8iFmaemfkPlUttKzZfSp5i8rvaWKi+lT13PTzXOqW0NjRWbrCMPZXqjmwA0hrJYJJmYnj1lcTrEQJoOaDkWmKYMAdtDwyZ/KYdWUxbhEChg+guTpm24xoKjry116Bcz2+rUr6tsap0YQyvVcAmNpVivYVehDL55Da2FrpdKoXymjrsyHnK+VGrqJU2uOTOZ5G2qrSWs+U2+QJtUUNYEoDGUYUwcfxqGMroOYwEtVFPbhkBo4Xe9pY7xooWgqCQd5TDw2uhTqtGT8kCm1mnmC43B0oznLso7yoE+UuYsda6mzBtqndgXaClAX0relBcpOfUbejalPttCayi/QOtpOGefTlooMwdzLi8aQxl2mXCnYyhL1yGUgAE0SFfHQc5tGYa65tSbaFewkFIMF2xvu4w7lT/WO0GpN+btfm79YsujPiCp+XI/lG2GlG0+lSZvaDz55O2qp8y1RRzTN7bxjB3jJcJJaM33rV8x60rKfGtSvykwjl0DfHMOMwZd+Sl5U3Sb0qcpeSntrLtvGMosozIF0BjKQo/m8H2GsrCOKCkwkIbZjqPXnWtRq+OhbJMNfqN40VIW/pS8Mfo108bkNccTNS81H0VHuY2eOsZgyHgOGbKuuRaTz2ZExLQ1xdjCjodRgDJsW31zDfOCpe31l9pOc47r7cCMR2q91HyUNcnXN1g5sOlCawtGp3UCBqYdmDShdsauhdQ6Q+PBV27MGspQFrBufQdZ285GYyij4MJwHoaydB2GSsAAWspbYFf91AUxZlELGT36w4oPre5pK5d+YwyB0EPON4ZTAJQ6BnPKG5qfIcMb2wZsOt+caaJPuwpl6hzF3IYh1sCL6ZuS57jrBVosuKW+gMg1x0PjIWX9yjVXqWsDRUddfYFGaWvq85ShDPl0xMIZQxlSoZ5kDGXpOowpAQNoUB7lIGfqopaSL5TXZZyY2xy74DXEGFquNE0+lG3GUshwoRoftvZS24rRr2uuUesMjV+fXsx7VKM9Jl+svDbgHOVvylJBoQtjkDpXMWMZOxap860E/cbAZwnyYvvEBigxaxS1T3OsSUpOaltVPmx/qXQMZQjr1QSyW7duiSlTpjhzmocAI6rgJJoGGMraHQ4YSPOF28cuQrZWlrQIh7xoKQt/St5cOqoLinIZaCk6chkDmAdsLv1i6qoDVmPkj0lrg6lchktXPWWhY0fq0G+ozNB939OFmrfONb9ur2HMPM25JrnqDXkNS5M39Tmey2tY5xjMOWdCXkOGMoT9C1D23HPPiRdffFEAkMEFUHbkxCnxzo4d1b+f+cLnJ5TEcIZQriUJQxlNb3XkwgIa9WGe8pCrYxF2tSPHodV1yIvpc6pRU6K82IejCzhdumh7/NZlaOU08OrU0ShBGVVPlHw2Ay9mLI3iHHetERT92l6atKHfNl6gNVVn116g5bJZYBzZxiRDGcKqwUCZKubBhx4SL7zwgvjz//vPGNIQurUlYSgjKq7mbBhAAxFCb49zLmoxTY59KLveaOmBQkLtja1Tb0/TeVMMtJQ+TcmbS0cxBkiKnnLJm2IYqjGGKaMpebsMZaWMB6wcTfWpuTZT68W8SIl9CYN5buSWN7XOUP+WJu+qu1dPaPLhQwer30Jt8aWhtjPXcybmWRFTp2oXQxliplCgTC+WAQ2hZC0JQ1mcvtpKjYE0BWiYRdjVjlIWYZcc5jbHUuTFjguM0ROz1QZTb4njwddvbfRpzAOdYgCn9HvuudpVKIv97jRXn2IMQ9dLJQyM53g51PQct7U3pq1Ny6t0TF1bSpNXQdjmzQ9UTVu0aOHQMrFixW3i4yNHqt9ee/WVwT0Far7nRhttpfZLyhyHvAxllpHwpaefHvoVtiaGti+qDMpT5hpgDGhhk42hLKyj0lLEABpG9jYWxJg6zbTq35Rw+zH15jCWKA+NHAYetZ0UeW0GD8aQTc03aoZWaK7mMpZGPdAHdexT85lzRu9HDKhQ66XmS5njtrzYcdmGvFjZbHMP8yLFtc5R2+qSNwRhIAeAmLqOHz9mXU7Onj1X/f7ee+9Wf9q8aeaY9emwDv2G1sGU8WvKy1DW17YJYnon5IQys3MZ0iYOd4YyzBJQbhoMoIH0fGh1rw8xRpLqbeqDNddDw9wHH5K/BHljZopNXuxDntpWar6UPvXlDbW3Dnm76inDHBsSmiPm+KxDv3odtv4N9blvDtUtr63uWHlzvFRKmW9N68jW3pTnjAKwe++7X8yYPr3qEtMTpvoJA2Ku8aR70y5dvDgB1Fz5mtZv6vPYJ++khjIfiDUFZXo9DGg9bTCUxZiR5afFQFrsNqA2FmGsIeAy7CletFyGQJ2Godleat9g9Rsy0mKMD4p+cxh4VB1R5LUZEDHjIaVfsPKOApS10adY/YbmjLqPnTvUtqaMJWqdpo50XYTaW4K8IRljgNtXlt7Ws+d63ivXVkRzPFFBTM8HZWK9aZB20cLx7ZF6uzDjBJMGM2eofePLN+mgDAtibUCZOQhMSJss0RwZysoHLaqEGEDDvH2OWQxzGS4pdZpGTyjcfo6HRoq8KXmpRk9KnU3l9QFoCHRy9GmoDnNeUut0zRmMkYpJY8rZVSijHh6da03KPR58fUcdS9R8KTrC5rW1t2R5Q6AQWgdtL5RmzppdFbt4yZKgF0yvPweIuSDMZV/ode7ZsynLaAkAACAASURBVKdKZm571PN28QXapIAyCoiVAGW6DJPJi8ZQRkWebuXDABq0iHJoNcUwVNqr86FsK3tUD63GGPYhIyIXZDQ1HurwGjalI6whGzJ6KPKO+jdlpm5zw5Rv5aeuZ03NmdLmuJIHO467pt9PPfrpqomr16yp/rzzjjuqP0OAhPVq2caiynv+wkXx5tu9b8c23turP3Rh4U99m1bNLfl9GuQbu3qlKl71JbavsOlsslPzqnwjCWWpEGYqus5vykID0nbfBmgq3Sh40xjKKKOi+3kwkIY9tBr7QFVaoy6kkJ+a15Uv5EVLqTMlL7WdZp36QzI0artuGKr2YcZjLv1i6rKN+5h+sY2jGPnNtF33lOWOTpoyT1Py+vow1L+h+765Ts1LzYfRUYouXG2tU15bnfAtGMDJqlV3iekzet+CzZg+zSqeDX6wQKQXeODDj8WVq2MS9m4X69feU906cPCgOHT4aPV3HcY+2H1gkFX9ngP+oFCATFcQkdT1S29v7mfUyEBZbhDTlV4alIFsowxmDGUhU3X072MBremHnLmYpxqyqiddC/tkOLTa1GEbfYox0lIMLVf/ttHWJuq0tddXb1ehzHXkhxorMYCcawzmWpN8Txmzf1PqTMk7qvq1PRdi2gr9A9sSly5bJq5du1YVt/K2FSjDwYQiBTi+zIcOfyIuXroiFixYID710KYq6T9t74W9v3vVSjFv7pzq7wrC1txzp5g9a+agSAr8qcy+vEePHa+S3bx5U0ydOlXs27tnEN3RnG96+0K6rnMN7TSU1QliegeVBmU6kN26dasSdcqUKeLIiVPijuVLJ8ydrnnPGMpQa+ekSYQBNFDGqBxa7XpYlH5ode43htgBTn1AliAvtDFkACg9lCAvVtZYg2eUoMyMUBrSWY7xG6rDnEvUOs1+jdkWlrtOzPpQ15wJtSV03yV7TnnBS/bUU08NqqoABczFKb2fdEgLQZHrvv77mzveF/PmzBSLFy2QXrEepMHl2qYYqtPXv668JoSZILpnz97Blkbf2mvrP2qfuuaMq32dg7J3duzAzMWsaUqEMte5aS+88MKg7V39Do2hLOvwHbnCMJA2CodWhwye0g6tzmUYYh5+mDS2gU/NF/tgjTGC69gmlSJvTsMQ2wddhTLM965m/9atX4zBHzNXY+W1edFiXj7YXkJQ5Y3JR50zOb2GOeWtoOzJJ8eHg3xxr1+nTp+V/+xR2rVrYyRPWug7NHMs1gliJmiqulWd4MD47nf/ashTFjKOYse+bezGjn2GslCvyPtdhTKzaV2J5shQhhiUnKTSQAygYVRGNdqpi3esIeAyeGLD7TclbwychAx4/X6M8ULt09i+0eWj6pear2uGrCnvqAf6SAEV6vhNGUvUOs05Y85p37wtQV7quqIMb2wbcunXJy9A2ZMalN1228qh7jCBiuJJw3z/RQUxV9khbxg0Us977FjvWzYhoewnL78chDLsSzITtnL1KUMZwlIbFSjTm1qyF42hDDEoOckEDWAADTLVcWh1zMM8xdj3GT1KBjOao81r2Ja8MfWmbCGhPiCxRlUIIGPa6RsPoXaUJm9oWXLJ21VPWWrgIVf/hvrdpWdqvpxrEha8Yrd5pr7gcb00iZmrsfpNgfFUeQHKvvKVrw6KOQ5wonnLBn4zw4OmMlA8aZTv0fR22gAOA2EAXCv60AkesQo4+5/2qPLPnjsvvvePfzdh6pS2hhYDZfr3YTEQFHoI5LgfI8+DDz0k9C2EOeo3ywCgwmxfxNZdGqAxlGF7jtP5NICBND602q3BWANEldTUQ86UL4e8MQZaU4asS6/we8ny2uR2yTsqUJZjDMb2K7XOlPGba46rMYIdx9S25pIXK6dvzmL6N4e8EOhj3bq1Qwv88AZGecuANAU2kGmCJ+1oL2gGfJNmfquVErnRB2JQnTNASR/EVFwFE8R60RbGr3MalFHHkW/OYMrEpGkVylyBOmIgqAmzNEaeLkKZqcO2tzkylDUxqidXHRhAA43Y3nxjFlKXNql5qfnMh4Zp9PjC7ecwBDAGh6kraltdb6ExMlDr9D2UQzMqp35jyqK2NaaO1D7tMpTl0K9p7Id0T60z1/hNgRNbXl97qW2l5sulI986ZGtvHfJ+6dlfEAsXzB+CLzVXAdB0CIPfdRDzedLAezVjxoweoclr6ZJFE5a/y1d6UR/hWnHbbUP358yCvL0L6sR4wwC+1BbMAYj1tyaq+CUmiA0qkXmv37gl9uzeWf2Ue/z61j/9HqbexqEMEzExBoImjIQafoiRZxSgTFdhG140hrIaBjEXOaQBDKRhPuIPLcaYRViVUcdD2Ve2a5sjdqjUKa9LBmydtnTYvLa6qXmp+UCGmLxm2pi8enup+WLlNevs6jdlTXnaQ5Dmm7O58sasZanjIdaQbWINTV2TQuuKuo/VM2auPt2HMt1D5vKGQRotOKN1q6Mrr/oe7WZ/y+DixUsmNNcEswP791eh6m/dumH3hvXL8m1L9EEYCKDn3btvn/i+Zfti7n5NefZA3kagDANiumJiIAhrQKSki5Fn1KCsDUBjKEsZrZw3VgMYQEv9dqTOhR/Kxj7IfcZSnYdWl2AYxuipBHmpfRpr0GKMuzrHL7Szy56y0HqTW7+Y8jBp6uzTmLkWArhQW0L3Me3MKW/qeHC1h7ImPf3Mz1eeMhOmfNsYlfwqjQ3EBgBnfI+mvGNnzpyWh1XPkH60Xilr1q4Vu3f1vFTqUuB2z92rBr9V373JC+o0vWEqUQyIqfIg77nzF8T3t/29s3so+lWFxYzB0Au02qAsFsR0TcVAUGgC5LgfI88oQ5mpy7q2OTKU5Ri1XAZFAxhAg3KVFy32YQ7pYxZwvQ3UfL46XQ+i3IdWxwBGio5CeX0P3jr0GxqDdRsCrvKpba1L3lGDsqb0a/aHGm9NzTdqO0Pz1DVvbO2NaWvT8lKMdteaH/usgbauv/c+cfvKldUWwSEQswX8UBXLe+Z3XiGIU/fnLxo/J/f4MRlso3+dPHlCLFu2fEK3AnjNnd3byrh8xfAWR/hNQZUVxCyeND0P/H2QT6Y9f+HiBChrYzy45qzq3+xQluMcsRgICj30ctyPkWcyQZmuW9s2R7hPObiaoSzHqOUycmgAA2mhQ6vrMmRD7aM8cGwPDD602q5pin6pxmiqcWfWG2PgUdsZ09ZRgDKqnqj5bPrFltWlNck3djHtxaRxraXUvHXpNySPef+L4CmbP69q3mBrYh/IXFsap8j7uodJDwai9OTK++Ghw4PDqSGt8pSB50x5xm6No1IFf+r7Mr1OBVMTgoAEtjQOwZsRffGchLIfSE9ZSIe+5yo1LzYfpGMoC1k28j5DmV9JLiDTc8XAGUMZYlByksY1EANo2EXY1og28trqdMmR69DqugyX0MBwtSuk99LkjWmnDcJ87Q3pIrfh0lUoo3rMm9CvWUcTdeZcz2Lltb1Qinn5kPriI1ZeXVeUvLb2ml7DL37p58R8CWUAWiZQ6dsST0AI+UGCiWnNey5P2uWrKriHhm3yr2fPnBGLFi/ueeA0cjp+/OgAykLbEnVPmg3geuTZQz61vVL9Bm09evSY2LtnF3mrf+xYovRpBbLf/OY3nbpwLbxgnLhCsrOnrHsh8UMP99D9UIj+2GAhDGUhjfP9tjWAATSQMeRFy2kI1PnQcBk8KYdWx2w7grZRH3KUvBiDJzQGm5S3zXFE0a8pb1cDfWDndw4dKZ3FzJsUUKGO3xJeXphzE3t2Wp1rqClTDv2qdrl0PoCyfuWub8tsXjTzNwAqBXcDKDK/KZNQZm51XLFipTh4cL9YvXqt3EbZP8gZ+Kkvkx6JUUGU0pULxMytjhO2OVrOLbsAnrLv/UNo2W70OaMLo/qQoSzYRewpC6koBGV6fgygMZSFNM73S9MABtJ0A64EwyWHcacbMSUdWp1bv1gDCpvOZ6CVYBiG2pFbv131lIWgLKRH1zpGzYeFP6q3uC15U+stwWuYe874noGqrnUb7pWRDce/1VIh723fl02Aqf5hzEMg5vsWTQp0+er1SqxhL9xRcfbsWbFo0SLdSTagsjnwTZm21dAW5MO3LRHu6Z67oXPLNCXBN2U/dEBZ3fPN1leu8cBQhrDuePuiX0kxUIYBNIYyxKDkJMVqIBbQMA1p+6GBfdOsv7mN9aIpPVDbSs2HNWRd8lHrpeaLlVcfXxTDsAmv4ahAGUW/qeO+6fEwCvKqNmBfTFHnKjVfSp/qedetl1C2ciKU6WuC6/uwoS2NkMHyLZr+vRmcIXapfzYZeMTU92TgOqugbOH4WWbVJsO+K26uPLPM5hEzQUwP11/ds3jDKiDUAoboHjTwlP3w+/84aDq1b+qe4wxlCIuIoaweKDNLtXnRvrx1PaKH8iX56+17q8LU9twm6ld1xnx3l6/FXFKdGsAAGtSf89Dquh8aLn35jHffmWglyIs1zkxjydRFqByqIZBipOWsM6avYurtMpTFtNMcL23k9dUZ6l+qvKFyfWswtU7MnHHJVaq82LVXrUNfePrZ6puy6oLDl1fePlQEeM6ckRYDERqhIHWYM/wdyhocGG243c6dPScWLlo4qBu2NCpXGWxftEZZ1LxnehTFCeeWmUrp5zM9aMfkgdf79u4epA6t1XqxdY5BU3yGMoRFxlDmVxLVU+Yq9Tvf+Y64Y/l4aFWVrklAYihDTAxOEq0BDKSlHlod87DBGC4pBpPrYYY5Ew1jgMS0tQlDy9Ze6gO9CXltOo6R1wbiqsyYvukqlMUeHp0y39oYD23UmaKjlLxdaytmngKUzZs3d/w7rz5oKRDTA4BUYGR8I2Zuc9QBbihKYz/feKCP8ciL0Cfnzp0V6zfcNwCxY/3zyODe4JsyDaZsgTogLWxNVFswh9aufoCPahukakPfk6a2Mx47flzs37sHDWUY/dbxjGIoQ5hVGCiDUPjqeuGFFxCl0pPkhiC6JL2cueUBKFPXv/7Kk2LbP++aIGJdgMaestTRwPmxGsAAGh9a3dMm9QFJzZdSp5kX/o0FlBLkxcpqa6ca+5gy9LZ2NdAH5gVKl419fexixiYmTR2GrF4mZuyp9Fivoa1MalubHA8AZXPnzqmgTHmYBjBlANhQIA8tGqMOcEOh8kGJNojTAK3nERPi0IcHxew5swfd5AUxLez9hO/DDOhS2xh1EBvaCinbAWVA+y9euhzcvkjt05TnhVknQxnCgvJBmcquok5OxnPK6oYys4vqhDSGMsSE4CTZNYABNKg0RwjuGEhIedj48roME3ObI8boNTuj7QerTb8+Q6xEeX0DHCMvZluYbuh21VOmXprk8hjWNd9CCxamT/UyXO2NAaKUtsbK65IdK6+tvdi8Ke1MyQsyr123QW5P7B3abAt7rzxh1fdaGmDp2xIhr8075TqMemhLY9/7duz4SXEb7H6COozzw2zfh7nqVJBWNUgBmuERM8FRbX28ePGS+NEPtk2YCtS+rQuuGcpCq5W8j/GUqWIYynpTACb4kROnBMVraHrKfF2UG9AYyhATgpPUrgEMpNUV+S3FEKDmxUBayV7DGAONqiM16KgGKTVfirxYg6frUGbqSF8gMGOD2jd1GYahBc6UFyt/KfKG2heaa5j2YtK45KDmNfP97BefEfOkp6xvlA2qswEVwFTlVYLDo8FTpuBJ/tv8dsyU23Vf1XPi1GmxfOmSHkupzI5AHUNlq22JZoUmiGkeMbMO9e+33npLHD50sCoppF/X/VA+37jC5mUoC8xOgCz4vgl7LhtDWbNQpndfDkBjKMM+rjhdUxqIATTswm+TnZo3t6HlkoMPre71GsbIDxmVmLGbYzxgt311FcownuvcBh61XzDGaA6jkgpsJa9JWL3o6ajzNOccByiD7YvqUpB0+JPjYtUdt1VBPpSHDL7zqu5LCJsAbZpXCoKFKHhT5ZqetEH+vvftpISyZUsWV8lheyHU6fo+TG03nHCAcsgjpsk4BGbyH9BOgLKxq1eKX0MZyiyzTf8+7LVXXxVf+YWfYyjzrEpNb1/EGBSQhgJpDGVY7XK6NjSAATSQK+RFSzXamzIMXduk9HD7mPY2Ja8+JiiwivUsYY3EEgxDjKxd/aYMO89MIFI6wfZPV8avbV2JBRVqW6n5zL7B9kmorXA/9igR7DMF29YKyuBbLm1rIgDKgQ8PiwvyG6vzMgDHvWvvHt9W2Acy22HS5sHTrmiOZhsA0M5duCTWr1uLAzFjW2IFWH2vnfLgKfl0rxuk27X/UK898jJD47/19tsDT1lIz5gXKbb+paz55jhiKOtrRAcx9X2YUhZvX/QP4dKgzAZjthbYgoUwlIWWK75fkgYwkDbqh1ZDf9iiOWINF1t/UvNS87kMQ2x52HRmW6n5chqyYLh21VMWgrKQfn33Q3ld61AOwzAEFNQ5Y2tTyfKG2hnSU9tew1V3rxZPP/2lqhnKO3XixHEBnrKbN26KK2Nj1b37JMjsVkBjfFs2tKURytGVYgT6ML9FU0l37twlli7tecoGlxZt0fw+DNIMPGm20Pjy/u59H4oNmtwg/xOPbRHTpk2tqoBvy3Rv29sBKKPMt5Sx61pDJzWU+UBMHzsMZa7lv/d7iVDm2m4K8vrC7TOU+fua75argVhAw7SE8qAyHzbw75i3z9g6XQYe5dDqlIcrVl6bvmPyuryGdek3VV49f0i/owRlMX0aoyPffKXW6TIMMWtDSt7QeCitrbn0q9qFWQ9z6GjmrNnijtt7ERB1b9nHEsrggi2MCsbUn+Bh2nvgkDxz7Kq4cX1MrLp9xaA7zG2JroOne9WN3923f79YAOel6SCmSrV9W+YAMQC1c+cviqMyXgFc4BU7euKseHDTveKd93eLlcsW9kDM2MoIP729Y8eQpyyHfvW1F1teaCxNOijDgpi+KDCU+ZforkGZ2RobpPE5ZdjHMqcrUQMYQAO56zq0GmN06HoLPaiwRppp9GAPrW5L3ph6U6Asl36p8obydR3KqPp1GXIYA49aJ8wRal6MXK656qszVG5p8obW/JC8mH4PzRlTBlud4Cl76MEHJ3wn9vHRE1X2O1cuF3sOHBZbn3isghqAG9giCICmrtkzZ4p7Vq0Up8+eF0sW9w6AVrilb2mE6I7mtkdVxqnTZ8X99907KBO8WBMOgbZFZZQ5dkmPGHjylNcLZLvz9tvFwoXzxdLFi8T2l38qPWZ3iT37P6r+BCCzbW/c8c47YtHC8QOsc+g39rmkQ5wr78hDmQ5hoARza2JocsF9hjK/lroEZXDumbr+r+/+ZKhhvjPRwINW99lozz//PGY4chrWQLQGMJA2KuHnfUYnH1odHjohAxlriMQYPV2FsqbmjA3IY/TrmxOhERECjDrGQxtjMJeOMIa3rrM62wpQ9qCEsqHQ97Lyi1dvCAgRr66VyxdVUHOvhJrd8k+41q++U3z48TGx5u47qn8DDAEcQaCOE6fOiBXLllQAZ5atPHK6F+3UmXMSoBYOgZiqWw9hX307poXNB7iCerd+5rGBrACPt0mPmLpA7qlTp4glixZU/5nfmQH8QbnvSCh78/VXQ8N96D517Ke8QBtJKDMDdcyePX5oXVSP9BMzlPm11lUos7VKgdq3vvUt8cd//McTtjrWAWZqyyRDGWV2cp5YDWAAbVTDz+sGEwbQcjyU2zCe9TGBqZ/azlyG7KgH+sipX6wRj01nWz9yyotdnzDeIxfwtC0vZo65QMzMG+q3mLZWUPbAAxXo6IdAv7Xj3UqcS3KL4r1rpHdJXnsOgKfp7grO4AJAUxeAjelJA0CDwBoAX8vl92KmF63K26/3wIGDYs2a1RXEqeiKqmx12PMOCVtwnesHHxkEJJHwCNAIHrCLl6+Ijz850fOIwSV/A7mnT58u5s+dLSM8ynTyUiAGf1fQ98677wYDfYR07xvL2H6x1aH/NjJQRtmWiF0sGMr8mhplKNNb7vsWDTuWbOkYylK0x3lTNIABNCgfE/rbJkcTD7lQvT6jR90bhUOrXYahy1jAGhGx+qUYLl31lJXw8sL1Vj4nKGD7FNLF1EsZg6lewxLXpLr0+6lHPy0eACiT1+DwaAlKavvi5ctXxYY1q6r7ew4ergANoOfSlSviKc07BXnBg6ZAbbcEIfieS21zVF4x+E3f0gjflUGo/TNnz4nFixYOedWqSrVvzKCshQt6HrCVty2vPHGwNXHa1KlizuyZ4na51fLYidPym7ILUua7Bh4xgMhlSxaKsRtCPHD/+iq/AjE90Me7DiijjEHVX7nyqvJg7nQayuoEMX2SMJT5zb5RhjLY0hizzZFiIDOUUbTGeerQAAbSUiPOYQ2QGOMOyqQ8IF0GGsaLRq3TzNeEIZtqRNRtyI4KlFHGYM7xoM8tzPzJIS+mHl0uap22+YYtC5vOtja1kTflRYqe9+y5cwMo09t2pP9N2YwZ08WFi5fF2nvulME9DksQe1ScOHlafHL8pLhdbhEELxRcyoMGHioAMB3QwNt2/uLVKh18kzaAP/ihvxXxzLnzFZRVl3EgtPLgVYE6pEds975D8s8lMjDIXHH05Dmx5p5VVQh/COJxuA+M61evGhxo/c4HeyoY+8krr4v1EjBt55tBte++9x768Og6nlGYNRTSdA7KdGVRvg+jGDIxUFYNTHngtLpeeOEFSpXePLkhKFXA3PJ85zvfGYikfwOGlRNC4ruiL4bKM7cvmunhvq0MMwx/zDZHhjJsz3K6JjUQA2htGy6glxjj0CYvFtCobaXmg7bVkTdkJNRRp2v8dhXKdA9yjjGInd+YvrH1b6jP6zBGU8ZvjLwuj2FsvzQlr6lrTJ/qeVzt1ddB2L64edOm8UiI6nst+SdA2JOf3iLe27lXPLBxg3hXwo36VgvugQcNgnuclN+DgQdNAZoK8wEAB56w8xcuih3vfiDuXSfPB1PfhPUFVR60M7Kcxdr3XkNniEkvHOQD0DMDdkCd6/t1P/XpRwUA2Px5c+V3bneKwx8fFjOmTavasU7KCn/CBWBWXUbI/eMnTpIOj841HrDPp85BWVMgpg/+WCjT89YBaLkhCPsgcKXLLU/JUIbRVeyh1QxlGK1ymjY1gAE0kC/kRTMfcLEGU6zh4jJiMA9Im9EzqodWp/ZLquEy6t+UqXHY5Pi11al+w4z/lD5NyZtLR/rcx7SXWi81Xy4dqTXUJoeCskoXfSC7beXtA9XAN14AMwAyCsTg5t6DH1eBPiCP+h2iND70wEZx4NDHlbcMPFdw/1L/Oy/9GzQ9/D6UB2lW33PPeL1yS6O6lGdrTz/i40IZOn/FMnmmmSwboOzJx7eIdyU4PijB8dXX3xLXr12vsi6QkRQ3Sw/Zux/slTC5oFecEXJfh78f//hHwW/KXHMGM35yzXGGMn3mOv6eAmV6kWYkSKoXLTcEIVTgTZJbnq5Dma4s30HWypvGUJY6Ajl/0xrAQJrr0OqYB1yK4ZKS1zRwXIbXZD60OsaLYY5PU59d9ZTFvoSIGfs59RvSv36fChl1yutb3zDyxnjGMWsppk5XOdS8MflU2qnTpovb5TllACfq3DAAMf2qvFnGIdAAYsrLBfCjPGkViMkLAE19iwbnmcE3arDFUfeU6QdJ79mzVyySnjLTe6XLAQA2Rwblg+/ZbluxQoLi3VVwkfPnz1fJKkjs163yKXBU8FVFb9Qu/QDp99//QMyXwHfixAn533Ex5dbNobQx+o2ZT9ixC+mK+qZMBxYIqODaftY1T5mvQ6hetNwQhFmEfGlyyzNKUKb05oIzADOGstQRyPnb1EAsoGFkpT4gmzAMXdvCJtuh1TGAAX3u69NRg7Ic4zenfmMNQ8wcDfVpqIwcOlKGbKgudd/m/cbquW15TTlvTZkq1q/f0IuuqF179u4Tb7zxunjmS88IODx6+fJlQwc5T/jmS8sLIKYCdYAHCq7z58+Ne9L6UQ91r9olGSzk42MSyuQ2Qx3EdPg7d+5Cda6YgjIo1zxLDL4fA29YtUVxzkwB36FdvnSlqhsgcOEC6UFbukjc7B8gvRjKk5eK3qjrQIczCDQC9cK3b7CV86OPPqoiQM6eNXMoKMmOt98SL7/yioQ1GTEEceUYD7ax16qnzBWoI5dnCqFXVJIm5InxouWGIJQSPIlyyzNqUGYCWRUS1ngzpdTLYfFTRyPnb1MDGEAD+bp+aHXoe47SDq3OCasxxgg2bdehLKd+Y+YvVr9mmT55Q2WG7vvkp+al5gNZQnl990N5XW2l5gvJCyD2xGeekN6v8S2IL23fLj48dEhs3LhJPPXkk+LtHe+I++/dIPbs2SPmzpsnYaYHL+AN06ELflKApkdM1M8egzQAQVNlBES1zRHKqP7eB7S58xZUWxoBqKqoh33bZnBOmfz3WQlliyRUDUCs/+2Zvr3wn/uBOvbKb8sUiKnvw06eOltFWFRbMHUQA+iCuszzydS/VR0n5DdlH330ofjc5/6FWLZsWaWSXbt2ij/7sz8Tn/8XPzOkU9Wv+/bvFzt2yIiIEtSamuONQxkmYmITEBSz8LUhj8+LlhuCYnRhS5tbnlGEMl/gEQgeYgu3z4CWOjI5f9sawEBaUwfwKl1QDSZMPlcabDRHW39h6s2ZL2QY6nXZZKPI21Uoo4zdGP3GwFRorlP6JcWzZLYT/o31SqXoKCVvU4a3r19dOgIg+6Vf/KXqTC64/uEft4knJYSdPn1GAtn9Yu3addUZX/r18ZEj4oL+m/YyGLxa+gtimwdNPwBa3+J47OR5uaVxffVy+eDBD8WRYycrkHIdJA1h7AEOdQgDOQfbCyWkqUAdAFPqGzc9aIcOYoOQ93pgERXV0TiAGuoB6LwpC167Zk11iDSA56lTp8Uzz3xpoK5t274nfvray2LRwt73abemTBNf/vJXxF7pebx+fUzs2fVBaIoN3afMNyigdigzPUCY7YdtQJBPI39ljQAAIABJREFU223LYwJabgiKGmmWxLnlmYxQBmrVvzEEneoXA1rqKOX8bWsAA2h1nPtUgqEFurediRbyGOr5MP1HNQSgbGrekNfQJ7fK29VAHzHn9+XQbwzUpPSpLS92HlHbmVtezHzx1Ylpb5NtvXjpkpg2Y6b473/9fxB33y2/35KXDmGffPKJePnlV8QKuV1xltyad1l+m7V8OXxLJmmkDyqu7YWmBw1gS4GPOgAaflMQp3vE4Kyz6psyFfXQ8JQBEH146CNxz913DZ8fpn3/BSCmoOyeu1aKGQCe8r4NxCpg6ndutU3RADO4pR8eDf8+fPiwOHDgQHU8wLp166rcCxf2DppWl9LlK6+8KpYtXSI9ZG+LA/v3VbrEXtTxoOerBcp0iHjt1VfFbPnxXszVNgSZspYkD+jW980dNXhITP+YaRnK/NoLhehXYfhdfWcCGtTGkJYyYjlv2xrAABrIGGP06m2iPhyhjLry2sq1HVrdpuGNHRcYHbnSuPTwzDPPYKuPSrdt2zaxXW7xyn1t3bp1aBuu2S6MUe+SCaPf3Hlj5U2B8RxzNVbe1Drb8BreuNELRvHgQ4+IzZs3V38/dOjDoa6/enWsgpTPfvazE4bEDrmVcdWqO8dhqh/kY8gDBrmUB037tEJtaTQBrUou/1NbEeHfVbRGBWXy3yb8Qdj8BTLIRnUZERL13+DvOlANwLBf31B+BXX9qJL6Fkz1HZlSyFUZsfHh/lFVZ+VB1q+88rJYukRGeJQXHGwN8oL+XnrppSoYyKmTJwa6fOXln8jtl+cGHjRTydS56sqXHcpAYAqI6Q0tCYJAri7Jw1AmRAiCJqxc2g+hc8p8eV33QvKEoEwvlwGN0gOcp3QNYCAtFOmO+nAE3VDzUg1DVz7sNsem5U3RESZvV7cvmmMyxXCn9ilGv675n6tOvXzMSwVqvdR8uXQE5UD7sHJg05n9c0UGpdhw730SxB4QCxYsmABiZvqxsWuVZwwu8KItkhET4frBD34gZX1AzJw5o/q3azui+n3o2zL4VqsPa/D7IHqjCmdv8YgpufQgH1D2+QuXqsOgbQc7qzpVcA71jRiUNZTeOHQa4G4CiCkBjDPKxiSUfe/73xNf++rXZHCU9VWqa/K3XTt3yi2Vyyfo9+67x8P3Kwg+cGB/FQly9eo11Td26sKMd5UWMx6yQxlme6JrgVC/dwmCcrQ3pA/zvk8/Km2TcMaeMn8P5oQysybe5hg7ezh96RrAABq0AQxizEPO1V5qXmo+kMOWFwNoJR9SbNOvD1Zt97oMZaHxgNUF1bgD/VPzxuRzjV+z/23tpb68wNbZ5hx3eQxj+0W19eSpU+Jzn/1cEMT0NiuIeP311+U3ULslfI0HE/vsz/ysmDmj9x1adXlgyhqZ0QhMpgOaLgN4tQYBzLRDqiHNBQll8yWUVZcGUwBig62QxnZGldYEMyuImXmNfwOAvfRPP6rW30+OHRdf/qUvi+99b5vc6rk8uD1RBzSQ6c03X5ff8Z2ugqTocJZrDDKUuTSp/d5FSIyJ5ohQgTcJQ5lfg3VCmV4ze9FSRzLnL1EDGEgLedGUwaO3L8YgDRnePr3F5rUZeV07tDpWt13+piymreY4jMkbO470MUnNmwumlCzY9rYtL1ZO1S4XmIXK0fPB+VlrZCAK7KVgAb41O/ThAfHqq6+IuXPmTMgOUDZj+rQhGHN5xFR0QxWpcVCYtkVw6NsyCSbW79R0kJN5AcrWrh1vW7W9sOIzCY/9Sir4soGZ/FkPEKKfPTZhK6SRX+U7c+asOCwjL5r9AdsqoT1f/OLTE/Rm85ZBIvX76TOnxd//7V+LGTNmTIimnTJ+GcoQM6CLUGY2i3omGkI9gqHMr6WmoEyXggENM3I5Tdc0EAto1IdjLuMZygkZZj7j2SV/zkOrcxneMe009dtVKEt9GRAan6H7vvlLzUvNh5kzvrKp9VLzYeRN1W/IMw5z5vLlK2Ls2jUZCfDZ4HJsggJsqTv80SExbdo0p9dmax/KzAOkh74Ls4Sx71OTuG3lePh9PcAH3B+U0Ye2obQS2BQUHf74YzFTgaEDvACwzDD2SiE+EDPBTj9IWm2jBE/Z9v/6Y6d+oQ8e//Snxd33rBHz5vY8eua3e7bM0B9HPjkijh09KreIjgcEiVkLzTHCUBacBt36pgyznTI3oDGUlQdlpkQMaYiJzkk6pQEMoEGDMIazajjVwKPmizEMXdvCUg+tjjEgYuS1DSYfZHY90IcPrjETy+ZtiembEuCa5bX3tK1v3377TXH16lXxhS9M9NLopdg8Nnv27BYQbXFoW6JRtapz1V33iEWLFg5vE+yfWTbIov9b/l2BTRXkox8cREHYUDWBACEq7eHDEspmSG+dvAYesT7IqX+b3juVd4IHzQh5D/eHQEydlabB37XrN5xQpvR0RX6T9+47O8RWGfBjhoxyGbrMfoE2gp7V5ZsLvucFQ1lI8/L+KHjKXM3Msc2Roax8KNMltAEa3OeIjojFgJMUqwEMpIUCM1CNyph8KWAT2ibV1UOru/xNmZoQucEcUx4mjWvCtpE3xVNWmryhhdAn7/UbN+SWuV600RUrVgx5ZcxvmEyPzRtvvC7GrvaCegy+4eoLY6tz6+c+L6ZPm1ql1SMmur4tG4q22KukV5dqsOebNEgydPh0H7wuSk/UmtWrqxLAswXfY8GfNhAzD4Gu8vQy9vL3ZVHh8qvv0gAcLeeTqfTXNSgLvbwYGxsTV2XglKefHj/DTDXdtaVR3X/ppf8qxsauVt42sy+w45ehLDSz5P1RhjKz+RQvGkOZfxC1sX0xNKxdYAb5GM5C2uP7pWsAA2gQPKMpmAJ9YR/Kpm4x+XweKFVejMewbnnNNnYVynIc2QC6CI3DEIxj5yNmLNnKChmyvvopdY6y1/ASAIr8dmzNmrUDtYWMfUgI32Ht3rWzygPfManLpl8VyRDSwDdlAGW278V835ZNCJsvy9KjMar6hyAMftSCfKjtjdDmeXNmV0BlO0AaslUy94FPbUkc/Nbf2qjnVd+lVXI4goQoWWbOmiM+OnSwkh/mmgmztvEL35sBmGH6Rs8P55udkYFAIOLlAw8+PKHo0FxnKEOsZpMJynR1YAGNocw/iEqDMh+Q2VrCkIZYJDhJsRrAAFplvMhojraLYlRCOU0bsjYjDX6zHVpta2+b8o7yN2W2fgkZZuY4dEGZ3r+uCZhj/KbIG5PXNgax45LaTnOupsrrWwjB0H/88cflNrfFTmPf5ikDI/+1n74mFi6YXxXva6sOZPD3Csrgey556UE54N9D0RaV4H2o0iMpqsOlB4dHS8+U6TmD7Nbzz6QM127cEnfe0fs2zTx7zIQ0dcYYAJySV7Vp8G2ZxStmRmnUD56Gb9rgm7IpfQnVrstKZv0ffR2Afm/evCmOHT8uLl+8IB56+BFftw7uqb77p3/6p+q3Y0c/npDPNZ7V7wxlCFVPVijTVePb5shQ5h9EJULZc889J1588cUhrxjGeGVAQywYnKRoDWDGeQ4PSIxxFzK0fAoNGa0YL1qTXkObvF31lIW8j02Agm+bFIybmHHYhLzmWI6tsySvYYxu4eyxLY/KYzwch0C75vjBg73DopctWzpIYtZrghgk7DmPbolPPfppeYD0XWLu3DkTvw/TgMQGVGZwkApiqlJ7V5XH8n0a/KwDILRh7pxZVR7zrDJddmu4/H5dQ+k0Zenlgbw6wF2Xh28f2L+vik7ZE7W/FbP6UyJav9GbNj9Y3VP3lX5hmykEAdm4cWOlQ9vl8qQdlQFA9su64XKFzrethQxlVjUP/8hQNlFJOqTdsXypUEa+mhAwuI+cOCUo56V95zvfGVT4r7/yJKKHhpOEIMhXYOmHR0crw5JBh2gXZGEMVwa0HL3BZbSpAcw4L8HwNnUUa8iq/C6Aa/LQapshO0pQlrtvMPMjZbtf2/LGgA3oggploZcXPj1TdaTkhSASZ86eFRv6Bxdj+hSM/WsyKiOEul+0aJH44P13B20HO8sGZn0OE/dv3FR5euD64P33qj/vWb1WAtEtsWbtul4kRLgUUGlwNgRiKmgGpO17pxSIVdnh56qYXnAQM1y+ynP58tUKyvTvxdS3Yea3ZYNtibI+3dtletiUDs0gH1DuDQlj+/btFQcP7Ku8YzqMVX+X/9+06YEBiIFu9cv0nsHh03B97nM/U/2J3dL4ox/9sNo6qkdm9I0lWAcZyhCzg6HMrySffhjKhAhBogJBiq4Qw3dCEgyU6ZkwhiukZ0ij9AbnKUUD2HGecmh1m4ah0rMy5jCABnma8Bp2HcqoRjs1H/RLKK9vrIXyuuYkNR9GXt86gKnX1l5MvmbaOkU8JrctTpumHeJsqdg09n/wg+9XERZ1ox6yAciAdweumyoARh/Cbt68JUHsHeOexDGVTv65eu36yvsjbt0cBNtQIKIHzRgKmw8lakE+9O2FKjjIIJCI7oGTfwcomwOeMhX23gjyoYOYat/g2zRor/wPPG82jyDIC78DiO3Zs6cCxf3791Z/DrxfwGFSjvvu2yimyuMD4Nq98wMN1nqdocOY/nfwmP3cz/+SWCzhGC5MuHxId+PGdXHp0pWBRw5+M2HaDM7EUOZbCfr3GMr8SqoTyqDmWG9ZCIJ8rWFPWXhC+IxXBrOw/jhFNzSAgbSQFw1aWo5h6Ne7y9uC9aKltLWrUKaANcbb08Z4KOllAGb255JX1YXtH2rf+OSF7W+f/9kvOJvt8rrAGWQAGRDJbxoE6uhfOphslN4euMArBjDW+/sNsWvn+xWs3VK/aUAG+detW1/dX7J0mThz6pRYt2HDRO8ZFGbZ3ug9eBqymC2VZVy5MiZmz545FLq+isBoaVP1k+MQaLilvitTHrKz586Jt998U3rGekDWE7uisOrfG+67v/pt2tSpUp+7hj1nU/tfmVVp1dbG8QaoQB3gsfyp/KZvg9STHqDF1almn/7wh98fnH8GefQ19Y033hgqhqHMpVXtd4Yyv5J8+tFzYj1B+vbFb33rW+KP//iPB8VgAI2hzN9fsZ4yX2khw5UhDbHAcJLiNRAa59AAHdCoxh2UQ82by5AFA9YlQ12HVo96oA9qn+YaDyaUhOQJ3fdNWGpeaj6Mjlxl55wzNp0AAC2UQT02bdo8dBuz/Q2g7IgMUKGADMoCeXWP1/vvvTMULr4HZrckiGwUN6V3B65d0iME19r1GyrYARjbJ885g0uFmoc/162/V8q5qfKeqS2JkEYF+VANUDA1IdCHsb1Rz/fJJ0fFypW39ULhq4I0r5nuFVO3za2LOsCBVwyu3bt3i317d4u1EjKVZwu+IQPoVN9xwTbGqcrDJyEMLvj3+JbGHvBCEjUe1D3Qr7rOnb9Q/fVLX+odZWBevj594bf/Z7Fe27pqgpheFkOZVb3DPzKU+ZWE1Q82mqMJZXrtOqDB7zZIYyjz91cqlOkGqm9xASm2bNkyEIYBDbHYcJLiNYABNGgExoumGks1SKn5oF5sXpsHDfLrh1Zj2+uDvVE6PDpGv+aArxsUQvXBfaxnyWxnSt6YOruiX/CSLV22TDz00MPo75BU//zwhz8Qs2fNqiL/KRDTdTQOZ70cvX/DNkX4ew9a1m+4r/q92uIIf0po2yu9RTqM9TP3/pD/AZzB9fAjj4hFCxdW8GI7e2xCgA/IpH1bBv+svgMDT9lV6Smb1T+Q2QNj4IXTA3UomZSMELhDgZgJhevWbRiAlgIy+BPaW21j1ICsJyqc3SYEeBunyHRw7dS+LTO/K4MtjBCs5dEtj4rFS5ZU6X0g9u/+l3+vulL8zd/8jYyAOV162dYMfnP9haEsqKLJdU4ZQh0TkmChTM/oi+bogzKzcpsXjaHM34sUKIsBMVftDGiU2cV5StcABtJG/dBq6CPXNkcM/HV1+6KvX2MgA6Mj1zyg5nXBH6Y8TJqm5MWsDz55Q20J3XfVv3rNuurWlkcflVvnpqG/Q4I8S5ctF++/1ws+AcEq9MsaaRESAHfJ/8F3U3DBlkbwkvWgrAdp8Pf1ErrUd2h7pcdMlQcBQFQa+LPyOHm8Z1XivgfKGRwEksj/rsjDmGfLc7v0c8dUm4ZArP992KC9fYADz5iCMXVP946B5ws8Ymq3pR5J8b77pfdPXrB9sTrnrR/kA34DaOsF+RiPxKjKt4XKh4AfX//6rw7OiTO/LdNBbP/+/YNmwIHUZ86cqf69ePFivTsn/J2hzKue3k0KdCCKJScZRXlMSNOVA1sYMZcCNF80yND2R/6mbFzTOUDM1W86oEEa9qJhRjinKV0DGEBrO/w8VocYYzRmm6Ov3q5CmR4EBdrXJRDDyOrykmLy6v2NGUu28UHNB2VR8traG9NWs07Y8uba7ma2V/e6/O3ffLe6fenSxaHgE3oeHc7u39jbHgm/AWToWxzV3wcBQSqvWQ/g1q6VWxrlBdC2X36TNfiUS3mz+hUq7xl8UzWjH7kRYAobHOSqhLJZEspUyHtdduVNG/zWF0J5xUAE2KIIF4AYXFDv/grCxr8DGw5330szVXrDVPr7ZERK+PfUvsds5we9qJSu4B5K16pPe2B1VsyaNWMoPL4LxMz+fVN+91aNy/6RCOZ99W+GMpdmtN9HEYIQzUYnya0fBWjv7NhRyaADGwbQ/uI//z/OEP0MZUL4PGV1gphvQLEXDT3dOGFHNIABNGhKnYdWxxiUlcEgv1lRV0peKCPm0OquflMWG5mSqt+mtzSaBqltyvnGRwnyxoxfm7zYNvj6dM7ceZUR7oq66Nr+du3amNj+0ksVMMye3TvfS7+gzgnflvU/ugLYUnSlp4H8AGbgSQMv2g35397dcitjH4LWyu1/vTTymzK5zREiGA7K6VcO3rSlS5dXAS/Onj1ThXuvLhVav//3ofD5UKaYKlbetqJKOoi0KP+uw5mqS9+iCOmhTv17MR3EetWNnz2m/q5g7P7+t3zw7107hyFM7zfIp38/ZvapknOu7E+4YEupgjHdI2abJ+q31157TTz88MO+JD1VfvOb3zTPcgtmgoeN61wqZUgHC/EkyG3kp8gCeVkevwab1I/pUbNBmg/KoCU+MJtsnjKzZ0PfiKXOJUx+9qJhtMRpuqYBDKTFGvlKB1RjH/JT84aMVowXTXkNu+opwwR3yaHfGMBI6dOYvGa7qO2MqdM256n1xuaL9Rqqg4cfl6HwF8lgH3DpEAb/9oVWP3P6tHjnnbcH4fB98g5vaexpqYKz6i+35Lllm3vbGKstjb3IjNWtfnRGm2dtTd8rNUgjywPvlH6BB033nqn9g2ZwkMOHP5bt0I4D0L4rU+eKQblqi6LaSgmwBNso4bLBmOkdu7+/VRHC3gOIgTfMtqXRHEdQDmY8gLqefPKpCsi+/e1vi9/7vd8bKsoFaKDfAwcOiNtvv10Cev+MONtghnYylDk0o/3cJHSEpWFI1HVk86L5oCwUzXGyQJnSYQkQFhrzDGkhDfH9rmkAA2ihQCEYI8KlF2reHPlAJpsXbVQCfaRsgaPqF3RKzRuCa9/cigUVvay25U0BXVMntrKuyuAW4I36b7/5fPVNGVzY860gLXiULly4JBYsmC/P+JqD2hqrwxmcYwb/hv/eh++mFIgZf+qh86tvzu69b3DwNHjS4AJA0+HsgIQz3Zujvj2bKQOTQHAQuKrzzgAy5H9j127I89Z6OjCjKFpBDOBvyAPW07hti6IOYrs+eN+7pdHsNxXyXl+TzLmk7vX5dQjKzPJ0SNMB7fjx4+KTTz6R20XXTjhzziyDocy34vTvMZT5lVSKfhSg+b4pMz1rZjRH1VIFb6HtjojhU+Th0abcpcGZCWI+PfP3aJhRyGlK1QAG0ED2UTm02jR6XNscc0Hatm3bxPbt27N2/7/9N789VF4IMHz3Q3l9glPzUvO5+s6U0VZ+LvhLgamYvDHyuryGJ+UZYB8d+lB89rOfQ48/3Zu24+23hrxlmLFgj9TYy6l7z3TvGATDAC8aXDsl2FRp+0Cn/q7nX7Om920XlKeDoAoOYnrPBlCmfS92/MQJcerkiUGTDvY9YtVWSO1bMUhgblG89155CHT/27A9fXD0fV+m680FYi7dQvsAcCHYiNp++D/+T79Vecp8lw5ob731ljh48KC48847JWQv8OZjKENMlVKgQ4nK8vg7zaef0DdpCtImA5TpRg8YLvrVBqTpIKYbUVu3bq0CgWCMVwY0xILGSYrWAGach7xo0MC6DW+bEmMMWZXf5VnSozmmAFouKIsFMdcgo+jIpSsqZMTkSxlLudrahrwpdar+evXVl6VnZFYQynzflv3oRz+SXqYZ0ls2e8KQwsxx19bGTTIUvAKxXgTCHoj5tjaqNLatjXBP396ovGdw8DJ4xyBC4vHjEsKk6wxgbLAtsUddVf2+LYr33deLoggwtnvXB/2Q9sMHPpueNH3sqnsx/Qr6vXLlilgkIyYelOfGbdhwb7UFFQNlqrOOHj0q/vAP/7AKia8iL/I5ZYmPYIYgvwK7pB9oCQbMQtscY4ZUKES/2jKJPVw7pm5bWgj0AZfP0NEhrU5Ac4GYLreCMv03jOHKgJY6Ujh/2xrAjHPMd02YdmAMPFs51Hy6wQR/Nw+tVr/BnymARoUyE8Js8mL0qtJQvUc59YuVty6YCpVLbWuoXF+7qXVixgOUDd6yz/U9ZWr7Ysy3ZVDP9763TSyU2xgxdbraCsAF8ox70uDg6fHvziCfLTAI/A7nnSmAgz/h8OlB2n4Z4ASroiNWcUZ65UKwEPg+bNVd94jDH30odG+YLmcvhH3vFx2sNsh6p/a3fu7ds7MCseE0E/PAL+DZUuXoATww418fDz997dUqy+Of/rSYN6+nf7jUN2WY8g4fPiz27t0rozbOqsAMLp99NUUqr9JejAHDgT56A+fIiVMiR2ATTMfqaboEQSXqJxTNEbxloW2OMdsauwhl+njLCWjmtkTMtiIblOnyYQzX2DUudk5yetZA3RrAjnOMFw1kLdWQ1fVo86KZh1aHvGgxUJYTxCj6dXkNY8YWFTKo+cyxFOuJ0NtGzRuTL0VeSl44QHpMeov+u1/79cG3ZVBOzPdlYKSfAC+TJB44DFkdjhwaF3qfVt+WvSdBbBD3vpdb/dPc2gjBQQaetH74+Oq7MglPeoCQcThT5d0ScJBz9TuAVp/7qmiO/aviL8sWRThDbfzg52myrfJcsSqpG8YUfAGI9dJOqV7w2M4Zc+nLNvah7Zdk333xi09PyBYDZR988IH8NvDCQDazMNO+mvL6669XKov5mJ6hjKFMH1hdhkRbNEcblJkTyXZotWvCdx3K9HZRtjlivGG+h0sIysy8WOMV8sW8jAo9APk+a6BJDWDGea7DjaFdJRjtSr+6ER7yooWgzLctEeqLMfhz6ghbFgX+lB6xddjGNTWvS15MeZg0MYY3Zr6m6vfixYtVNdPl+V7L5KHQ6nJtWfTd//73vyej900Vc2XgjxztNLc2btr8wADalIfJ5j0zf6sChGiHUoMnDa6hYCD9aI4AY/v37hlAWc8b1oOuvXt7gUVgqyNcNhjTPWkKxCCtkhcLY76xBEFa1q1fX2031D1kUE/M9sUf//jHVTvmzx/3svnGHKxVAygzE/rODWIoYyjTx0uXocwc9yEvmm1ChQBtlKDMbL/Li5YKYno9sVCm58UYrgxmvscE3+uCBjDjfFQPrYb+8UVztEFZru/DoO4mQMHmQVPjMgYam5LXnDOxOnK1t6m2xsqrt9fldVm+4rYqGXyXZF7mdka47/Kkvf/+e+LUqZNVETP62+FS5NXBRum3d760f2vjhnvvr2RQ3rRd8jsvuCrPW99LNu4suyWdZhK0+lsUN2zo5Z3SD9ZRbYeU/9MPe3YF+9DbGgNiGLiGYwxguySErYf08+b24NcEaIyn7JTctvr2270jDWDrIvZyQplegC0SGp9TxtsX1RgZJSjTx30qoEFZsM1xlKFM15cOaJhtidhFKgXKoA7dYIU3emrrMdyDSJ3mxZCG7RlOV6IGMIAGctu2OWIMF1ebUwxDal7fdj/dg2ZrL7VOKIuaN5d+9T7AgErb8mJk1NtkyouVP5d+U+V1zZGz587Lb7mfHdx2ecvU7xAYY/qM6eKDD3rb+O5adccg7759+6u/3yYPZc4lb2hr40a5pREuADE9OAj8NtgGOQCyHoipZ+46CaPgAYPbsAUTLgVe92/cVHnLgOd27+zBnf6N2Ua5NVF5z/RvxEJeMey4gfqgb6ZNnyG++tWvifvvv18sXLhInDx5UsA39eqMbKX8EJRBpMVz584J8JLCd2QhOfXxgoIyc4ABpCkoM+/Bd1bqon5PNKpGvmuixv7O+vFrrA79YA6ttkkFXjRfiH6AthIDfcSOSZU+tFWIUm4OKNNfIulQpgdXUQFQdBkZ0Cg9xnlK0gAG0tSh1bmMO0z7YwwmvbxQPtd9HdLa8hrWoV9Xe0N6cvURNR+UR80bA1NUYLO1twl59XqvXb8uz6paLzbLbYIQGt3mDTt3/nyV5c47Vw3gQJXxl3/1V9VfH9i0cZB327Z/rH5btNAdaj1Gv1CW7bwz+P09+U1adU0486z/s+ZdgyT33rdRJr1ZQQl40qqAHn13mYIuM/IiRIWEa4qENBuIVfcGmSf2amyfAozBBbAMMAwgvHTZMnHHHbcPFQ6A9uqrr4oVy5cFA31AxEy4QuHvJ0ov26a+KbPddP3mgzIzDwXS6jCqY9pnpmV5/NqbjPqJ8aL5DrNmKAvPzKagzJTEhDQGtHBfcYqyNYABtFCgkFijR2kk1jDUNZm7Th3QXO1tQ15oc662QllYCKTWmUterJyusaR+x5RDbSs1n01HAAJwyPJnnnhyMMwBxhSI6WN/xoyZ1eHR5gWAtnD+3MHPJpylyms77wwq6/FYb2ujGeTjPglhAEwQVh92Ku4HCOaiAAAgAElEQVSsAoSoaB/9PwGoIAZIBVa9nStwbZQwBiAG185+iH49eAf87oqkSGnrufMXxOrVa2Ugjy8OdKhDsgnHuv4f+dQW8b//h/8gbl+5cqhbduzYIS5fvlz9BlsgKRcJylRFCs7g3y+++GKwfiygTUYjP6g8LQHrx6+tpvUTAjQflOktKSkkfsx41NN22VPmazN70agjgvOVqgEMoIHsuQ6txhjMuq4ohpbKH+M9Mrc5Nu01rBP+fDqk6rdOeX1zBSOvLU2J8sLZXXCtWHmHjFS4XjzxxBODpsO2uZ07d8qzvE6KFSuWi9fl9jm4Pi3Dsi+THhz9grQAZ8pzBp6eH/zgB1WSUyePVX9it86F9Ova2rhRev2qC6I7Akxp0R17ERgBwnrwpbYyqo/LILCIkhGAyyWr+t3sS6ULzNoC34vBtXRZD6QAxkxvGOj9ww8PiUcf3VKFsT9x4qSYNXOGmCr3LwIwg75hayOEyIcgHidPnhKv/fQ1cfnSZTFXfn8GkRYBxmwQ7Rvb+r0kKDMr+YM/+IPqp1RAa9qoDimL5fFriPUzrh/bNkcflOnnoTGU2cdZW54y16hnQAutmHy/ixrAQFrIiwbtDhl3Pt1Q81IMb5uBB8Ydxoum2pBDXoxBqessR51QXky91Dq7NB5S+zSurVPE/Zs2SyBbV4HKJvn3Xbt3y8AdM6Rh/548k2x8K+JHh49Uon3ta1+1Th0ABbgUnMHflcfn1VdfEWNjV8XNGzdlsImZQ/kpcwYKMM87M6M0mkKCT033lVUeMQA0+Tt4xBS36flscOYCstBYviQ9VxDef/GixVVo+oXSQ7ls+fIKrjCX0i+kPXfubJXli09/qYIyde3fv78CtJ++/tNB8BVM2bY0WaHMrAAgDQNokE/3ovm+waF+p0ZVEORj6PBrj/Xj1g9Amm88M5SFZ2ZpUGZKbIM0SMPbHcN9yynK1AAG0EByBWlUo51qGELd1DpteV1ymIBWirzYUeOSF9OOnPpNlReTH+sVhLJMIKW2FaNHl+x33LVaPPGZz0hvzAnx93//d+LG9WtDQUAAxkwQU981LV26rDrGCjxnChRUPX/5l38lnnpy3PMGv//kJ9srLw58z7Zs2VIJamNi/z4Zlj7i8unI9KJBsZqTTM7VBwdeMtcWxBCI+V4i6LKdOXtWHlK9V9x3/2ZxXm4JBa/WoQ8PTAhtDzK6toxeu3ZdvPzKK2K5/H5s8aJFYseOd8Q999w9ADkFZfv27as0qHvGXnppuzh79gzaQ2l2Qa1QplcW40WDfHVGd4wYh1VShg6/xlg/dP0wlIVnY+lQBi1wgRncYzgL9zGnKFsDGEjDeNGglVQDuMm8trfy5qHVmPa20VZKnS6vYcyopNTbZJ/qbUmBKWo7MW29MnZDRv/7qjzza/1AXACxvXv3iTWr7xn8BlsabdsZX3rppcorpXvFzHD74EU7cGC/2LOnB2Vz5syu/lTh9V16ivGs6mH2oTw97/A2xokjLEa/AINXrlytCpkmoxyuWbtOPPzwI9JrdULcI7dywoU5pHv27LlVcA+4wIOmQBd0D5cK8KGk/dov/4r4nd/5ncrrBt/PLVywUJy/IKM39iNIqgAlMfNHpW0MynThMIDGUObuToYg/1Dvkn70lvD2RXu/lg5lNiADzz+H26c8kjhP6RqgAFqMoWW2n5o3l+Gty+M6tFoHtLbljTGeoW2mvFj5c+k3VV7sfHG1C9NeTBqXHDF5b02ZKjbK8PDz5y+QBxcvEWfOnKlgDMDiuPy+CS4TxgDE4NJhzHcwte3etWtjVRnvvPNO9e3UxYuXqlD7b735upgxYwZKxTHtpM5x9S3eFXm482OPPgZhQiSEPSzgd5DTBmChYwdAFjPAhy3gCgDan/zJn1Siv/HmW9Kr+QxKL7GJWoEyU0jbNsc6Q+7HKqlLRj5v7+yeZ1N9h8ZQ1l0o45D7sasqpx8FDWAADdqJ8Srp+qAaeNR8Njix9Y8LRGK+Q8vRTqy8MW3ApNXTtAFTUH9MvbHjweYxTKkzJS+0E6I0zpg5W/zar/3ahCAfplfMB2KutSZ0aPWxY0eF2qIH32PBNVPCD3ioZsgAGLffvqra4ndWbhk88vFH1bZIOCxZv27I79mmyUAZ5p9w+DSkhbO8IEDInNmzxQUJg+C5uzZ2rdr+t2TJEnH02DHx+GOPi8Xy73BR2qnksXkNXbqBrY0XZZtXr10r5s6ZW0HyggXzq+RbP/s58Vu/9VvV2Wq5ryKgTG+UAjQXlOlpsdEcU5XGUObXIOsnXT96gJC64Ux5dup40zOq0Rd9PQz6xECZXgYHC0ldlTl/iRrAQBofWv3QoOtiAAMyxUKGqoiaz6xTH3MY2an1UvOl6MiWFysHNp1tzvryLly8VPzs5z8vrlaQIsS+/QfEDekVmj9/frVFkQoosd4jXW6V98iRI+K6/A5ux9tvyXD2m8TLL79cfecGQAXXGfldlX6tXrO2imgIWzMheMahgwcqsINLgRyE/7dd1HZCWbFeQ1X/7NlzxO7du6rtibMlMMJ/cN1/330ySMuD4j9+5z8OzlHLuRYXB2V64+o+Dw2rSIYOv6ZYP3n1UzegMZRNGQQWygHAFCjTRwwDGnYl5nRd0gAG0CZD+PmUQ6tL3iJog4mS5Q0BEdzHBpOAdHWB2EQ5p4jp0lt2feyKuENuLZwuPVXz5/U8Nspzg1kXYsHG5kWDejDfaCl5YuvU29F0XlUfhLiHb8J27XzfuXUT5nQdL7Wh/UVDmTnQqNEcU7f0MXTkhQ7MApKSZpT6qw5AYygrC8rMsc6QljL7OW+JGsAAGsjt2+ZINYKp+UAeat6UbY7UOlPkTclr2/KH8aKl1JmSN5d+9XkWam9uWIWtgHBdkFv/pk+fJs/VekycPn1arJHeqBxg4wIyVbYPzJqGKZApZlvixPWxd3j1wQ8Pin17d4t5c+cOzXu4Z/YvQ5nlKYMJFqKypW5zHCUjv44HNuvHr9Vc+jHPQKN6eRjKyoYyfTQxoNWxYnGZbWsAA2nKi6ZkDRm+eptyGd7UOk1DziYPH1pN/z7MZij7xnTd4yHkNYwZRxTghAiE0yScwbZAiCS4RR5+XEGb/C4Ke8XAlJk2Jq8pDzUvNd+ePbvFp7Y8Kt59910xJgOGwCHbcLC0LfqkktWEaojEyp4yz8iqG9ByGdXYyRFKx/I0A0GhfsDer6u/qF40hrLuQBkDGnaWcbquagADaJhAIXUb3jb9Uup0eZZigoVQ6qUY+zlAN7eXCDvOc+goBf5S8sZAnE2/EHADrut9j9pD8rxUuJYtWy4DblyXgTemV/+mgo2ZV/UJZmtjilcrRl5oJ1y7du2q/pwjg3XABcFD4Kw0bJAO23xlKMPOwn663Nsc6zKqI5s1SM7y+DU3GfUTA2gMZd2EMnPUsxeNuoJyvlI1gAE0kH0yHVoN7e2y11AHDAygUWEK9ETNS80XqjPUXmq9sfkA0iBk/LnzF8SmzQ/IbY5rxMEDB8WqVXeKo58cEStvvwO1JISgyAVcoXy+ymPyQlvee/89GThkloDAInAtXLCg+vMDGeERe4X0y9sXsZq0pMvhRZuMRn6Mylk/ZUFiaJsjQ9loQJk+6hjQYlYsTtsVDWAgDeNFCxnPIX2EjDRX/pBRbuazvZWHNPrB1Zj2NiWvLj+lzpTv0cw+hX9TPUwx+VLGUux4SNWvyu/qG9i2B9fVq70DmAFm4Fq1alX1fdqd8s9pU6cNxMB4wlTiOjxiyvt16NChqprDhw9Xf46NXa2+BVNh9mPHQmyfMpSFVkzkfSqgwSGwfJi1W8kMZf4B2LZ+TC8aQ9noQZk+Am2Apu4///zzyNWSk7EGytIABdAooBAyZENayVWnXk9Th1Y3BSc2IxirN2w6Wz+1kddVJ0YWTJpQO2MBBeq80Ye1t996swc9Mgw/nB82JsPdQ2TCJUuXittWrKjuze97oiBk/N33rB6I83EfmNQPOqT97d/+tdi8ebP46Wuviccef1xGdDwsHnvsMfHyKy+LBx94UMD9FbL806dOVSHpZ8rQ+ZcvX5FRJ+dWMsBxADdv3qy2IFJ1FAtiup4ZykKrIPF+DKQxlDGUEYeZaBvKdLkB0OAlA1x1fKjK55Tdqg69VMGFqMFYqGMN8vmgTJXLcJaiYc7btgYwgAYyYrxKqi2leTF0Hdtkg990D1pMe9swZGP06/IYxgJGiuEdI685H2L162pvDCTH1ukaXzF1Ahg9+NAj4sqVK9U5Xm++8dPqzDEAKHXdvHVTHr48R1y6fLnyZsG9xx7/tDzH7KxYvGhRdXj0wQP7xLXr16tgGwq2fGtMG23V6+Rvyhp4AoQAjaGMoYw6DEuCsgrGvvB5hrITpyod5ICm1HPKqOPKlU+HslvyLaMOiQrI9bwMaLl7gMtrWgMYSAsdWh1jjKYY+yl5Q9v9fMFC2jZkU/Srj6dQOU3CVA6wcQG3Kjvm7LSYeUcdD3XoFyMLJo2t/XXIy56ymJGWKa0ZLERBma341JD7sSKXaOQztHYLWis4e+aZ2KEXTM+esjI8Zfp8dHnu+Du04HDmBB3UAAbQ+NBqf8fWYchihhLG8LalweRz1d9G3pg6zbQxec02U/NS81FeQHTBa8hQhpnNNabZsmXL4JuyUDVNABpDmb8XWD9h/TCUjbanDANl5ihhSAut7ny/axrAABq0aTIdWu1qb5OGtxpHueBPlRfyotnqxeYxAQP+Tc0bk89WL7a9ufSbIm9MXt+21ZC+mxy/DGUFPQlC2xx1UesCNIaOMHSw586tI96+mPebrxK3L1KgTB8xDGgFPXRYlGwawEDaqISf93kp9G2ObXoNYwx2jNfFZ5hTjXZqPoy8voGNqbcUr2FT8JfLa5gqL39Tlm1Jzl9Q7jPRMBIylDGUYcaJKw1DGUNZzPhhQIvRFqftigYwgIYJFIIxnm06STUMsd4Sm3dIz4s9tLppeW1yx0DcZJU3ZVxQ9RuTLyes6vMqJAN1ntrkZU9ZR1b5prxoDGUMZSlTgqGMoSxl/DCkpWiP85aoAQyggdw5D60OGZGmnnIalS7DWAc0SKN7DduWFzNuUjxlVP2WCn+u9pQqr6t/sfI26TVkKMPMxsLS1AloDGUMZSnDnaGMoSxl/Oh5GdByaZLLKUkDGEjDeNFyegVioAhryPq8aHCPD622j0oqwJUwHmLGUdflBflj2ovtV4ayklZroiw5tzkylDGUEYdhlY2hjKEsZfz48pqQxuH269I0l9uUBiiAhjXubG2g5qXmMw1vUyZl1Nq2OcbCn152LnmpRrcy2LFtKEVe7LhP8ZRR24rVZc5xHwJHn0xUeRnKsKOwI+lSvWgMZQxlKUOdoYyhLGX8YPOyFw2rKU7XFQ1gAA3agvWi2YCIChkx+UKGrA+ewJDt6qHVGB2ZhrrSBSZvDuikAlFMn7rkpLS1aXlLmDMc6KMrKzZBTgqgwQGwHF3QrWyG1jC0Qgo+p2x0D49Ojb5IWMq8WWyABhnYk5Zb01xekxrAQFoph1ZTvQI2Ixh+0yGljkOrc8mbAlP6WAqVU4K8IRl9MAZ5sYCFTWebi9S81Hw+WMWUaUvDnrImV9mW68Juc2QoYyijDlX2lLGnjDp2KPlcQKaXxXBG0SznKUkDGEAb1fDzOqSZ4fapoBCTz2d4Y8ZIrHGu2ovJ56qfmrcp+HN5DE0gD+m3KXlNOWL1G+MhZSgL9fqI3vd50VxQBqp4Z8eORjXCnim/ukvUD0jMnjL2lDWxUITOceNtjk30AtfRpAYwgAbyuLY5dsWQVTp1yWtGc5wMXkPfOIsFBZt+24JVvV0hGajtbAKubf1jk9fXBoayJlfTQusyAU1BmU3cug6tdqmmROhgT6J7ILOnjD1lTS5zISjTZWFAa7JnuK6mNICBtMkQfj710OpSYdVlwJcqr2vcY+WNhZjQPKNCHFZeLIhh9AJAylAW6tFJdn/Lli2Db8owTa8b0hjK2FOmNLBt2zaxfft2zLBEp9m6dWvSt0dgENX5jVUMdKAbnZBwlOThaI4JA4GzFqkBDKBhAoWUbsi6vGjwuzJsVRpfe6ntLMHrotqKHYhttDVXnaqNIS+abVxg85TSpxzoAzuiJ2k6SrAQUFWubY4MZQxlDGXPiRdffFHcunVLTJmS1xMXu6yNEpTpbWcvWuxI4PSlawADaNAGgJamvAKmzqhGu0teV+AEvd42vIZ16Tekv9B91xiuS97QnAnJO4peQxMa2VMWGiV8f6CBNgCNoYyhjKGMocw1C+qARAY0fuiNogYwkIbxopXgUcB4P1zBFdo4tBojrz7mQnBiG5+29sbUS6kzp2cKymJ5BW9fHMXFt6k2YaM5gjzUbY4MZQxlDGUMZU1CmVkXb3Ns6onC9TSlAQygKS/aKBjepl750OqeRtoGsRgI88mL8exR20rNR9Uve8qaWgVHvJ66vGgMZQxlDGUMZW1CmV43e9FG/EE2SZuHgTSsF41qjKbCX0y9pqEN/2760GoMSLiGYywouLyGMVDUpLx6u2Pbao4DVRa1rTH5Ysag2beqnfxN2SRdhOtsdk5AYyhjKGMoYygrBcoY0Op8cnDZJWiACmgU4zkVxHKBgs1wr/vQ6qaMfRekwO8hGdro0xxgo7cN2wZsOtscpeZ1fQNZx5FCIPeU119//VYJiwzL0K4GUrY5MpQxlHUVypTcL7zwAnkC1vHNFFkYmZHlcWuPvWgpI4vzlqgBDKCB3BA8I2Tgm+3LachidReq0wV5XTu0GgurtnQhHfl0Tc2LlTcViFweQwyg6nXXKS9vX8TOZk6XRQOxXrQ7li8dCjle0X4/Al2uCI8xDWNIDEMipKjjTU/XQuKr8fngQw8NKS0G0hiC/OOtNP0oaRnQYlZVTtsVDWAgjQ+t7va3WmosYiE7B4hh61Ky5ajTnHMhGah1Qj0xeRnKurIajqCcWEDjw5rdnV8iJDKUnao6zPXSQIe0EKCVBh0sTxgSMUv1888/j0nGaVgDxWoAA2iTIfw8H1q9Az1GY+DELJSaF5vPlg6b16YAal6GMvRw4oR1a8C1zdE8nBfkoEZzTG1DiRBUGrQylPmhTB+DIUBjCApDUJ2Hd8euF5j+Yi9arFY5fekawAAatCEULIRqyFLzgUyUvLZtcKUfWp1ryx3oLORV0scrRb9mvzRVp61ebN259MuBPkpf7SapfLoXTRldoAp1gK6uliYBjaHMPyBBPwxleChzARr8Dl40jJHf5BLB8uSFRAa0Jkcv19WUBjCQxodW43sjB9jEgFQIVkPyhO67Wk7NF5I3pOlQva77oXy+el152VMW6i2+36oGtmzZMvimDCNI3YDGUMZQpmsAjA+Xpyb1m0fwopnfVKrvKRW0YeZEzjQMZXmhTC+NAS3nSOWyStEAFtAw8tZhBIfqja3TFUwi5tDqXF6XnCCGASmVJqbeWP3qclDzlqxfE8rAETE2NiauXbsmbt68OWj+jRs3QkN3wn2OvhitMs6A0UBKNEdM+b40DGUMZU1BGdRjjjeGsuHxN8qQyJCWulpz/tI0gAE0kFnf5thlw9vUv+3QatVeajshfxt5Q99ggVwuOCtFXuz8wHjKbO2lwJ8OZQBely9fFtevX692ienXnXfeiRV/kI6hLFplnCFWA9hgIVBuDi8aQxlDWSlQpuQIBQuJnVO+9KMMQTn0VJd+GNBy9A6XUZoGMJAW+g5Nb1Pbxr4PRGzwpOSN8aKp9lLbSgEFap0uryHVkxbSrzm+qTqigm6KblWd6psyHchWrlwpNm/eLObNmzdoIsBa7MVQFqsxTp+kASqgQaXYrWYMZQxlpUCZLeR+3YBWF3RQJ/5klIcBjTpaOF/JGqACWtOGN9Vgt4GN+k2HlFE5tNoFZBiwartPMTKGXgZg22CmU56yK1euCPjvrrvuEp/61KeqrYuwhVFd+lZG7LxmKMNqitPVogEqpPkAjaGMoaw0KNPlCUVzTJ1okxGCYnTWhn4Y0mJ6iNN2QQMYQIN2xB5aneLJwBrZNv2G8rrk0gENyu2S19DnDbO1N6Qj37il5qXmiwXzGEBVUHb+/Plq2+Kzzz4rpk2bNgRk1DnMUEbVHOfLroFcgMZQxlBWMpS5AA1+z+FFawM6fCOO5RnWDgNa9kcHF1iABjCQhjm0OmbbXKzhbaqJavD7wNHnRUuRtwRYVfrD9FEJ8mLkVG2iQNm5c+cEbGH8yle+UnnMzG/KKNOSoYyiNc7TiAaowULMaHggrAq+gN0CmbOBJUIitO+ZZ57J2cyqrG3btont27dnLXfr1q0i5SDfOqMvVnqURwzkiu6Yw4vGEOQffiXpxwZoSvqUMZ91AnJhrIFIDWAAjQ+tDiuVCo0p8IfJiwmqEQNEmDp92qLqCZvPtX2RoSw8hjnFiGogxosGKijtsObS5GEoo51TZpteOaFML58KaCVBB7SH5QkvygxnYR1xim5qAANo0DLftr8ueV1sHhfz0Gpfe7GgYBsN1Ly59AsyxcBY2/LGyKqDowr0wVDWzTWJpc6sAQyglQZBpcnDUFY+lLkADX73bXNkCPIvOCXqx5QYotCCx9+82HuW+WHCxTWuAQykmYdWU43nWEjQDe/YvLHeI32bY9tew5z69YFWLvjLKa9vAvi+I4SdRqdPn66yf+Mb3xj8PXVC8fbFVA1y/tY1YNvmaG4nU0LmCLkf22DevhirseH0k2n7IlZTPi9aidDh2t6Z4xs6rM5Uui7qh79Di+1lTt8FDWABDdOWLnhdXN8txYTb7xLYpMiaAsgpeTHjSAX6YCjDzExOM6k1oABNGYE+ZTQFaAxlaUOSocyvPxPQuggdaSMkLvco6IchLa7POXX5GsAAGrQi96HVTXldbKBgAwBbNEcMKLh6mJo3BahivYa67CXJ69IpQ1n56wlLWKAGtmzZMvi2LCRenYDGUBbSvv8+QxlefwBoZqAbFeQGSmHP1Oh948aAhp8fnLI7GsBAWpfCz4PmsSHoIZ2CkxgvmurdHGBTN6y6vIYx9VLbaQPkmJnBUBajLU7LGnBogBrNMTViI0NZ2pBkKIvTny/wCEPZ6EGZOTpMSOPv0OLmD6cuTwNUQKMa7XV4iTBaDYGKK9x+CfJSYcqmlxh4xeg1J6xCWSrQB29fjNE+p2UNeDSACRaisqd60RjK0oYiQ1mc/nxQpkpqEs5GYbtgXA/Epa5TP+xFi+sLTl2+BjCABq1IObQ6BjCgLir8YfNitzlie69ueW1yxNRppo3Jq9ddF6yypww70jgda4CggboBjaGM0ClaFoayOP1hQvTr36FB6XVCWp3QEaeZXurJKg8DGmW0cJ7SNYCBtJIOrc4FCtAvOjzyodW9kUoFuJi8DGWlrwos30hpIPc2R4aytOHBUBanPwyUmSVSz0TDSDZZIQijmzYhkbc5YnuI03VFAxhAG9Xw8zqk2cLtx3j/mgAbc0xhYNWVpml5Gcq6siKwnCOngRxeNIaytGHBUBanPwqU6TXk9qIxlPn7rwT9sBctbo5x6vI1gAE0aMWoHFptenoUpNmiOdp6r2mwifFMheTVgRQzMqlt1YOv8DllGE1zGtZAjRqgApoZDQ9EVBHxUoOIUJoLRjtcsKjkvrZt2ya2b9+etViGsjh1pkKZWVuqF60E6NDbxPKEIdGWggOGxM1DTl2WBjCQ1tah1RgvkUubseHncxxaXYe8mNHigynsvRwAx54yTG9xGtZAwxqI2eaoH57LUBbXUQxlcfrKDWV67RRAYwgKQ1Bph2v7JGY4i5uPnLo8DWABDSN5qtclFhIgfWydrqiOMeH2Y+vUddd03hRoxOiXoQwzMzgNa6BFDYS8aAxl9M5hKIvTXZ1Q5gI0+N0VLIShrLtQduvWrYFXH1oBXn/zYkiLm5+cuiwNYAANJFbbHFMM/qbhxAQMBYDYaI6lyIsdMbFeQyo4MpRhe4TTsQYK0IAN0BSUmeKlhtunNJe3L04RSu85to82BUHYvm5LHpcXjaGse1CG8dzxd2jYGcnpuqQBDKR16dDqUIAPV/j5GC+a6l8qxFHzmdAZaqsNUpXsmLwqLUNZl2Y0y8oaMDSwZcsW4YKyNiCNoYyhrO5JqgOa+U2l+p4SZKgzFL+rjQyJ9UAiR3Ose1Zx+U1rAANoIJMJaVTIKMELp+tYgcooHloNbYvRt5425fDosWvXxfnzF8WVq2Pi+o0bE4b0lNdff/1W0wOd62MNTEYNKDiDtr/44otBFdTlRWMoYygLDr6MCXyeO4ay0Tw3jb1oGScQF1WMBjCQ1oVDq7Ewgt3miO2g0mHV5TWE9plnwsVGX7x+/YY4efqsmDtvvnjkoQfFcrkVfM7s2Qxl2MHD6VgDdWsg9B2aXn9OQGMoYyire2zr5TOU1eOZqqsPc3sSGdDq6ikut00NYACt1EOrY7bqgY59ENfEodUp8qbkVePLLCN2++Kly1crIPvs1qfEPXevElfHrokrV9hT1ub85bpZA0ENxERzTIE0hjKGsuBgzJjAB2V6NU15zXJDR6qqJps8DGmpI4bzl6YBDKCBzOrg6hhQwHq1bDqheqZMEDPldck0WQ6tjtm+CEB24dIV8Uu/8KyYPn26OH/hsoAASq6Lty+WNrtZHtaA1ECdXjSGMoayJicZNvBI7kOrXW2cbBAU29dN6ocBLbZ3OH0XNICBNOyh1TEAF4KpkO6oEJeyzZFaZ0pbU+vEQhlsWTxy9IT4+q/8SxnFdqq4cPFyqAsEQ1lQRZyANdCuBnIDGkMZQ1mTIxoLZaZMlDPRMO1qEjpYHowGemkY0PC64pTd0QAW0FJBQWkkBuLq8MK52jFKh1Zjty9+cvyU+OxTT4mVK1dUHjJ1Xb58SezctVt88slRcf36tern6dNniNtvX8lQ1p2pzZKyBnoaSN3myFDGUNbkXKJCmS5jTkBjKPP3fiMJD+oAACAASURBVCn6YUhrcpZyXU1oAANoIAcm5D4V4qj5QK7YvCb0KR3HhNuPrVPvR2reEKxioAyiLF4ZuyF+8eefkR6yS3LLYk+ys2fPiZe2/7N46snPiFV33i5mzphR/T527Zo4/PEnDGVNTESugzVQlwYoXjR1ACxED8p9bdu2TWzfvj1rsXx4dJw6c0BQXI3+1LnlSd3mWAp0KK2xPOHRZgM0yMUHV4d1xynK1QAG0kbh0GrlvcNuc6TCFAUc1eiIqRMDZcdPnhGPPfZo5f0aG7teVXPp0iXxwx/9f+KXv/ZlMWvmTBkW/2oVGh+u2bNnibnyP96+WO58ZclYA1EaiAE0KJihTAg+PDpqiJES54YyU4hYLxpDkL8bS9RPaOAxnIU0xPdL10AMoGHaEgMZenkhL5Gv7pg6XeHnY7xoJoTBv6nbN2PyYaDsoyPHpZfsWTFjxsxBYI+fvvGmWLv6HrH6nrvEOXlW2fUbN4fUOX3aVIYyzODmNKyBLmogtM2RoYyhrIlxXTeU6W3AAFqJ0KEOl4eoXHy49vCo1PsLO14Z0rCa4nSlaUCHsy9vXV+J99fb91rFrOPQ6hg4MaEoJa/eQNuh1XDf5jVMqZOaFxPo4+BHn4hf/cavyG/Gel4yuL773b8V3/j6vxQ3JIwpD5nZsewpK21GsjysgRo0YPOiMZQxlNUw1CYU2SSUuQANflch9xnK/L1esn5M2MJ4FxjQmpjlXEcuDdigTC/bBWijfmg1eNZivWhKbzEePF3XvtD/ocOjAcq+8fX/Rty8Oe4N+/P/9y/EN5/7VXFZnlEmhD0sPkNZrpnE5bAGOqKBLVu2VJIylDGUNTFk24Iys23KiwbfVLJnyt3zXYIyvRUMaE3MZq6jbg2EoMys3wZpk/3Q6rq3YGK2L1ZQ9iu/PNRd//nP/4t47l99vbdt0XFWGUNZ3TOMy2cNFKgBADOGMoayJoZmKVCm2uqTp6kDrHW9lwxBpW2nxHq9MIAGfYAtr4l5wnWwBkADsVCma83nRYN0Mdv16gYbV2/7vFqYQ6uhXEz0Sr3+WE8aFsp+VXrK9Ou//OV3xc8/+yUxb95c52BnKON1gDUwCTXAUHaq6nUO9FH/4O8SlIE2mgYzhjL/GNT1Q4UoH6RRy6x/5nANk1EDKVCGAbTSDq2uA/70M9Fyew3VNsrQ9sVDHx8Tz37pi2Lx4kWDbnn5ldfE/PnzxUMPbmYom4yTm9vMGnBpgKGMoayp2dElKANIxwQLyak7hrL6oQxq0I3dN954Y1Cp2s6tfmBIyzm6uaxYDeSCMrPekBcN0sd40iB9rIdJyUTN56uzqUOrQUcYT9knx06KBx94QNx334ZBV1yU55X93T9sEz/3zNNiyZLF1qHBnrLYGcPpWQMjoAGGMoaypoZx16BM10sTgMZQVh+UuUDMV6MOaQxoTa0SXI/SQF1QpmsYG83R7JU6vFqYno+FOMyh1VAv1WuIgTI4MBoOj/7aV35x0MRr8kBp+K5shjww+oHNG8W969fJrYzzqvsXL14Uu/fu45D4mAHBaVgDo6YBhjKGsqbGdJehzAVo8HuubY4MZXmhjAJiLgnYi9bUKsH1NAllMYAWC0R62W3ktdWJ8aIBoGHlxUAZRF08Ir1lmzdtEg8/+IC4OnZVAtlfiH8lvzO7OjYm3t7xrjj00Ufi2rVrlcoA1O6+6y6GMl4KWAOTUQMMZQxlTY37UYEyU1+5vGgMZelQlhPEfNKwF62pVWPy1tOEp8ymXfCeqai0tvvY4BlYsDHraMoLl+PQagyUQfsuSO/XqTMXxLPPfFH8wz9+X/zq139ZzJo1yzu4efvi5J373PJJrAGGMoaypob/qEKZy4sW60FjKKNBWVMghvGi8TbHplaT0a+nBCjzwRn0gA5oTcGUD+JivoVzbW2E8rGHVmMOj4byIHrt6TPnxPmLl8XTX/i8uGvVncEBzFAWVBEnYA2MngYYyhjKmhrVkwHKXIAGv4cgjaEMD2V6Sj1YR1NjGQNokIYhre0e6W79JUHZl7euH1JkzJlorh6getKgPGpebD7X1kfz0Gqspwxkvn79ujh3/oK4cOmqeOThB8UDmzZWWxVd1xRJcrdKWty6O5VYctZAdzTAUMZQ1tRonWxQZuo1tM2RoSwMZSpF6baK+Q2akpshranVpvv1lAxlunZjgoVgocjsvRK8cEommxft8ccfr25/4xvfEKdPn3YOPgCzS5cvS4/ZFTF79pwqyMcdK28TS5cuGcpz6tTp3jdl+kJS+qLX/SnHLWANtK8BhjKGsqZG4WSHMl3PNkBjKAtDmTroftu2bYPEpdgquv20fft2sXXr1uDUYkgLqmjSJugKlGEA7Td/49erZNTthTH5oB4q/IXy6ueeQVq1ffPf/a//W9W+J554otqq+O1vf9s5buH+lStXZJCPa+LK1Wvi2vUbAoKB6NfUqVMnBvpQC0wpC96knZnccNZAjRpgKGMoq3F4DRXNUGbXtAK0O5YvHXxgDw/uKVOmiCMneuMztPWxjj4sERIVlOnt1QENfm/SZjFBTJcLoExBl+/QapWHAa2OUdzdMrsIZaa2Y7c51gVT/z977x+z23EX+J0X58a+9nWuf9HEwBJ2E0uIJrFc1CRctTSSc7dE6aIQCbGXxnGIWFqnVUSpsClJZKUxUBsVIUTjKuUfcNrLEjULhO4i3Vibf3KhYnONs9t/GsIS2JVDyS+zLhT8q+88r+d955k758x3Zr5nzsw5n0eybL/v/PzMnPOcz/udmTM1C2JRuKkXUNu8Tz315eFP/uSPhx/6oX84fO1rXxt+5ucePq5yTNCMiJkTF030zNzv3Y+59++WL7o/tH/pqXmD6/fyoeUQ6JNAb1JW8gBjvuTsxmX/ode8LLj0g3RME4RPPh+kbBiMJIakzKc6dxRtSsTGpMz9OYJWeqfdRv41SJk7UtovrY7JlFTEQlE4iYiZ8m3ep//y3w3f8R1/b3jHD/zA8JdPP72r+s/+7E93/5YIWqitB5/97Gf3Ve0wlflLD1K2jRsAvYSAIXD//fergDAPRuYPO6Wf06dPB4vIOZIaKTuJvGhIaOrYImX5UmZz1pSzXiJlU1Q1BM3fHya9r7mRsrE2SgTN5CWKlnq36T/92qRMImix4/bnjKSlipjbHyNl5mMjZea//87f+fa9SWgkzRU088upZY5IWf/XMD2AgCqBEkErkbIxERvrnPTFrkgZUubOoR4lMXZYiOYNYA1S5vJIWeYojYZN8ZZImZ8fSdOcwX2XtWYp80dmapnjEiKWGoVzpeyGG84cd89Gy1xBsz8ziaaiaEhZ39cvrYfA7ARSJC1VylJFbKqzY1E0pAwp613K3PbPLWhrkzL/nuFH0TREzK0jR8rc/BJBI4I2+9feYhVsScoM5LHljeZ3sQiaO0hTEjd2UIfJXyJ/N9/yzbsmmOWL/9e/mt4K4UfQbNv/y/f9V8fdMBE0pGyxS4+KIdAfgZigSaRMU8TGCPpRtLE9ZSZ/6ZK+HiMvNWcefKZpl/BxBc3UorHMce1S5o6G5H6Veq1oSZnd7u8f/GLGx/8gaamj1G56pGx8bFJeWl2yLHFqdrgS93u/d7RVw12+OJZ3TMpMencfGlLW7rVJyyDQNIGQoIUecmpI2BQoI2hWykLp7El3uYJW8lA9xwDTnvkkqPXx0oiiIWVlozy3lLmtQ9DKxqrF3FuVMvcPC5JocSiKNoeITS1pDO0pc+fU2PJFf9656ZCyFq9K2gSBDgkYSbNStrSIufhiUuajTpU0JGi7EqRxmc41f3IFDSkrG9WaUua3FEkrG7sWciNl+6MgETSbwxe13KWJ0nyxgz7cfWSSuWXkDCmTkCINBCCwGgKPPPLIri8XL16M9kkiaHM9VEcbN5KA9iCJPoGUZY5IWe6Vd5RvKSkLCZnfE5Y5lo1tjdxI2TRliaTVemm1lbIf/2/+26uOxI/NlX/z5a8NZ8+e3Ut24+lrkLIYOH4PAQisl4CGoCFBSFDJFbLE/JmKoiFlJaO5vJT5e9HMPkMiaGVjWjM3UianLRG0qcNCpBGxUItMXvPyaPN505veuHt5tOTjLlX8vT/4w+Ms3/aqW3b/TaRMQpE0EIDAJggYSZNE0AwMG0W7/bZbZn05dSr4JR7yp9pIe9qWVl/QkLLUK24//dKRspCU+T1C0srGeM7cSFkeXYmgmZJtFM38d+gF0mO1h/aWxfaU2bKm9paZiJkVMqQsb+zJBQEIbIBAShRt7HTH0pMdczAjQW1LkN+6lsbLCNrUHxk0TndMndNGIM6fP5+aTZS+x9MXxzpmRUsiZW4ZCJpoqlRLhJTpoJZIWuzI/VgkbUrKpId8+L0lUqYz/pQCAQismEBM0JCy8cFvSTpMK2lPvrQiZfGbXA+RspjYub9nH1p8zDVTIGWaNI/KShG0mIi5rfOlLFfEOH1Rf8wpEQIQ2BABf5njnEfup2JFOvKlg8jmtLRasjXljEjZycvfp7jnRsqmrhaiaKl33/L0SFk5w6kSJIJm8seiaCaN+/Lov3z66eP3jUl6MCZwRMok9EgDAQhAYIRAypH7ktMcS0EjZUhZyRySzJ+U0xxL2mLyImXLSZk7dgha6UyW5UfKZJy0Ukkkbeyl1SkvjzbtlUTSkDKtkaUcCEBg8wRiyxxdQHMJmuShuuZA0Z71S2LuO9Ek8xApa0PKEDTJbC1Pg5SVM8wtIVXQQnvK/uIv/mKv+le+8lXH///nf350WuPUBymLEeL3EIAABDIJ5JzmaKoqWUaHBK1fgjKnoyhb6fzRFjSkrD0p8ycSUTTRpSVKhJSJMM2eSCJon/nMZ4b/+n3/xfBDP/QP947El0TEQh34mZ97mCPxZx9ZKoAABCBwSKBWFK30oVp7sGjPdiVRY5kjUta+lLkzHEEru4MiZWX85sodkjQjZebzpje9aTCnnv7PH/2fdv//Z3/2p+JmGBFzP0TKxOhICAEIQECHQK6gmdpjUTQkaLsSpDE755w/OVE0pKwvKUPQyq5CpKyMX43cdox8KXPr/sB/98BoU3wRQ8pqjBp1QAACEBASyJW0kKDN+VAt7M5eMtqDJIYISAUNKetTykIRs9A84Mj9fSpIWc63zDJ5/vzP/3z4wAc+cBwp02gFkTINipQBAQhAQIlAqaAhQUhQyVRcYv5MLXNEyvqWsrGXWbPMMXyVImUld6+6eY2Umc873/nO4enDI/HN5/3vf39RI5CyInxkhgAEIDAvgdTDQm6/7ZaBl1mPj8kS0jE1Q2jP1XRcSTPz+fz587NcZJcuXRouX76sWnbPL4/WBJHy3jQE7YQ8UqY5C+ctKyRlbo05goaUzTtmlA4BCEBAjYA0ioaUIWW5k65FSUTKvrYbztovj86dQyZfipT59WxZ0pCykllXN29MymxrUuQMKas7htQGAQhAQIXAlKCNSZmpOHZQiErjnEJafMhHWvuSVqRsW1Lmzs6tCRpSpv0NNF95SNl8bCkZAhCAQNcE3GWOVjrGOjTXi6tD9SFl09MKPnE+SNl2pWxrgoaU9fM1LJWyZ+/4d6JO3XbjN/OeMhEpEkEAAhDohMBdd911vKdM0uS5BQ3piEsHkbvpyB1ShpSFZsgao2hImeRbq400Uil77Vu+bXjdt71ustHf+KuvD0/8yZNIWRtDSysgAAEIzENAug/N1D6HoCFlSFnJzDbzBylDymJzaC2ChpTFRrqd30ul7JVvvmF49W3fOtnw//f/+6vh33ztK0hZO8NLSyAAAQjMTyD1NEfboty9aEgZUlYyq5GydR6JXzInJHl9SevlfWhImWR020gjl7Lrh2+/9VuiUvZvv/41pKyNoaUVEIAABOoTqBFFQ8qQspKZjZQhZSXzx+Qde5F1i6KGlJWOdr38cik7jJTdevtkw575m78e/u3XvoqU1Rs+aoIABCDQLoG5BA0pQ8pKZj1ShpSVzB+bd0zMzO9bkjOkTGO065QhlbJXHS5f/PbbYpGyv2b5Yp1hoxYIQAAC/RHQWuaIlCFlJbMfKUPKSuZPSMpefPHF4eDgiKt5Obn7WVrQkDKN0a5ThlzKzhzuKRuXsjf9ve87bjDvKaszdtQCAQhAoFsCJVE0pAwpK5n4SBlSVjJ/fCkzQmY+VsrcF3K3cFgIUqYx2nXKEEvZ9xgpCx/08aa/+58O/8enf3v4+le/NvzNc8+yfLHO0FELBCAAgXUQSBU085dojnwfH3ukNS6tnL7I6Yuld08rXFNS5taxlKAhZaUjXS9/ipR9R0DK3ngoZL/7z//ZcM2L1w6v/JZv2f2hgEhZvfGjJghAAAKrIyBZ5oiUIWW5E59IGZGy3LkTkiyplPl11jrNESnTGO06ZUil7PbvuXEISdl/+Hf//vBbv/Op4XV33jXcduutw7WnXoaU1Rk6aoEABCCwfgJjUTRfygyJOd6JJiFMZCoemWpNoomUESmTXNtTaVIjZZKy3DRae9GQstKRrpdfKmWn/v1nh+uvPX1Vw+79j943/PanPjX8J3e/dbjx9Onh2eefQ8rqDR81QQACENgOAVfQ7EP+WO9rChpShpRZApcuXRouX76selGeO3eu6DQ/+1DuR3RMI939T2ORnNxIkCqEw8I0JUijbXO1R3uZI1KmMdp1ypBK2fvf//7RBn3qd35neOvf//vDqZedGp574XmkrM7QUQsEIACBbRO46667xADmlDSkDClDysSXYnbCuSQot0G12lO6zBEpyx3h+vk0pOyf/e7vDq957WuH17zmNYd7yr4JKas/jNQIAQhAYNsEUg8LsbT+1b/8l8XgkDKkDCkrvoyiBdSSoGhDXkqwRHtyomhImXREl0+nIWWmF48//vhw+nD5Igd9LD+mtAACEIDApgnUFjSkDClDyua/5SwhQVO9Wro9UkFDyuafm1o1aEmZ2x5OX9QaHcqBAAQgAIFiApLTHG0lOcsckTKkDCkrvkyjBSwtQX4DW23PFMj/7Nxropy1EvzO5S8ev7rE7gGuUb+p13y0DkrR4iEpBymTUCINBCAAAQisgsAcUTSkDClDyua/PbQqQa0dhIKUIWXuHCBSNv+9iRogAAEIQKCQgJagIWVIGVJWeDEKsiNl05Dc5YxGFM1+IhP5v/22W67KWCtiZSNkRMoEE/wwCZEyGSdSQQACEIDAygnkLnM0Dz2tvYeL9oxPVl4effLyaJeSfzw+EiSToNYiZaFXH9ievPsfvHm49Hv/dxVJY/li+hcmUpbOjBwQgAAEILByAilRNIMCCZqWoNb48PLoo5dHu6ePvu71r98bRBthaV06pt61NudtqhdpdRkYKXM/cwoaUpY++5CydGbkgAAEIACBDRGQCFpr0kF7iJRZAlMvj556JYSJKJoPUhaeS2uQsjkFDSlL/5JEytKZkQMCEIAABDZMILTM0UqQjyXnNMdStOxxmybI8sWT5YtIWf7VtjYp80mURtGQsvS5hZSlMyMHBCAAAQhAYEfACtqYlLmYagkaUoaUuQS0I2U+3VrLB3uRoFo8/HEY4+Om85cvSm/jOYKGlEnpnqRDytKZkQMCEIAABCBwFYG77rrreG9ZDI8raCbtVMQiVpb/e6QMKZtTyvy56u5Fm1NIkLLpeT2nlLk1SwUNKUu9c3P6YjoxckAAAhCAAAQEBCR70WwxmlE0pAwpqyllbl1zChpS1oaU2Vb82qd+f/efY0fuI2WCLwkvCZGydGbkgAAEIAABCCQRqCloSBlStpSUjQma+XlpFA0pa1PK3FaFBM38nveUyb4ukDIZJ1JBAAIQgAAE1AjkvhNNsswRKUPKWpAyfxRKo2hIWVtS5rbGRs0kgjb3i6tNhM583vWud6ndr2sVVCJlv/a//uOrmvnu//yHhoPPfvazL/q/OXfu3PDEE0/U6hf1QAACEIAABLogoB1FQ8qQshalzG1TjqAhZe1KWahlob1nfro5BG2rUmbYumJmhMx8kLIuHgNoJAQgAAEItEZAQ9CQMqSsdSkbEzTz87FljkhZn1Lmv+fO9GJsH5rG/XjLUmbFzAoZUqYxoygDAhCAAAQgcEggZ5mjeeDh5dHj04f3lJW9p0yyhLbk4h2LoiFl65EytyfagrZ1KfNnCZGykrsReSEAAQhAAAIBAilRNKQMKbMEtN9TNreUjUXR7MO7H3kpPUAk92bTiyS6/ct9T1kOI7t80R8v2wa7D81vk/TI/bE2IWX7ZJCynNlLHghAAAIQgICQQEzQkDKkbA1S5o6iiXCaD1IWntu13lMmvEUNMSmTlJMjaEgZUiaZW6SBAAQgAAEIzELAX+ZopSxUmeY70SSdaXGP2/nz5yVNT05z6dKl4fLly8n5pjKYg9JKTpLrOVJmuNjljGORMpNmiWgZkbLpaa4hZX4NvqSFDgpBypAy1RswhUEAAhCAAARyCdx1113He8piZdQQNKQsNgrTv9+alLl7ygwZu1xyLFJmfp9zmmPZqAwDUlZfytwax6JoSBlSVnptkx8CEIAABCCgTiC2zNGtcC5BQ8rKhnULUuZK1b/4gz8YrrvuuqugTUmZm9iXurmiaEjZslIWE7SS6HLZFZufu+Q9ZWO1sqcsfzzICQEIQAACEJiNQM5pjm60IqdhSFkOtZM8a5UyV54kh4dIpcynPVcUDSlrR8rclpgDRPwTHXsRNKSs7F5JbghAAAIQgECXBGpF0ZCysumxJilLFTGXXK6UjUXRSiNoSFm7UmZaZsfXjpPb2lYlDSkru1eSGwIQgAAEINA9gTkFDSkrmx69S1mJiGlL2ZiguQ/x0tFCyvqQMreVrQsaUia9+kgHAQhAAAIQ2AgBzWWOSFnZpOlNysYO6iijMAwakbKpNqQuc0TK+pKykJD5PVg6goaUld4lyA8BCEAAAhBYMYHSKBpSVjY5epAyyUEdZRTml7LUKBpS1qeUjb3nroUoGlJWepcgPwQgAAEIQGAjBHIEzWy6b+1l1ryn7Gu7GTt1wEYsMqW1LFF66cTaIy0nJ10oioaUrUvK3N4sJWhIWc7VSR4IQAACEIAABAbpMkekLH+ytBYpsz2RnJiY3+urcy4pZaEo2tjLrEsPEMllNiaJbnnv/gdvzi0+Od8cL4+WNMKcvmg+/jiUSLQvaXMtc0TKJCNMGghAAAIQgAAEJglMRdHGpMwUuMTDPZGy8khZ7cuhFSmz/R5rD1J2RGhNUubO9TmjaEhZ7bsK9UEAAhCAAARWTsAXNCtloW7P9dLqMcTmYRopG5cyu1RvLBJUW6JjEtRae2x7a8sZkbIj8nNEysbuJdqC9tWvfnV4/vnnh7e97W3D3/zN34x+S7z//e8Xf4Pw8mgxKhJCAAIQgAAE1k3grrvuOt5TJunp3JKGlB0MlrEVmtBBHb1EplqTshDTGoKGlNWXMv9+VrrMESmTfEOQBgIQgAAEIAABFQI5h4WYirUevpGyEymzA/ov/uAPhuuuu25vfJGy6emewsd/TcAckoaULS9l7ozJiaIhZSpfMRQCAQhAAAIQgEAqgSUEDSm7OlIWGrcU6Ugd95z0a2pP6jvRJLyQsrakLEfQvv71rw/PPvvscPfddw/XXHPN8NxzzwWHnuWLkiuCNBCAAAQgAAEIZBOQnuZoKshd5oiUIWXZE9TJqCWJWoKGlLUrZf58G3uR9Q/8wA8Mf/VXfzV867d+6/D6179+eOGFF/bEzL5jDSnTuIIpAwIQgAAEIAABEYG5omhIGVImmoCRRFpS5lZTsswRKetHyuyY+3JmhOyP//iPh5/4iZ8YXvnKVw7f+Z3fOVx//fXHU8QuMX7Pe94jnsIc9CFGRUIIQAACEIAABGIENAUNKUPKYvNN8vs5pMyvNyWKhpT1I2VjkTITCXvmmWeGL33pS8M3vvGN3UmMP/MzP3M8LWyk7AMf+IBkiu7SIGViVCSEAAQgAAEIQCCVQMkyR6QMKUudb6H0NaTMrTcmaBIpc8ub+0XSa31PmcbcMWPlvibEvIz64x//+HHRZl/ZV77yld0/f/3Xf338cxNJM5KGlGmMAmVAAAIQgAAEIKBKIDWKZt6/xXvKeHl06SSsLWVjgmZ+bk5zlEjZfffdd1zMo48+uodAW9KQsvEZFpIyP7UraSVzlUhZCT3yQgACEIAABCCQRUAqaEgZUpY1wZxMS0qZ33YTRRt72beb1pUyvwxX0jQEDSkrkzI3d4mgIWWlVzr5IQABCEAAAhAoJjAmaUgZUlY6uVqSMtOXsfZIpcxNpyFoSJmelJUIGlJWeqWTHwIQgAAEIAABVQKuoCFlSFnp5OpNyszL1919aVNRszFBMz+XRtGQsnmkzC81FkVDykqvdPJDAAIQgAAEIDALgbvuuos9ZV9BykonVy9SZmQs9PGP38+RtClBQ8rqSFksioaUlV7p5IcABCAAAQhAYBYCSBmnL2pMrN6lzGegHUVDyupLWUjQkDKNq50yIAABCEAAAhBQJ4CUIWUak2ptUuYy0YiijR08Il3+mDtGv/ap399lNSdSup+x0yn9dLn1puSTnL6YUt5UWqRMiyTlQAACEIAABCCgSgApQ8o0JtSapcznkxNF+81P/ONdMfaFxwcHR/MOKRt2ry/w31OmMSdDZSBlc5GlXAhAYEfAPFS5nyeeeAIyEIAABEQEkDKkTDRRIom2JGUuCqmgjUmZKWtOMSNSdjRa9gAQpEzjaqcMCEBgj4ArYr6ETf0OjBCAAARcAkgZUqZxRWxVysYEzfzcPSxkTMpMGo0j98fGcMtS5p7EaJ+TkDKNq50yIACBvYiYNBpGFI2JAwEITBFAypAyjSsEKbuaohtFG9tT5p/yqC1oW5OykIi5I4OUaVztlAGBDRKYQ6iIom1wItFlCEwQQMqQMo0LBCmbpjjGZ+rofVfQTOk5yxzXLmX+e8lif7BGyjSudsqAwEYI1JSmOaRvI8NENyGwGgJIGVKmMZmRk6/fUQAAIABJREFUsjwpM7m034nmtmSNUhaLhk2NBFKmcbVTBgRWTKCmiE1hbKUdKx5qugaB5gggZUiZxqREyvKkzLzMWnpYiFuDdJnj2qQsNTLmjwpSpnG1UwYEVkagdQFqvX0rmw50BwKLEUDKkDKNyYeU5UuZm7NU0ExZ7jLHNUrZ+fPnj5FdunTp+L9jSxdNQqRM42qnDAishEBPSwYRs5VMOroBgREC7jXuPuhoATMPTJcvX9YqblfOuXPnhne9613ZZdq/tPvvizIFmqjF2Afp0JGO7IFLzLiG8dJ4abXFtpaXR5vrd+xe5Qqa6XdI0pCyxAuJ5BBYMwH/r9Kpf+WZk40vjPZhyjwESf4CNWfbKBsCENAhMPXHlvvvv1+nkpdK0Zay06dP70p2+5AqaEiZ6hAfF7YGCZqHzFGpGnxKomhbkDJ//ELPV0jZnLOcsiHQGYGppUJLCJr7cDP2F22krLNJRnMh4BHIiXprCJqGlFkRGxtU/49JMUlDyua5PDSkQ7Nla2+PVNDs3rMtSpk7n+zz1VVSFrvBaE5KyoIABNoiIN2/IQnD5/ZMImJu2UhZLmnyQWAZAtrLpHMFLVfKSp6TYlE0pGyeObl2CSqlNiefqWWOSNn+yO2krOQGUzoRyA8BCLRDQCplkjB8Sq9SRQwpS6FLWggsT8C/xud87pBKWoqUzdHekKAhZfPM1TmlI6fFW26PL2mG39YjZXYOHVy5cuXFnAlFHghAYH0EcqXMJSFd5lgiYkjZ+uYePVofgZoiNkZvStBiUjaHiI21048eugd9mDxPfeVrx1lDB35s+SFfcuXAZ5rSUnysoCFlw2DuR0iZ5GomDQQ2QkBDysYEzUeodeoZyxc3MjnpZhcEcvaH1eqYL2i+lNWUMKmchdKFBG2ph+qxftCeNiWotfFyo2aumP3vv/6/7Zrqn0Lqy1uNe4dpy4ULF4aLFy/uqpvaFzp1+mKorf5WEKSsxohSBwQ6IaAtZb6gaYmYWy5S1snkopmrJdCyiE1BN+1u8eRW0y73ITA2cYyk3X7bLcGH2Klj9GPllvweKUPKUuePK2hj83kNUuaLmMsJKUudNaSHwIoJIGUrHly6BgFFAr2KmCKCakU98sgju7rsX+qnKvYjC0jZES0kcR2S2KuUTYkYUlbtVkpFEOiLAFLW13jRWgjUIqB9YmKtdq+tnpighV46bRjUljMkaB0SVHveWGpj88f8vraY5SxflEqYP0uIlK3tjk1/IFBAACkrgEdWCKyMQAsHdawMqXp3jKRJImim4thhIZqNQ8qQspL5NDV/xvahldQ3lVcqZfbk1JJ2IGUl9MgLgZURQMpWNqB0BwKJBFiWmAisoeQpe9HmFjSkDCkruTSk88c/Xn+OKNqUlGmImMsJKSuZNeSFwMoIIGUrG1C6AwEBAURMAKmzJLFljm535hA06UN1Lay0ZxuSOEcUzZeyOecsUjYnXcqGQGcEkLLOBozmQiCTACKWCa7TbLWXOSJB25CguS4HjfmjJWj2eP65+kqkrAZZ6oBAhwSQsg4HjSZDQECAgzoEkDaSpEYUTeOhWnM4aM+2JTFnmWNNGbOjQ6RM86qnLAh0TgAp63wAaT4EHAIc1MF0iBGYS9CQoG1LUGzexX4/9/wJRdGWkDCfA1IWmxn8HgIbIoCUbWiw6eoqCbAscZXDWq1TWssc536oTgVCe5DEEAE7L1Ln01zpkbK5yFIuBDokgJR1OGg0efMEELHNT4FZAJRE0ZAgJKhkUs45f1oTMZcTUlYya8gLgZURQMpWNqB0Z7UEELHVDm2THUsVtNtvu2XXD/9l1q29jJj2HE23OSUoZ0Jrt6dlEUPKcmYIeSCwAQJI2QYGmS52SYCDOrocttU2WippSFl4CmhLR+lEW2N7ehExpKx09pIfAislgJStdGDpVpcEOKijy2HbXKOnBM1I2cHBwTGTOd6JJgG+RumQ9FuaZg18epQwf3xYviidsaSDwAYIIGUbGGS62DQBRKzp4aFxAgJah4UIqhInWYN0iDubkbBXPmsQMSJlGROWLBDYAgGkbAujTB9bI8D+sNZGhPZoEDDz+sKFC7uiLl68GC1yzihar9IRhaaUoCc+axMxpExpElMMBNZGAClb24jSn1YJIGKtjgztmouAdB+aqV9b0HqSjrn4T5XbCx97gMwSjGrUyfLFGpSpAwKdEEDKOhkomtkdAQ7q6G7IaPDMBGouc+xFOjgN8mjShcZr5unYRPFIWRPDQCMg0AYBpKyNcaAV6yDA/rB1jCO9mJ/A3FE0pGx6DFvlY1v9mS89PXz9G08PN990dvejt7z66N9r+yBlaxtR+gOBAgJIWQE8skLgkAAixjSAQBmBOQStVenglQEnc8XfK2ZE7PDwzt3HHOCJlJVdV+SGAAQ6I4CUdTZgNLcJAuwPa2IYaMRKCWgsc0TKpifHUnx8EfuF3/zMrqH/weEhMeaDlK30oqZbEIBAnABSFmdECggYAogY8wAC9QnkRtHsARFEpsJjVlPKxkTMbRlSVv/aokYIQKAxAkhZYwNCc5ohwEEdzQwFDYHAjkCKoFlkSNkyUiYRMaTscJnmlStXXlqxyVUOAQhsnQBStvUZQP9dAuwPYz5AoB8CkmWOvpSZ3i1x4mHNyJRkBLXbkyphfhuJlElGjTQQgMCqCSBlqx5eOicggIgJIJEEAo0TSImiab8TTYJGW4IkdU6l0WhPqYgRKSNSVjqPyQ+BVRFAylY1nHRGSID9YUJQJINAhwQkETTbrVqCpiFBmkOR2x5NEUPKkDLNOU1ZEOieAFLW/RDSASEBREwIimQQWBmBFiQtV4LmGoqU9vgiZtpkT03Uah/LF7VIUg4EINAtAaSs26Gj4QICiJgAEkkgsCECSy1zTJGgGsMRa89YROwn3vGWXfOQMp1R4qAPHY6UAoFVEEDKVjGMdOIlApyYyFSAAASkBGoKWkyCpG3WShdqj1v2mHQhZVojcFQOUqbLk9Ig0DUBpKzr4aPxhwQ4qINpAAEIaBCYc5ljq1LmcvsnT/7p8K//9R9PokTKNGbaSRlImS5PSoNA1wSQsq6Hb7ONZ1niZoeejkOgCgHtKForUuYvS/znf/L0UcTmYBi+/o2nkbIqswspq4yZ6iDQBwGkrI9xopX7EbEnnngCJBCAAASqENAQtCWlLLQ/bOxgDSJlVabUcSVEyurypjYINE0AKWt6eDbfOCJim58CAIBAcwRyljneftstu374L7Oe60XWsaPrkbI2phVS1sY40AoINEEAKWtiGGjESwQ4qIOpAAEI9EQgJYo2t5TFRMzlipS1McuQsjbGgVZAoAkCSFkTw7DpRnBQx6aHn85DYDUEJILmR8pM51OiZaF3hlmAKcfUI2VtTDukrI1xoBUQaIIAUtbEMGyuEYjY5oacDkNgcwRyljmGJG1KxEz6FBmzg4CUtTEdkbI2xoFWQKAJAkhZE8OwiUawP2wTw0wnIQCBAAF/afYUpKe+8rXB7kGTwETKJJTaTIOUtTkutAoCixBAyhbBvplKEbHNDDUdhQAEhAQkyxyFRe2SIWUptNpKi5S1NR60BgKLEkDKFsW/uso5qGN1Q0qHIACBGQmkRNDGmoGUzThAMxeNlM0MmOIh0BMBpKyn0WqzrewPa3NcaBUEINAeAQ0J83v1T5780+hLn/087ClrY24gZW2MA62AQBMEkLImhqG7RiBi3Q0ZDYYABBYiMIeIuV35zJeeHr7+jaf3ehd7CTRSttBk8KpFytoYB1oBgSYIIGVNDEMXjWB/WBfDRCMhAIEGCMwtYr6U+V12JS0kaEhZA5PksAlIWRvjQCsg0AQBpKyJYWi2EYhYs0NDwyAAgcYI1BSxmJS5vw8JGlLWxuRBytoYB1oBgSYIIGVNDEMzjeCgjmaGgoZAAAIdEFhKxFw0/8unPzf8+q9fHD70oQ+JiBlJu/mms7u0L754lOXgYNgtgYwte/yJd7xllz7ncJGpxo1Jom3nW1591N61fZCytY0o/YFAAQGkrADeSrKyP2wlA0k3IACBKgRaEDFfytz/N4JmPhJJQ8qqTJnRSpCyZflTOwSaIoCUNTUc1RqDiFVDTUUQgMCKCLQmZAatiZSNfWKC5kuZLWcsYkakTHcyI2W6PCkNAl0TQMq6Hr6kxrM/LAkXiSEAAQjsCPgiZk47NJ9WltRNSZk/hKnLHH1JQ8p0LwqkTJcnpUGgawJIWdfDF208IhZFRAIIQAACVxHwRcwVnzvueG23UmY7avvwkY98RLTM0R4W8gN3fvuuCPaU6Vw0SJkOR0qBwCoIIGWrGMa9TiBi6xtTegQBCMxPYErE3NrXIGU+zdgyR5veRgfNC6vNJ3YwiHTUOOhDSop0EIDAagkgZf0PLScm9j+G9AACEKhPQCphfsvWKGUhSQsdFGKlzC7hNPli70STjCxSJqFEGghAYNUEkLI+h5eDOvocN1oNAQgsSyBXxNxWb0HK3P66UbSQlLlpcwUNKVv2uqB2CECgAQJIWQODIGwCyxKFoEgGAQhAwCGgIWJbljK37//ord+9+183UjY22VIEDSnjkoUABDZPAClrewogYm2PD62DAATaJKAtYkjZEQErZfbgk9LTHC1XpKzN64hWQQACFQkgZRVhC6tCxISgSAYBCEDAITCniCFlYSlzuUgPCzF5/CgaUsalDAEIbJ4AUrb8FOCgjuXHgBZAAAL9EQi9yDnlnV25Pd7anjKXkx8pG2OYKmg333R2V5T/Mmv781beCZc7Z8bycSS+NlHKg0DHBJCyZQaPgzqW4U6tEIBA3wRC0TCpKGj1HCkbhlT5lS5zRMq0ZinlQAAC3RFAyuoNGcsS67GmJghAYD0EYssSkbLPVRtsDdZTUTQjZQcHV3eHSFm1IaYiCEBgKQJI2bzkEbF5+VI6BCCwTgIxEXN7rSEKKRSJlKVHysb4Spc5ImUpM5S0EIBAlwSQMv1hQ8T0mVIiBCCwfgIpIoaUnRBIXUpYMpPmFGAjux/5yEeGqZdWl7S9xbzsKWtxVGgTBBYigJSVg+egjnKGlAABCGyTQK6IIWXrkzL/CnD3oREp2+b9gV5DYFMEkLK84eagjjxu5IIABLZNQEPCfIJzRm9Co8XyRb3li7GroTXWsfam/p5IWSox0kNgxQSQMvngImJyVqSEAAQgYAnMIWJEytYfKTM9RMq4j0AAApshgJRNDzX7wzZzKdBRCEBAkcDcIoaUIWWK03WxooiULYaeiiHQHgGk7OoxQcTam6e0CAIQaJNA6AXOtqW1DqBg+WJfR+KnzGQiZSm0SAsBCHRNACkbBg7q6HoK03gIQKAygSkRc5uClNUZmFqcTW+2LsDaI0qkTJso5UGgYwJblTL2h3U8aWk6BCBQlYBUwvxG1ZKFrYtCLc5Imf5lh5TpM6VECHRLYEtShoh1O01pOAQgUJlArogRKas8UIfVIWX1mWvViJRpkaQcCKyAwNqljP1hK5ikdAECEKhCQEPEkLIqQ7VXCVJWn7lWjUiZFknKgcAKCKxRyhCxFUxMugABCFQhoC1iSFmVYUPK6mOepUakbBasFAqBPgmsRcoQsT7nH62GAATqE5hTxJCy+uNJpKw+c60akTItkpQDgRUQ6FXKfPRPPPHECkaDLkAAAhCYh0AtEUPK5hm/qVKRsvrMtWpEyrRIUg4EVkCgVym7fPnycPr06RWMAF2AAAQgoE9gCQnze1FLFjh9kfeU6V9BdUpEyupwphYIdEGgVykjMtbF9KKREIBARQItiBiRsooD/lJVteTXVLd1AdYeXaRMmyjlQaBjAkhZx4NH0yEAgc0TaE3EkLL6UxIpq89cq0akTIsk5UBgBQSQshUMIl2AAAQ2RaBlEUPK6k9FpKw+c60akTItkpQDgRUQQMpWMIh0AQIQWD2BXkQMKas/FZGy+sy1akTKtEhSDgRWQAApW8Eg0gUIQCCLwJjotLBntUcJ8wehlixsfZ9TLc5mfLfOOutGM5EJKdMmSnkQ6JgAUtbx4NF0CEAgmYDknYa+ENWStDWIGJGy5ClZnAEpK0a4WAFI2WLoqRgC7RFAytobE1oEAQjoEdAQLInI5bZ4bSKGlOXOhPx8S0rZHXe8dnjLq88On/nS07sOfOELf5TfkUBOU775mDrW+EHK1jiq9AkCmQSQskxwZIMABJolUEuiciNoaxYxpKz+ZbGUlFkhsz027bDLG83PNNqFlNWfT9QIAQgsRAApWwg81UIAAqoE5hSxsYamROG2ImJImeq0FhWmIT+iig4T+XvKXAnzy9Bo1+ql7MXDjwWX+1ce6eCRDgIQaJsAUtb2+NA6CEBgnMASIjY1Hn57tihiSFn9K1ZDfkKttpEwt/wxKZuzDaZtm1i+2NoNrf5UpkYIbJsAUrbt8af3EOiNQC/PLVsXMjOv5npQ9+fs1k8E1OJso1KWrytCto6ts9a+X47uKUsJw2s3ivIgAIFlCCBly3CnVghAIJ1ASHRaW/GDjJ2Mq5YsxGbK1kVBg7MvZKHolLtnTKPO2Lia369++eKVK1eOly9OAenlr1GSQSUNBCAQJoCUMTMgAIFeCITuV5cuXTpu/lKC5j4vXb58eQ/nuXPnesGr3s5aD+5I2efUx87fK0akTB3xrkDR6YtEzeaBT6kQaIWAf42fP39evWnmYcl/QNGoxDzkLPXwpdF+yoAABPIIxP6IVFPQpkTM7R1SljfWKbmQsnmkLCTVW2edMi8laUXLF90HKR6AJFhJA4H2CfgPEadPn95r9P3336/aCW0p89ur2lgKgwAEmicQkzK3A66gmZ9r/CFHKmJI2REBImV1LqlanE1vkDLdMd2TMskNBinTHQBKg0BNAjERm2pLqaRpSBkiVnO2UBcE2iaQImV+T3KjaJLnpClqRMrmn1NbFwWkbP45NlcNB+6R+JKlRUjZXENBuRCYh8Ac+0FzBC1HypCweeYEpUJgDQRKpMzt/5Sg+Uu7Jc9JSFmYQC1ZQMr0ly+Ozemts9a+jx589rOfFR30YStGyrSHgPIgoE9gDhEba6VU0KRShojpzwdKhMAaCcwhZT6nUgnzyyNSNv9M3Loo1JJfM5JbZ609m5EybaKUB4GFCNQUsakujknalJQhYgtNGqqFQMcESqTM32MWwqAtZKYOpGz+Cbd1UUDK5p9jc9WAlM1FlnIhMDOBHk5FdQXNlzJEbOYJQvEQWDmBFCmTSNjcUTKkrM6yOqSsDmciZfo3WKRMnyklQmA2AiUHdczWKGHBpu0aJ54JqyMZBCCwcgIxKcsRMRcZkTLdCVQrgoOUIWW6M7deaUhZPdbUBIEsAq0sS8xqPJkgAAEIzEQg9vLo0mqRslKC+/mRMl2eY6XV4kykTGc83T9WI2U6TCkFAqoEEDFVnBQGAQiskICVstKI2BgapEx30tSSBSJlRMp0Z65+aWOrhpAyfdaUCIEsAohYFjYyQQACGyTg76mdAwFSpksVKdPlSaSsDk+tWiTbN5AyLdqUA4FEAj0c1JHYJZJDAAIQmI1ADRFzG4+U6Q4lUqbLEymrw7OkFomIueUjZSW0yQuBRAI9H9SR2FWSQwACECgiUFvC/MYiZUXDd1VmpEyXJ1JWh2dqLakihpSlEiY9BAoIsCyxAB5ZIQCBTRFYWsRc2EiZ7tRDynR5ImV1eMZqKZEwv2wiZTHa/B4CGQQQsQxoZIEABDZJoCURQ8rmm4JI2Xxs3ZJrcTZ1bvVQFU0RI1JW57qglo0RQMQ2NuB0FwIQyCbQqoghZdlDGs1YSxa2Kgp2AGpx3pqUzSViSFn01kECCMQJcFBHnBEpIAABCFgCPYgYUjbffK0lC0gZR+JrzeIaIoaUaY0W5WyOAAd1bG7I6TAEIJBJoDcJ87vJnrLMgR/JhpTp8hwrrRbntUbKaosYUlbnuqCWlRBAxFYykHQDAhCYnUDvIkakbL4pUksWiJQRKUuZxUtKmN9ODvpIGTnSboYA+8M2M9R0FAIQKCSwJhFDygonw0R2pGw+tm7JtTj3HClrScSIlNW5LqilMwKIWGcDRnMhAIHFCKxVxJCy+aZULVkgUkakLDSLWxUxpGy+ew4ld0SAgzo6GiyaCgEILE5gCyKGlM03zZaWsjvueO2uc1/4wh+pdtKW+5ZXn1UtN7ewWpx7iJT1IGJIWe5MJ1/3BNgf1v0Q0gEIQKASga1JmI+Vgz50J1otWfAjZUaarDB95ktP76RMM5qGlA1DrbGVsO5NxJAy3fsMpTVOABFrfIBoHgQg0CQBpOyy+ricO3dOvcxeCqz14O4Ll/3/ECeNNklEoeYYafRJ2l5NuY3VOTWOPYsYUhYbeX7fPQH2h3U/hHQAAhBYgIAvYiay0MqyrNo4iJTpEq8lCxIp02wLUjZfpMwXsbXI19iVxemLuvccSluQACK2IHyqhgAEuiXgi5h9YG3tYbM2YKRMl/gcImRaaP9oYMuvGb0x9bd2nWhyjs2AOVhvTcSIlMVmGb/vggAHdXQxTDQSAhBokMCYiLlNbe1hszZGpEyXuIYs2DlpW+ZGcZGyIyoanKUjryVlWxYxpEw620jXHAH2hzU3JDQIAhDogIBEwvxuIGXsKdOc2hqyYOakPT3RfZD/rd/6reH/ueHbds3VEgVp31u7TjQ4S/tewhoRu5oyyxelM490ixFAxBZDT8UQgEDHBHJEzO1uaw+btYeCSJkucW1ZGBOCElHI6XFr14k25ykmKayRsPjsQsrijEixAAH2hy0AnSohAIHuCZSKGFJ2QgAp070caslCiiho9BApG18yiYilzTCkLI0XqWckgIjNCJeiIQCB1RLQFDGkDCmb60JByuYiu19uLc6m1pAAI2L544yU5bMjpwIBREwBIkVAAAKbIzCXiCFlSNlcF1MtWSBS9rm5hvCqcsfeHbb2o+vnAoyUzUWWcoMEODGRiQEBCEAgnUANCfNb1dqyrHRqZTlYvljGz8+NlOnyHCutNmfbDkSsfHyRsnKGlBAhwEEdTBEIQAAC6QR8EbMl1HroQso4fTF91o7nqDVviZTNEyljWaLm1RAuCymbn/Ema2BZ4iaHnU5DAAKFBKYiYlt/2CxEm5ydSFkysskMSJkuzxqRMkSszpjZWpCyurxXXRsiturhpXMQgMBMBKRLE5GymQZgpFikTJc3UqbLcy4pQ8TqjFOoFqRsOfarqBkRW8Uw0gkIQKAyAamIuc1CyuoOElKmyxsp0+WpKWWIWJ2xidWClMUI8fs9AhzUwYSAAAQgkEcgR8SQsjzWGrmQMg2KJ2UgZbo8S6UMEaszHim1IGUptDaaloM6NjrwdBsCECgiUCphfuVEyoqGIzkzUpaMbDIDUqbLM0fKELE6Y5BbC1KWS27l+ViWuPIBpnsQgMAsBLRFjEjZLMMkKhQpE2ESJ0LKxKiKErqckbAilNUzI2XVkbdbISLW7tjQMghAoF0Cc4oYUrbcuCNluuyRMl2e0tJ4f5iU1PLpkLLlx2DRFiBii+KncghAoCMCY+8NM12o8cDJ8sW6kwUp0+Vd4xoxLeY6GQZETHfu1ioNKatFupF6OKijkYGgGRCAQBcEpkSsloxZUDxs1p0ySJkub6RMl+dYaQhZHc5z1IKUzUG1sTI5qKOxAaE5EIBAswRiEuY3vNaDJhGA+lMGKdNlXuta2eIfLxAx3bm6VGlI2VLkZ64XEZsZMMVDAAKrIZAqYm7Haz1oImX1pxtSpsu81rWyFSlDxHTnZwulIWUtjIJSG9gfpgSSYiAAgdUTKBExpGz102PXQaRMd5yRsjKeSFgZvx5yI2U9jNJEGxGxzgeQ5kMAAtUIaIkYUlZtyBatCCnTxY+UpfNExNKZ9ZwDKets9Dioo7MBo7kQgMCiBOYQMaRs0SGtVjlSposaKZPxRMRknNaYCinrYFTZH9bBINFECECgCQJzS5jfyVoPmqbereyVaWIiHTYCKdMdiVrXSo/XCSKmO9d6LQ0pa3TkELFGB4ZmQQACzRGoLWJEypqbArM0CCnTxYqU7fNExHTn1xpKQ8oaGkX2hzU0GDQFAhBomsCSIoaUNT011BqHlKmh3BW0dSlDwnTn0xpLQ8oWHlVEbOEBoHoIQKArAq3ImIVW60HT1NfjsqyuJpfXWKRMd/RqXStLXCdvefXZICxETHcOrb00pGyBEUbEFoBOlRCAQPcEWhOymn/9R8rqT1+kTJf52qTMyp+lZATM3KMQMd15s6XSkLIKo82JiRUgUwUEILA6Av690zzU3XHHa3f9HPvLdG0ItR40kbLaI8tBH9rEa10rc0bKQiKmzYnytksAKZtp7DmoYyawFAsBCKyaQEjE3A4jZfX25rTGuvbEJ1KmS7xHKUPCdOcApU0TQMoUZwjLEhVhUhQEILAZAjERQ8qOCMwZAQhNNqTssvo1eO7cOfUyeymwFylDxHqZUetrJ1JWOKaIWCFAskMAApskkCJiSBlStsRFQqRMl3rLUoaI6Y41peURQMoyuCFiGdDIAgEIbJ5AroghZUjZEhcPUqZLvTUpQ8R0x5fSygkgZQKGHNQhgEQSCEAAAh6B0GmJpQ9mrS2pK+1PyqRh+WIKrfK0SFk5Q7eEWtfK1HWCiOmOKaXpEkDKRnhyUIfuRKM0CEBgGwQ0omFTpJAyDvqodSUhZbqkl5IyREx3HCltPgJImcOWZYnzTTRKhgAE1ktgbhFzySFlSFmtKwkp0yVdW8ps63lvmO44Utp8BDYvZYjYfJOLkiEAgfUSqCliSNkRAZYv1r2ekDJd3nNKGdEw3bGitGUIbFLKELFlJhu1QgACfRMIidjWRWHOB01/tmydde2rBynTJa59rSBiuuNDacsT2ISUcVDH8hONFkAAAn0SiEXEti4K2g+aU7Nk66xrX0FImS5xjWsFEdMdE0pri8BqpYyDOtqaaLQGAhDog0BMwoje7BPQeNCUzgykTEqsL2jBAAAgAElEQVRKJx1SpsPRlpJ7rSBiuuNAae0SWJWUIWLtTjRaBgEItEsgVcTcnmxdFHIfNHNmw9ZZ5zAryYOUldC7Oq/0WkHCdLlTWj8Eupcy9of1M9loKQQg0A6BEhFDyk4ISB80NUYeKdOgKC8DKZOzkqSculYQMQlB0qydQJdShoitfVrSPwhAYA4CWiKGlCFlc8zP1spEynRHxJcyREyXL6X1T6ALKeOgjv4nGj2AAASWITCHiCFlSNkys7lurUiZLm8jZYiYLlNKWxeBZqWM/WHrmmj0BgIQmI+AvV+al6TOLWF+L7a+pI7li/PN66VLRsrmGQFe5jwPV0rtn0BTUoaI9T+h6AEEIFCHgC9fbq2IQp0xMLXAuh7r2jUhZbrEkTFdnpS2PgKLSxn7w9Y3qegRBCAwD4EpEfNrrCULRMo+N89gB0rdOutqoF+qCCkrJ46IlTOkhO0QWETKELHtTDB6CgEIlBFIEbElomVbF4Va8mvGduusy66k9NxIWTozkwMRy+NGLghUkzJEjMkGAQhAQEYgV8SQMhlfzVRImSbNtspCyuTjgYjJWZESAmMEZpMyTkxk0kEAAhCQE9AQMaRMzlsrJVKmRbK9cpCy6TFBxNqbs7SobwKqUsZBHX1PBloPAQjUI6AtYX7La8nC1pfU1eJsxnfrrOtdnUc1IWVXE0fEas9C6tsSgWIpY1nilqYLfYUABEoIzC1iRMpKRicvL1KWx62HXEgZ+8N6mKe0cT0EsqTM7T5/NVnPZKAnEICAPoGaIoaU6Y9frESkLEao399vVcp4rut3ztLyvglkSRkXbN+DTushAIF5CSwlYkjZvOMaKh0pq8+8Vo1bkjKe62rNKuqBwDgBpIzZAQEIQECBQAsihpQpDGRiEUhZIrCOkq9dyhCxjiYjTd0EAaRsE8NMJyEAAW0CrUmY379asrD1wydqcTbju3XW2tdwrLw1ShkiFht1fg+B5QggZcuxp2YIQKAzAq2LGJGy+hMKKavPvFaNa5AyJKzWbKEeCJQTQMrKGVICBCBQQMCKTqsPDz2JGFJWMBEzsyJlmeA6yNarlLV6L+1gyGkiBBYlgJQtip/KIbBNAqGXy7f0eo1eRQwpq389IWX1mdeqsScpQ8RqzQrqgcB8BJCy+dhSMgQg4BBIka6UtFqQ1yBiSJnWbJCXg5TJWfWWsnUpQ8R6m1G0FwLjBMwzCFLGDIEABGYjoCFXoaiaRoPXJmE+k1qysPXDJ2pxNuPrs77jjtcOb3n12eEzX3p6N/xf+MIf7f5t0mm0y5RvPqaOLX5alDJEbIszkT6vkUDoGQQpW+NI0ycILEhAQ8Smml9S/tpFzOWm8VAumUZI2eckmFTSuKytkE0VXDoHkLLLKuPmFnLu3LmkMpGwJFwkhkDTBELPIO41jpQ1PXw0DgLtE5grkiXpuUTQtiRiSJlk1uimKRWflNb4Amz//8KFC8PFixePi9JqE1K2jJQhYilXBWkh0D4B6XMSUtb+WNJCCDRHQCJDtRu9Vfka46z1YB4bRyJl+pEyV4bccQyx1lqqGBpnpKyelCFisTsNv4dAvwTM88mdd945PPnkk1d1gkhZv+NKyyGwKIHWj6+3cBC0QWVPkWSyIWU6UmYFyDJ393FZMds6a8l81Ewz954yRExztCgLAu0SsFLmtjAkaETK2h1DWgaBpgiYm8r58+eHS5cuHbertYcKV8bMA1Xq/o2mgBc2hkhZIUBhdg3OrpCZwzqsfLlNMPUgZcJBUUo2l5S1dt9UwkUxEIDACIGQlIUEDSljCkEAAiICVsrcxK6gmZ8v8bDhi5jbPqRMNLRFibYuChpS5g+AK2Wx5YtFgxfJzPJFneWLp0+fnnOYKBsCEGicQEzKbPORssYHkuZBoBUCISnz21YjiuYvTZz6azZSNv/sQcp0li9KRmrrrCWMNNPkRsqQMM1RoCwI9E9AVcq4wfQ/IegBBEoJSKRsLIpWGkGbioZN9QspKx31eP6ti8IckbIx6ltnHZ+NuilSpIznJF32lAaBNREoljJuMGuaDvQFAuUEUqVsTNDMzyWSlitibr1IWfm4x0rYuiggZbEZ0u/vY1LGc1K/Y0vLIVCTQJaUcYOpOUTUBYG+CGhKmdtzV9CmTk2MPSCFaCJl888xpIzli/PPsmVqCN1zeE5aZiyoFQI9ExBL2ZUrV17suaO0HQIQqEMgVcrc/WU/+dBDu0Z+06tfvfv3C1/60vDzH/xgsOEmrUln0rgfN71U0JCy+ecGUoaUzT/LlqnB3mcQsWX4UysE1kIgJmX2ePwDpGwtQ04/IDAvAYmUuSL2wGOP7YmVL1pjUmZ6YSXOFznbQz/vmKQhZfPOCVM6UoaUzT/L6tZgovfmfidZZl23ZdQGAQj0SED8njKkrMfhpc0QqE9gTMr8iJgvX2PRsR/78Id3nfjiNdcMjx9GzV51+Lb773/nO3c/+9iDDx530BU0K2nSKBpSNv88QcqQsvln2fw1IGDzM6YGCGyVgJWy0Aujv+vN33uMhUjZVmcI/YZAIoHQy6NNEaGlibZoI2QP33PPcU2uiLnVWynzm2QkzRU0tz4raObfrqRNReASu9x18loHUCBlSFmvFwoi1uvI0W4I9EMgtFfeFTG3J0hZP+NKSyGwGAH3puIvS7RyZMXIlyIjYiYaNvUZkzI3TyyK5kbkbL4tCxpSVudyqcXZ9GbrAqwxooiYBkXKgAAEpgj4IvbUM88Od7/17ig0pCyKiAQQ2CYB96Zio2GPfeITOxj3/OAP7v5tRWgqGvaa559XkbIUQfNFcYuSVksWti4KtTgjZfn3YUQsnx05IQABGQFfxC79/pXjjK973euRMhlGUkEAAi6BkIyFolBG0L785JPHWcciYnNJ2W9/8pPHdbPM8eo5XEsWkDKWL7Z2B0XCWhsR2gOB9REILUt0RcztMVK2vvGnRxCoQsDcaOzer9CBGyFB8/eO3f3SEfimwTWkLCWKtpVljkhZlctlqMWZSNn0eCJideY7tUBgqwTG3qM6JmJI2VZnCv2GgCIBc+MxJyHaj2Qv19RpiKYcV9JCTZXsKfPFy42UjXU/1HaT1j9yP9Z+RbzViqolC0TKiJRVm9ReRYjYUuSpFwLbITAmY4aARMhMOiJl25kv9BQCqgR8KTOFG7kxEhSTnJQomomg2Y+JyNnonPlZTLhseyQdd9NKBNOUuYbTHJEyyewoT1OLs2np1gXYMEDEyucsJUAAAtMEQgd13H7m1HDhwoXh4sWLx5mRMmYSBCAwK4EpKfMrnpKcFEHzI2W23DFBy5Uyt/1rF7RasrB1UajFectShojNesuncAhA4JDA2EEdJsplPlbKzH9bMUPKmDoQgMCsBFKkLFVyYssE3WWTtuyQoGlIWazt5vc9L3OsJQtIGcsXtW9ISJg2UcqDAAR8AtKDOpAy5g4EILAYgVwpS5EcSRQtJmimvtgyR5MmReBsetuX0EEn5nc9HBaClNW5hGpxNr1ZswAjYnXmK7VAYMsEpCLmMkLKtjxj6DsEFiagJWX+kfWmW7mnOfqC5u9xmxK0HCmTtr1lQaslC2sWBcmlWIvzGqUMEZPMMNJAAAIlBHJEDCkrIU5eCEBAjYA9Et8XE0lUyjZiSoQke7liyxzNoSB+e8b2oZVKmQs2dtCJlbRY+9UGa6KgWrKAlLF8MWU+I2IptEgLAQjkEJh6kXNqeUTKUomRHgIQUCNgI2Wu5ExFokIVS0UoJjk1lzlKhNLvq0QwTZ4lTnNEytQuicmCanE2jehVgBGxOnORWiCwZQKaIuZyRMq2PKvoOwQWJjC2fNFtVixqJpUyU2bqkfWu4PgvrdbYh5bSdrf9MUEzaU17awlaLVnoVRS0LrNanHuTMkRMa4ZRDgQgECJQuixRShUpk5IiHQQgoE5AsqeslSPrY8sEjaT5kqXZdl8q7WDEIoAhQTM/+/kPflBtPGvJQkjK7rjjtcf9+MIX/kitT6YgW/ZbXn1Wtdzcwmpxbl3KkLDcGUQ+CEBASqCWiLntQcqko0M6CEBAnYBEytxKWziyXnOZY26kbGogYlG0OU5zrCULrpT5wvSZLz09GCmzaQyj0nYhZeUMpTeNGGtETEqSdBCAQA6BkISZcqTvB8up08+DlGlQpAwIQCCLQKqUjQma+XlsmaNJkyNBts6pI+tTlznattiyJW1Pbb8rsGNtN2VqLHMslR/p5PEjZa6A+WVotCkmCtJ2a6XT6JO0LTWXio6NIyImHS3SQQACuQTGZMwtr5aYIWW5o0g+CECgmECJlNnKWzuyXrLMMaftOVIWO27flKnx0uq5ZME8rLtlS6RMsy1I2XyRMl/EELDi2ykFQAACQgKhgzqMEN1+5tRw4cKFXSkXL14cXnzxxeHg4KBatAwpEw4gySAAAX0CmlLmtq6FI+slyxxjx+2bPuW+LiAWFdRc5qglQu7+MHcfly2/ZvTGsEfK9KQMCdO/f1IiBCAgIyDZH4aUyViSCgIQWCkB+54yVz5iMuGjiKWvcdy+aZNEckqXOfqSNjUtYlxCEluyzLFEzFwZs+3yD9cw5SNlfb2nDBFb6Y2bbkGgAwISEXO7gZR1MKg0EQIQmI+AGynLlacc+bA9iu3lSinbipkpM1XQTF7/NMTYkfs1227al7LMMUfQjJjZ0xP9h3kiZUczNodr7tWbK8CIWC5x8kEAAqUEUkUMKSslTn4IQGA1BKaWL8aOk7cQUsSpxSPrJcscraCF3rM2JpgpXFyh9CeXRDBNnrF3ouWIxJgQ5IpC7gXD8kWZCCJiuTOMfBCAQCmBEhFDykrpkx8CEFgNAemesilBS5GPqbShSF1K2VNi4w6YRHJKlznaaF0smua3K5Y+1nZTXuw0xxxJs+1EytpZvoiIreY2TEcg0B2B0EEdpZ1g+WIpQfJDAAJdE5BKWUhq3J/FZMKmTZEsaaQuVWxKBM3k1V7mmMPGCqj5t7sPzfz/nMsckbLlpAwJ6/pWS+Mh0D2BOUTMhYKUdT9F6AAEIFBCIEfK/PpS5ClFyqx4uHvEzM+mBDC3fInkpCxzHGv7VPtL2j7Wfl/QTLqxZY7md7EoGlJWX8rc641j60vuduSFAARSCGgtS5TWiZRJSZEOAhBYJQEtKbOiFBO0UvFw5cMOSO6R9a44hQY3tlTQXyZo/v/he+45Lip03L7ffu22f/nJJ/e6YqXMb6tJ5Ef8fAYhQRt7yXBM5nIvni3uKSMiljtbyAcBCJQQGHuJc80XN/OespIRJC8EINA1AW0pc2HU3iMWkrTY4EglMVXQQtITO83R5JEuA7Vy5y9dfOCxx/YiYX50zxWxRx55ZBLP/fffP/p7P2LjfplrCtpWpAwRi12p/B4CEJiLwNIyZvtFpGyuEaZcCECgCwLue8rcBqfKgSR9LIoWAiaVJps39Vj/lPL9kxfH9nKlLnNMbbsbDXMjYaacqQNKzO9N9M60+8477xyedKJqY4Lmipl06Zz/BV8iaWuWMkSsi1skjYTAKgn49+mnnnl2MFEq/1MrSmbqRcpWOdXoFAQgICUwFimz+aWyJUlnyrRiIxW0FGlyyw+JTqiNKeWPpU2NovnLHE1bTRTNL99llPtSaSNh5vPFa645nhKPf/CDOylzP66guT+XitjUfLNf/jlytjYpQ8SkdybSQQAC2gTGDuowMmQ+/tJB8zOkbBguXry44yNlYXje/da7o8N3cOXKlRejqUgAAQhshkBs+aJEnkrFZiq6lVJ2SMrcgQz1JaV8SdpUQTPt8yXNLnN0I2JmWaL5+JEw+zN3WWJIxFwOISmzv7dydv78+eHSpUvH2VLlzP3yv3z58nDu3LnoISKhi653KUPCNnMrpaMQaI6A9KAOpOxk6DRYIGXNXQo0CAJ9EIhJ2ZjUmJ+7h3ukRsqm6KQuQfTbKGlLTh0SKQvxylnmaMTsnh/8wV1xoUM6QoeK2LrdqFiIc46U+eWEJM0XMTfPlqQMEevj3kcrIbBGAlIRc/uuISIaLFm+qEGRMiAAgW4JpEiZ30lJFC2URyJNNl+qPOWIk/TI/dyy/b6MLUUMyddjn/jELrsVtFhE7DXPP7+3VDFXyky+sX1mJoLmRtFsHSYiNvZZu5QhYt3eAmk4BLonkCNiSFl42DUElUhZ95cUHYDAMgRKpGxMnMzPx8RLS2zG6igt35Q7JpsaZacImknrHrFv/t8sTZyKhKVKmb+XLOVExoceemj44OH+tCkZs/1do5QhYsvcs6gVAhAYBs0XOWuIiMaYECnToEgZEIBAtwS0pMyXsJpi4wqapjj5gjYlm6EJkNIWk9Zf5mglzPw7tiTR1i+VMps+JmEmnXsCoxEx97M1KfPHOXWvXbc3ChoOAQgsTkBTxNzOIGUnNDRYEClb/FKhARDok4B7JH7OHjErLlNLElOXILokpWKTW4e0/BxBSynb5WgF7e6XBEgiWjEpM/vItERsy1KGhPV5n6PVEOiRQOmyRGmfNUREWtdUOiJlGhQpAwIQ6JaAGynL2SMmkTJfstz/j+0vKxEbW09MGGNtsOX4bYnxym27qc+cvFgqZXOJ2FalDCHr9jZHwyHQDYFaIuYCQcpOaGiwIFLWzeVGQyHQFoHYe8p6FhtXpsb6kSJOU2lDkbqUsn25zZWyFBFzlyWa+v2liZKZuvbli4iYZBaQBgIQyCUQkjBTlvSdWLn1ImVhckiZxoyiDAhAIIuAdE/ZVFQoRT6kYlNrKaWBlhspmwIei6KF8rpsUqQsV8RyJMxv9xqlDBHLupWQCQIQSCAwJmO2CKTs6KXNL7744nBwcFBNUpGyhElMUghAQJeAVMrcWn3h0JKysTrmEidTboo8pfTTli09bt9Nb/57SspcCTNpY4d1TB3UUTqb1iJliFjpTCA/BCAQI+CL2FPPPLvLcvuZU8OFCxd2/21ExHyQMqQsNp/4PQQgsDICOVJWIk81xUYyVG57YoKW23Ypr6lImXsyY0zCTH1zipjbn56lDBGTXCGkgQAEcgnE9odpRGVy2+bma6kdvqASKdMYYcqAAAS6IFAqZaaTS4pN6Ch+6XJEv+0xedKQMn9SjJ0aaSJl7qclEetVypCwLm5JNBICXROIiVirMmTa1ULEDinrevrTeAhAoISAtpSNiU2Le8SmpGxKnqTSlyNxKRExjYM6SuaOydt6pAwRKx1h8kMAAjECKSKGlI3T5Ej82Ezj9xCAwKoJuO8pMx21e6Ck4iEVmxrvEbNtsQMm6UOKONm0sWWOtn5p2W5ULBYRq7UsUTrpW5QyREw6eqSDAARyCeSKGFKGlFkCB1euXHkxdwKSDwIQWB8BP1KWI09S+XAFTltsQiIkqSOn7e4smOI1Vnbq0sTWRMztfytShoit795EjyDQGgFfxEoP42hpL5dhzfLFYdAYE95T1tqVS3sg0AmB2PLF2mJTc4+YNMqXEvmS7BGLRcNMfS2LWE0p+0dv/e7RKwkR6+QmQzMh0CkBjWjYVNc1BEADbUvtYE+ZxohSBgQg0CWBmJSNRYVceSqNNk1FnszvJMsQU8TJypjNIy0/pZ+m7JRliT2J2NxS5osY8tXlrYVGQ6BLAnOLmAulJRky7SJSRqSsy4uWRkNgLQRSpGxKnuYSG0mkzm+XtC2+nMUEUCJlWxCxOaQMEVvLHYV+QKA/AjVFDCkbnx8c9NHftUOLIQABRQK5UpYraBKxGZMsiaCVlB+TNMkesdjSxBZOTFScPkWnLyJimiNBWRCAQAqBpUQMKUPKLAEO+ki5YkkLgQ0Q0JIyfzmjRdfyHjErYVORtdAesTUd1FE6xVMP+kDESomTHwIQyCUQErFQWaUHeEjbx/LFfVJEyqQzh3QQgMAqCdgj8XP3iMXExpcakz51eaEkvSSKFhpAaWRta8sSpZM9RcpsmewRk9IlHQQgUEpg7MTEtQhAKR+TvyU55KAPjRGlDAhAoEsCNlKWcxS+7bBUbKzA2XxS2ZKkc9viDkQs71TbEbH4lE6RMmQszpMUEIBAGQHpskSk7IQzUqbLgiPxy65hckNgswTGli9qiY0P1pUgSXQrRfis9I0tpTS/jy2nRMTSLgWkLI0XqSEAAX0CUhFza0bKdEVEY1TXMiZImcZsoAwIbJCAZE9ZTJ5SxGks7VikLqXskJSFpND+zAiaKf9jDz54nGxrB3WUTnmkrJQg+SEAgRwCOSKGlIVJEynTFVSkLOeKJg8EIDBIpMzFFJKnFHGSpo2J4NjQScrnoA69iY+U6bGkJAhAYJrA2P6wHG5ricrk9N3Pg5QhZRrziDIgAIFCAqlS5leXKk8SaYpJ4FSXNY6tN+W7R9c/9NBDhZTXmx0pW+/Y0jMItEBAU8Tc/iBluiKiMVfWMiZEyjRmA2VAYIMESqXMILMiJBG0HCnL3SPG/rD5JzRSNj9jaoDAlgiULkuUslqLAEj7O5WOSJmuoCJlGrOSMiCwQQKaUiaJcJVKmT9EvggiYnUnMVJWlze1QWCNBGqJGJGy8OxBypCyNd5X6BMEuiNg31NmG24Pv4gdJe8LWCy9JIoWgieRuBQRc5clmvpYmlg2ZZGyMn7khsAWCYy9xLnWS5sNcyJluiKiMY/XMiZEyjRmA2VAYIME/EhZjjxJxMmiTX0fWqhsDupoZ6IiZe2MBS2BQOsExmTMthspG4aLFy/ucNRmYer0X9y8RDt4eXTrVzHtgwAEZiMwtXxRKmipUpazRywlGmZgcVDHbFNmr2CkrA5naoFArwR8EXvqmWd3XbEP31ZCEIALOy5I2anhwoUTFi+++OJwcHBQTVI1lnISKev1bkW7IbAwAemesqkIV4mU+d1360l5fxgitsxEQsqW4U6tEGiVQGx/mMZDr0bf17JUTouFK8pLyiGRMo0RpQwIQKBLAlIpm5In87vYnjKbPyZwRMT6mkZIWV/jRWshMAeBmIi5dSJlJzRaYoGUHY2LxpgQKZvjLkOZENgAgVwpc9FIlzmaPLE9Yo888sgkdQ7qaGtSImVtjQetgUAtAikihpSFR0VDADTGu6V2ECnTGFHKgAAEuiSgJWU2UhY7yMNKWUpEjP1h7U4tpKzdsaFlENAmkCtiSBlSJpmLa1lSSqRMMtqkgQAEriJgj8T3D9+QLkcci37ZiqykufvDzO9SImIcW9/uxEXK2h0bWgYBDQK+iJWeCkhU5mRUWmJhWsXpiyxf1LhnUAYEIJBJwEbKYhGuqeLH9omlRMNM+UTEMgdxwWxI2YLwqRoCMxDQiIZNNaslEVnDUjmNKcCY6IoykTKNWUkZENgggbHlixaFJGLmShkitq1JhJRta7zp7ToJzC1iLjUEQFcANGYkY6I7JkiZxqykDAhskEBsT5kkgpYiYhzUsa5JhpStazzpzXYI1BQxpCw8r1qSIdNCli+yfHE7d0B6CoEGCcSkzG9yaI8Y+8MaHNhKTULKKoGmGggUEghJmCmydI9YarNaEhGWLx6NHmNCpCz1OiY9BCAwAwGplLnRMNMMRGyGweiwSKSsw0GjyZsiMCZjLoSaYoYA6AqAxmRmTHTHhOWLGrOSMiCwQQJTUpayLNGg46CO7U0gpGx7Y06P2ycQOjGxpQdvQ5Clcm1FqBiTo+ta4zqRSNnjn358OLhy5cqL7d9OaCEEIFCLgC9liFgt8uuoBylbxzjSi74JSPaHaTxsalBqqR0sX9QTEa25sYYxGZMyI2L2Y/qJlGnMGsqAwIoI+F/msWWJRMRWNPgKXUHKFCBSBAQyCEhEzC22JRkiKtOeDDEmemPiSpkvYu41iZRl3PjIAoE1EnC/0GMixomJa5wBOn1CynQ4UkpbBMb2YT3xxBOLNjRVxJCy8eEyD85riMpoTMiWhL33MbEsreROjQ9SpjF7KQMCHRJIjYixP6zDQV6gyUjZAtCpchYC/j3yoYceGt7+9rfv6nrPe94zPPnkk3v11hK00P6wHAAtPXgTldGLyuTMBT9PS3OjRylLETGXPVKmMXspAwKdEEiJhpkuIWKdDGxDzUTKGhoMmpJEIBR1kopWSV5JI7VEzK2rpQdvpAwpC10HPUUvc0VsT8pePPyYH0hvPJKbB2kgAIF2CCBi7YzFFlqClG1hlNfTxzlkSqPMkmWJ0tFByvZJ9SQA0jHOTdfS3Gg5UvbUM88eIzbtzPmYCLz9HEfK3BsAgpaDlTwQaIcAItbOWGytJUjZ1ka8v/5qSJO01ynLHGuImNvulh68Tbs4El/n+HXp3JxK19LcaFnKclm7IuaWEVy+iKDlYiYfBJYjkCJiHNSx3DitvWakbO0j3Gf/aorYFKGWXtzc0oM3UnY0axiT/aun9ehl6Fo3CxAPDg72fjUmYX7+6J4y/wZCFK3PLyRavT4CHNSxvjFdQ4+QsjWM4jr6MHVQRws9nBK0S79/ZfYmIgB9CUCNOWGJtDQ3loiUpe4PKxGxaKRM+lceBG32eyYVQGCPQEo0zGTkoA4mUG0CSFlt4tTnE+jtj8m1ly22+OBt2sTyRSJl/rVcM1KWKmKhO680IjZ2145GyhA0vvAgsCwBRGxZ/tSeRgApS+NFan0C5p555513XnVkvamplT8mh0Ts4YcfPobxwAMPHP/3XBGSlqIhSNnRcDMm+/eDuaWsBRFze1wkZbYg9qDpf6lQ4rYJIGLbHv+ee4+U9Tx662i7lTK/N/57xWpLWmg5pWmDuWbe8IY3DJ///OePm2wFzcrZHGKGANQVAMnVxZjMPyatiZiKlLk3l8uXL+/KPHfuXDN/hZJMftJAoCUCKSLGQR0tjRxtcQkgZcyHpQmMSZnbrhqCFoqGhZY3WSkz7TNiZgVtbjFDAOYXgNRrgTHRH5NUCdPaH5Y69iZ9UqQsJGJupUhZzhCQZ8sEckWsdN3ylpnT93kJIGXz8qX0OAGJlM0laFIR8/+QYUTMSpn5d2gpo3a0DAHQF4D47JxOwZjojFohbqMAACAASURBVElPIub2OCplMRFDykovQfJviQAnJm5ptLfZV6Rsm+PeUq9Tpcxve2oULUfEfClz/9/sh/vhH/7hwS5dfO6554aXvexlA1I27yybe/+SpPVIWb6UpYpYaDyW/oN39D1ldmmiZDIRKZNQIs3WCKREwwwbTkzc2gxZV3+RsnWNZ4+9KZUy0+eQmFkW5rAQTREbO+DD1GeWUj3//PNIWYWJiJSdQG5JDqeOxF+DiLlTeydl/s0lRcTcwpCyCncNquiCACLWxTDRyBkIIGUzQKXIJAJaUnbhwoXh4sWL0br9vV/RDIcJxvIYCbMf8wJapGz+97VZ3khZX1L21DPP7l6jkPNZOiI21uaDwwv+xVwJ8wtFynKmxrrymC/DVo4crk02RcQ4qKP26FBfLQJIWS3S1DNGoETKQhGysYe/KWkz0uUeaz81Wq6I7f3VHClTX7I5NQ5IWV9SNjaWSx7UUXpXPvjsZz978meZwtKQskKAnWYPLeNwu7JmScsVsVb/StPpFKTZDRFAyhoajI02JVXKxkTsvvfdtyP46EcfDf5F3kiZ+Zho2r333jucOnVqOHPmzPCLv/iLo+Sfeuqp4dprrx2uu+664frrr99FwsY+RMoGpOyl+WXmiPaewpigmt8v9UJvf1mie62FpKtnEdv7QwxSttFvrcJuuzLywGOPDQ/fc0+wxJ986KHh5w/fwWI/vQsaB3UUThyyr54AUrb6IW6+gxIpC4nYd735e4/79vinHx9ypezWW28dbrvttuHs2bPH/xhZu+GGG3bShpTtT6Fe9i/VmPgtsagtZdL9YSEBs2PT+x+8iZTVuMpWUIcvI75s3X0oX+bz+KGAverw5Cj7+fKTTx7/d6+ClhINM53loI4VTHi6kE0AKctGR0YlAikvj3ZFzK2+RMqMkBkxQ8pkA9qSiEwdKiHrTVmqlljUkDKpiE1R7V3E3L4hZWXXz6pzuzLiC5XpuBWxvS8yT8rc37mCFgLXUhQNEVv11KZzMxJAymaES9EiAq6U+RGxMQnzC86VshtvvHEnZEiZaKh2iVoSEaTsaNzmHBNEbPzaQMrk941NpJxalhiSsKu+yCakzKb9/ne+c/jtT35yaC2KhohtYorTyZkJIGUzA6b4SQKhPc5SEdv7A2Pm8kWkLH2CzikAKa3hoI8TWtpj4paXMiY27ZqiYVP9R8pyZsfK8kxFxKyIvebwPSlfvOaaYM/N7+znYw8+OPzYhz+8l84ImPuxUub+bClBSxExTkxc2cSnO7MQQMpmwUqhEwS0RAwpOzq0xHy2dKiEHXekTE/KUqNhazmoo/RGjZSVEuw0v0TE3K75UuaKmCtr/p4yU4aRMPsxghaSsjFBC+EtWebIQR2dTlia3Q0BpKyboeq6oSERsyJhHgjvfuvdRf2bc/miOXnRHPbB6YtHQ6QdlckdeKSsTMpSRSw0TluJiIX6/va3v31AynKv3g7zlSxNdCXMdH0sahaSMheVL2gSjKVRtJRomGkPB3VIRoU0EAgTQMqYGaUE3Hu2+0e4KRFz60TKZCPQkgyZFi91/LqlhZSlSxkiJrvWxlIZEXM/SFkZz6Zzx94fFtsjJhUxF0JMykxaGylzBc383F/maMt1I2tSQUPEmp6aNG7FBJCyFQ9upa5NfXdJltUhZbKBQsr2OSFlMikzL1O3HyPSOZ+tR8TGmCFlObOp4TzSaNjYHrGxZYlTe8pypczHOBZFG1vuOHWa4yOPPBIdJSJiUUQkgEAyAaQsGRkZPAJjUiYRMlMUUiabUkgZUjY2U6bmhmx2XZ0KEYuTQ8rijJpPkbo/zHTIlawxEXM7XkPK3PqkUTRXzGIixkEdzU9lGrgCAkjZCgaxchdCEvaOd//o8OhHH90tabOfrUrZCy+8MFxzeNCWtP/S4UPKkDItKeOgjn2S/rJE6TWJlElJNZYuR8R8ybL/P7Y/bEkpGxM0c7qj+0kRsS3/laax6UtzVkwAKVvx4Cp2LXZQx33vuw8pOzgYzMMuUqY48SaK2vryxan9YRcuXDg+mXNqNLb8nJUrYi5PpKzOta5Sy5SImWPoY3KVs0fMNrx2pMwFlhINM/lYlqgy3SgEAlkEkLIsbJvIlHJQB1I2DAdImXp0cOpC26KUcVBH2a1XQ8SQsrIxqJY75aCOkDRNSZhUsiRSpvGeMh8qIlZtmlERBFQJIGWqOLsvzP8ekyzBMw+KSBlSZia/ZL5oXSRbkTJErGzGaIsYUlY2HrPmzl2WaCVLsj/MdKBUyuZ4TxkiNuvUonAIVCGAlFXB3HQlOSLmdggpO6JBpAwpM/NA44XeiFjZLXNOEUPKysZGPbf0xMSxiqUi5ubPkTI3v9Z7ylJEjIM61KceBUJAnQBSpo60+QKlyxKlHUHKkDINEZHON5tuTZGyVAnjoI792VJLwvw5yp6y1KtWKX0sIhaTJl/EYun9ZkvS5+xBk7ynLFfEtryBVGnaUQwEZieAlM2OuIkKtEXM7dTapOwVr3jFcOONNw433HDDcObMmeG6664brr322uH666/fHeQx9iFSRqTMzA2poCJiZbfGpUTMbTVSVjaGSbl9ETOZf/6DH9yV4b/IObZHzI9USSTLbWzN95T57xPjxMSkaUNiCHRFACnrariSGjuniG1NyoyYnT59Gik7HPiWjuY3r2AwJw1aGbIRpFp721JZpIpY6ILf8h+8WxAxpCzpa0gvsflCM6ck+se6+zUYQau5R0yy/FEqfTZSlhINM/3nxES9eUZJEFiSAFK2JP2yumOHS5nSazycbiFShpSdzNVUESmb5eO5e1m+iIiVzYDWRAwpKxvP7NxWyn77k5/cK8MVmJ88FDIbPTOJ/AjaWOVSabL5JSLm1iUp3wiZ/cSiYYhY9jQiIwSaJoCUNT08k40z31Fj7yOqIWO2cUjZEQmWL9b5I4A771qOlD31zLO7provVE+52xARS6G1TFqWL1bkPiZlbhNcQXvgsceGh++55/jXU4ImkaacPWKuxIUO90gRMQ7qqDjZqAoCCxFAyhYCX1BtKEJmHgDNw1/t5VumG0gZUibdR1Uw7a/K2nqkbKqvHNSxT6flaNjUOCJlmld0pCwrZSaZHy0LZfX3YvlpXEmL7UEzeV2pkkicW5+bPlfEtvxXmorTjKogsCgBpGxR/OLKx0TMvB/MfB796KNImcfCh+vuPbr33nuHU6dO7Q70uPXWW3f/nD17dvdP6KAPli+e0GT54hELf1miO79CFzYitg4Rc3uBlIm/wsoTupGy73/nO48LnBI0k87+fmqZo9mrZqRLuiwxRcpcCTONji1NZH9Y+VyhBAj0SgApa3fkYgd12AgVUjYMj3/68d0LrF0WSNk8c3vLUja2P2xsGXFoBLb8B+9eI2L+ONp7M1I2zz0mWOrY8kVX0ExGV9JcKXMLzV3maMuISVlKNMyUiYhVnEhUBYGGCSBlbQ1OyouckbKTsSuVsltuuWW46aabiJQJLoetSRkHdQgmxUSStYmY6eoTTzyx6zFSVjY3knJL9pSZAqckLVShZJmjK1nu6Y5ueYhY0nCSGAIQCBBAypafFiki5rYWKUPKltrLZcj7h2yYn9U+YGaugz4QsbL74ppFzCWDlJXNk6TcUilzC5Uuc7R5TPrQkfvWwk26sWOPY8sSTV4iYklDTmIIbI4AUlZ/yGPLEqUtQsrKpOzlL3/57uXQZj8ZkTLprFvve8rcCKCcxknKLS9LNBTWIGL+vdl9Fg/NCaQs50rJzJMrZXY5oySC5kfNYhPAnzC+mHFiYuZgkw0CGyWAlNUZeC0Rc1uLlCFlRMryXx6dGg3joI79e+UaJMwPfMSewf1vC6SszvfnrpZSKfObaiXNjYylTgC/TP+Lfut/qak4PagKAqsggJTNN4xziBhSFh6vnD1lRMry5n7Pe8pSRSxEaMvPWYjY/oxAyvLuIVm5tKXMNiK0pyxVzkJf9lu+UWQNMJkgAIEBKcubBPYe7N+75xYxpAwpa2EvlxmFFtoh2VOGiOXd42wuRGycH1JWNreScqe+p8wUPnb6oluxkbLz58/vteXSpUvH/z8maO6XPcsWk4aSxBCAwAgBpCx9aozt87Ul1TrsgOWLJ2NXEim77bbbhptvvlnt9EWzzO2bvumb1A+9aClC1bqUmZep248Rt5zPlv/QjYjJZgxSJuOkkqr0PWVjjQhJmZvWFbRQGRzwoTK8FAIBCBwSQMrSp8GUlNUSMtNqpAwpY09ZeE9Z+lV9lAMRyyXXRr7UgzpKW42UlRJMyK/5njK32piU2bRGzi5fvrz733Pnzg133nnn7r+fPIy02Q+CljCgJIUABK4igJTJJkVIxN7x7h8dHv3oo7tlXMf37d+/IitQIRVShpQhZXIp46CO/ZsO0bDymzBSVs5QXIJ0T5nklEVNKXPLcgXN/DwmaZzOKB5+EkJgEwQkUnb69OlNsPA7ObY/LCRDSNl92YJqeN791ruL5lju8sUbb7xxdyQ+yxfl+JdcRjm2P+zChQuDEdSQePk9IxomH+tWU7r35tQzGTT7hJRp0oyUJZUytxjJe8pKI2VTzSaKVnGCUBUEVkBgTMoQsZPB9ZckImX7E9/yyI0aImWyG8mSMuS2sHY7Ug7qGJMyREw2x1pO1YqIuYyQsoozJlfKYu8pm1PKxqJosQiayceLpitOLqqCQCMEXClDxI4GJbYvDClbh5Rde+21xy+PJlImvyHVkLIUERtrOSImH9NWU7YoYkjZQrOlVMr8ZrvvKfNPXwx1cWxPWQ4OljnmUCMPBNZPwEjZkss/liLsL02MiZgfKbjvffftfpQbHdLoN3vKTijmLF9EyvJm4VxShojljYfNtYY9YrUP6igjPgxEykoJJuTXljJbdUmkzMiVPfAjoStXJWWZYwk98kKgXwJr+OLOoa/5/jAiZfsj0OvyRamUmQiySWv+bZbHjX0ODg52v+dIfNkVmiphHNSxz3Ut9/LWo2FTsxkpk13rKqlqvqcs1GAbKTMnL059SiUNQVOZLhQCgWYJrOXLOxWwpoi5dSNlSFloLiJlsqW/lp3k/WGIGCKWet+vmR4pq0h7qfeUmS667yr7yYceGn7+cIlR6OP/TlPQTH2xvWic5lhxQlIVBBIIIGInsFKWJkoQI2VIGVI27F4FYU49NJ+po/lTI2IhtlvdH2aWl0s/rS9D7zkiNjYGSJl0diqkq/2esikRu/tQzMzn8cML9FUvva/M/L9ZCmk/2oJmyiWKpjCRKAIClQhsQcRCew5K9oflDA1ShpQhZdNShojJ7iwx6Xr44YejBT3wwAOTaZaUtTWKmAsbKYtOT70E0j1lue8pcyUs1GorYu7vfClzfzclaCadZhQtFkEz9XGao95cpCQIjBHYgojZvpt7sn0fkc9DOxo2NeOQMqQMKQtL2VPPPLtDI1maGGK4lYiYK2NWvGJylfotOFbu3JK2dhFDylJnolJ6qZS51cXeU+aK0wOPPTY8fM89x9lDEuZ3ZUrKTN32OH63HlOGdhSN0xyVJhnFQCCRwJYkzEUT2h/m/h4pe3T3IGz34CzBI/ckyqXeU8ZBH4k3n5eST52+OFXi1veHxUTswQcfHJ5//vndPy+88MLu388999xV/zz77LO7n5l/h/7527/9293PP//5zx8Ph5HdU6dO7f7fyp+WnPV2YmLerA/nIlKmSTNSVq6U+e8p+9jhhWY/vhwZEXvN4YX3xWuuGW2N+b39mLJ+7MMfPv5/W5f5gStlfmEsc6w4cagKAsoEELEToO9494/u/idXADSGhkjZPkVOXzzisYWDPvxlif6eMv/62rqIWR5GyNyliFaMjCwZRkbCrIiFpOyXf/mXR29d3/d937cnZ1bK3AxW0Pw25IrZlqJhU98ZSJnGN6qwjBIpm5IgPyIWkjJXxFxh8yNlqUsnTddZ5iicACSDwIIEELET+Dbq07IM2dYuEaFyJZVI2dXCbsfGFYh77713d8z9mTNnhltvvXWYenn01o/EZ39Y2RdBSMiMjLkS70vZz/3cz+1VOiVPriB9z/d8zxCSMluYkbNcMUPErp4HSFnZtZGUO1XKcpcmWikbEzG30bHli25aN4oW6rgROjeKZ9KwzDFpipAYAqoEELEjnGNig5TtTzdeHn3CI+fl0dddd91www03IGWBuxgiVnZrt/dy8xzpS9CHD1c7XXO4OsqXMrN80X40IlhveMMbgp1IETNEbHoeIGVl10lS7th7yvx9W37hsT1iroSZvFNLGG3ZMSnzlzNOSVpouSPLHJOmCIkhUEwAEZsWMRcwUoaUjV1wSNmV4nsRIlaGMHQvl0rZhz70ob3Kc6XMFOKKVEjMQlJm8tk6ETH5PEDK5KyKU4beUxbbH2YrHdsnFoqGxfaUuR1JkTIfgH8IydQeNJOXZY7FU4gCIHAVASTsBEnqUj+kDClDyuTvB5Pcft1DO2Lp2R+2T0hyL7eC40fL/OWLRsrOnz9/XIF7OndM0PyDNi5fvrwr59y5c4MvZa6QjZ32GKsvNk+29HukrOJo+8sXc/eJxZYl1pIyF13slEgfM6c5Vpx4VLU6ApIv79V1+rBDoRMTU0XM5YKUIWVLSZlZ6mj+MWIy9unhoI/UaBgili5ibg73NR5TB334UuaWERI0995qJcyfl76UuacxhuYwMpb+LYyUpTPLzhGSMnPyoVkiGBO0mIi5jVpCykz9NlImPSxk7Mh97X1opm28tDp72pKxEQKI2MlAlIgYUjY+odlTdsJm7uWLPUtZqoiFZtxW3h8W6nvJvTz0bsWQnJl63UjZ2FVvBW1MxNx8RsrGPh/5yEeOf2WXTiJl6Q8PSFk6s+wcU1LmFpp7wIctY2kp8wGNRdHGljuyzDF7ipFxZQRKvrx7QGHuiaEvbu2I2BgLImX7ZJCyNqXMtMpEzbT+GGF7OfV+ML8uRKzsjqp1L7dS5rbm4sWLx/9r3x8We3G0v7TRlbIp+XLrdUXM/TlSlj9XkLJ8dsk5pVI2JmihCkOHf8SkbOo9ZaYO971osRMX3TbF9pSZtNIomi2XZY7J04wMnRPQ+vJuHUMLL29GypCyseukpUjZUlKGiJXdRee4l4ekzLbSnMD48Y9/PNhoN5pmEkxJm00bSjMmYkhZ2Vwxuc3YImXlHMUljEmZK0KxwmLLHE3+kveU+eKkLWW+xLn/H6vLP3KfZY6x2cLveyEwx5d3632fkjLtiMAYC6QMKUPKwgd9PPXMs8PtZ05l3UZYmpiFTZQpJmVGzOw/p06d2u1bNP/87M/+rKj8UCKJiCFl6XhDB6ogZekcs3NMRcqkEaSxfVgPPPbY8PA99xy3zUTQJPvQYqcvpkpTTKx8KRs7cj9Ujh+JY5lj9lQk48IEtihhBnlIxN7x7h8dfvPXfmU3IrVfVIyUIWVIWVjKxrhwUMc+mdr38lwps3Lm//vlL3/57qXnb3vb2/Y6lipiSJnsoSJ2oApSJuOoksp/T5mRCnvQh19ByT6sUGPH3nEWk7LS95RNgZta7hjq/1R6ljmqTFEKmZFA7S/vGbuSVPTY/jBXiJCy1w/3ve++HddHP/roXoSiVtTQ1M2espOpvebli2PLEi9cuDC4+5OmLnSiYUm3QbXEmlL27ne/+7hdjz/++E7OjKS98Y1vHJAytSHb+2Nk7EAVpEyPe7Qk/z1l5h1lY1LmFiaNorl5JMscTfoUKYuJo2RPmd8vSWRNu/933nlndKxiCTjNMUaI3xsCiNjJPAgdHGBFBClDytw7hpXDXEE1+e9+691FN6EcKTt9+vRw/fXXD7feeutw8803DzfddNNw9uzZ4RWveMVw4403DjfccMNw5syZwaRLOX3RdKT0oI/Y/jCJkCFiRVNKJXOplN1///3H7fiN3/iNnYRZGUPKVIZoV0gsIjZWE1KmNwbRknIO+pgSIfO7mNT4+7D8ZY6mjFeNSEqKZKW+p8zUm1K+m15aly3fj6L5TEslDUGLTv1NJUDEjoY7FuEhUnZyWbS8jLL2klJDBSk7mhv2PWX2v2PXlH+jjYmY5MaMiEko1UuTI2W/8Au/cNzAX/qlXzr+g4D5wwBSpjd2uSLmtgAp0xuPaElaUqa1D8s02D8swxU0DWkydYyJY275LugpQcs5cl9T0Ew7H3nkkcl54f7VyiTc8hdg9AJqOAEidjQ4KQ+NSNnJhEbK9i/u3qXstttu20XJloiUIWJlXxSt38slUvarv/qrexB++qd/ek/E3H1lSFn+fAkd1JFf2lFOpKyUYEL+OaQsJigx8Zla5ihZWunXP3ZAh03nC2Us0icp36bxlzlOCaHNM9X/UkEzdRBFS7hAOkra+hf3XCg13x+GlCFlY/MUKXvpAe3w3WQmUrl7WBt5T1mqhHFQx/6s6+1ePiZl7l7A9773vbsTGN3TF2MHfbhyxp6y8W9QjWjY1PczUjbX00ug3LmlbEzQJHJi0ky9tNr8fmyZoytFMcnK2R+WUn5MUqeGu+YyR9MOomgVLz6Fqnr78lbo8q4ITRFz24SUIWVI2XXH0hViMbZ8EREru7v1fC93pcwVMbMn0D0OHykrmyNu7rlFzNRlX9iNlOmNW7QkjfeUxSJffiNs+tJ9WFPLHDWkSSKOuX03ZUv6n3LkPlG06HRfRYKev7xLBmAuEUPKwqPC8sV9Lj1HysxhHuagjzmWL5p3h5kP7w9Lv7ut5V7u3puNiLkfpCx9XozlqClipg1veMMbdk1ByvTGMFqS9nvKohW+JCN+9Ep7H5aNoJVIk0ScSst35dFlZ/lIj9znpdWSmddvmrV8eUu+bEyaJ554YpfUF7GU/WE5o02k7IQaUoaUha4hP1KWc51teZ/yWu7l/r3ZlzE7L5CynCvkJM9SIua2GikrG8Ok3HO+p2ysITGRKd2HlXKao99GzfeUhfof63tI0mLLL00eljkmTfsuEq/ly1sCOxQFs/nmFjG3fUgZUjY2X4mUHZHJlTJETHInbDuNe5+2fzizfzxDynTGbo6DOkIts0sTze9sRGysB0iZztiKSqn5njJXOCSioSUokmWOqW3L3YcmlbJQ383PYtxCR+4TRRNdCosn2pKEubCnhMykQ8pOHeNaikXuu7k0LipeHn1CMfc9ZXMuXzSt46CO/Zm+lnu5f292Rcy/hyNl+Xe7GtEw07oUEXN7g5Tlj21yTq2DPtyKpeIgbawrMhIZStmH5R8UkiNNpr+S/WGmv7nlSyUtVD6nOUpnWv10a/nyTiUXErF3vPtHd8W0IgC8PJqXR7vzmkjZEY2pSBnRsNQ7YXvpx6JhUy2VHIlvlzFy+uIRydZFDClb6NrUkrKS95TFuq65pDB2mqPGkfs5++PGGMQkzq8rlp5ljrHZNv/vEbETxjby0+L+JaQMKVuDlF1//fWD+Weugz4Qsfm/M+auIUfE3DYhZbIRqiFibjTMtCq2NFHSciJlEkpKaeaQMrdpIUGJiYPfNWl6abTKlu8LSsoyR1tGrG05++N8frHIo9sW+9/SPETRlC6kSDGI2BGgseV3SNnJBGqRRSvRS9sOu1xuieWcuSzMuN791ruLbjipyxff8573DKdPn0bKiqjvZ17LvbxUxJAy2aSqLWIaEub3DCmTjbVKqrmlbEzQzM+l4hATn5DE+T+bqkuyD2vsfWglbZP0P6d8fznlFGu3/ClBM2WUHrm/tZdWr+XLO/VGk3NiYosiQqSMSJk793tcvoiUpd69wunXci/XFDGkLDxXWjyoo/QqQMpKCSbk7+k9ZdJuhUQmdUlhbJmjxpH7ksherpRNiaq/1DQkh7Eooqagmbau4aXVa/nill5nNp3G+8OQMiJlY/OOgz5OyMwZKTNLHK+99trhuuvSXh69xuWLa7mXSw/qSL3n++m3vnyxRjTMMM89qKN0fJGyUoIJ+aciZZJDNUxVGuIwVZdG+S6S0n1YOcscbf1jfRnrv3bf7Xi5PCQRO5Y5rvsvqAm3jF1SDRFz60TKkDKkLH4VImVxRrkp1ihiY6cl5jIay7dFKVu7iLljjZRpXzET5VkpM0nMw7l5+B477GIsstOKOMTEJ4RBKp5u3qko2tgyx9S2SaJoY/2RSJbbnhRBM+362IMPHmfxBdX8QjOKFougmfruv//+4/bU+KvtWr68U28z2iKGlIVHoEVBzd1HlTrHQumJlJ1QQco0ZtRJGWu5l8+1LFFKeytSVkPE5jioQzqOY+mQslKCCfndSJl94JacQJgjM6liEhIHiXCUSKJEhsb2YUleWp3TtlRpkjAaG4tY//32b2WZ41q+vMduDeY+EPqr6pwihpQhZZKvKqQMKZPME2matdzLlxYxl/eapay2iM1xUIf02kDKSkkp5Nc66KOWOEhkMEd8QiKTGhmMCYqJopW2Ldb/0vLdcQz1P1b+mpY5ruXLe+o2EZIuP32NE+5ajA5x0AcHfYT+cJAbNSw5fdFEyEKf28+cvFjc/t6+xPfixYuDe9DHLbfcMtx8883DTTfdNJw9e3Z4xSteMdx4442DebH0mTNndic0rnVP2Vru5S2J2JqlDBHbv9sQKVOQLWkRWlLWy3vKQlxiomHyxGQoVG7JMkdpVDF1f5zfTknfNfrfyzLHtXx5p1z/Y2lryJitGyk7GYUWWeSKiHQeTqXbaqRsTMQMq5CMpUqZETIjZmuVsjXcy2sd1FF6nfYeKVvjiYmlY+rmR8o0aUbKmkPKxqIt5uf2uPaSJXZjXYotvZvKl9oet6xYXn8fVqgdGkfu5/RfKmW+JErrsuXHooia+9BMW2N70dx9aCZ9rQ3RFS/tyapCEbKnnnl272EPKfuVHcPa78RCyvan7lakbErCQiJm56V/ofuRMhMBM+8q8yNla5OyNUiYGctWo2FTXyg9SlmNaJhhttSJiZrPGkiZJs2FpcyvXvow74tdTHymRNDKoKaUlUYGp5b5uYKmIU1T/c8tkpMmvwAAIABJREFUf4y3P05j5be8zHGtgjYmYve9777dcLYWDbFzbCk5ZPkiyxfd+9wc7ynLjYb532XmgKMPfvCDux9vScoQsYoPixNV9SRlthuXL1+eBV6LB3WUdhQpKyWYkH8sUmaLkMhQ7oO9VNByyy8VhxyJCy1zjLV/apmj5NAVicCm7o/L6bvJ4/c/JsTm9y2/tHrs8ItexC12UAdRmf2Z7vJAypCyOaRMQ8RCp8yGpOxHfuRHdlGyqUiZ2U9mljD2sqcMEUt4wKuUtCcpm0PG1hANm5oqSFmlC8lUE1u+KBGnmHT43Qmln9qzpVH+lKBply+VwdAw+8v8/DQaR+7n7I+z7chhlSL4rS9zHLs0W5I0X8SmIk1IGVI2Nqdbnhu1l5QaRiWRMpN37DO1P8zNE3vdx5qlDBGr+FCYUdUWpWztIuZOA6Qs46LIzcJ7yt65h661yKB0maOGNJkyYv3PkTJbpkQG/fKXXObo7zszfHz5CkWilhC0FBFzJ3zLD962nSxfPDlhbykWrS1t7UHKaoiYey2nSJk54MP+02qkbA0i1stBHbnPjzbfVqRsSyKGlJVeFZn5eU/Z0ZK7kDiMCUqJmLjy5A6Zv0ctVLfkNMfStsUio6Xlu30O1TVVfs1ljm47pZJljp9+8vDl6zl5Uy/f2LJEaXlI2T4pli+e8Gh5brQoZVMSZqj6EbHQQR2xaNjUdd27lK1Bwsz49HhQh/T7YizdmqVsqyKGlJVeFZn5Y8sXJcVKIiD+w3gsIjOWXlKXljjU2odl+irpl8ukdJmjK4dT8umLoxZbf17FZNBPr7nM0Rcp82Ck8YCgHUXTEjGXZcsP3radS0WH2FPGnrLQteJHDc2ppWOfuUXMrbdHKdO4z0qeUeZOs0URc5muScrWeFBH6fxn+WIpwYT8WlJWehrhVJOnRCA12hKqRyIaqdJUKqE2v0ReTds+9uCDx1X67wSb2ocm6bsrcCntsrIp6UOoDkldtv0pyxx9CTP1SKNhCZfWXtJcQZtDxJCy8VEkUnbCpmVhbylS5kqZ1v6wnPtML1KGiOWMbtt5epcyomHT8wspq3j9zSFlvpC4/7/V95SlionWPqwHHntsePiee46HwBe0FClzJUsa2cotf2wOSY7cjy1ztGXPLWJjl3FomePUJT9npKjlB2/LZM7++9yRMqQsdC3apYnm9RF+pEz6dV2yNFFSR8tShohJRrDfND1KGSImn29ImZxVccq5pcxvoPRh3n8oT5Uav96p/KXiEOtTafkxQZHuwwpNFo0j96eiiJp9t1Jo+xET/NASTz+KuJSYuWMRioaZ39eQEaRs/6pAypAyS6D2QR2lX+ZTUmaOu7/55pt3/9x0003Hh3yYwz7mOugDESsd0X7y9yRlluob3vCGfgAv3FKkrOIA8J6y/YM+JOilyylNWTFxCNUnFZmYDIbKTj3NMSTVMUGutdRzqp7Ynjvbr5alrIaYIWVI2dg9r+W5McfyxdSDOkLc5o6GTX0/jUmZETLznrK5pWyNEmZ4t/AdIXkuWTJNT1KGjKXPFKQsnVl2jlikTPLgL5UI28hQ+lajLSXSZPJK+OWIj5vHZ2dlcGxShPZh+cscTd7QXrScsbbtiMmc5SVJF5pLlsPU/rpWZGwsOmba9/DDD++a+cADDxwP4VxRs5YfvG3n5+p76PogUnZCpeW5oSVlqSKmfWJi9hd3IONSUrYGadn6QR2l8xApKyXYdn6krOL48J6ytt9TJpkKMclN3Ydl6hw7LCRHykr2x8X6LxHMuw9PUzSfr3ziE1cdWW9+XuuhIiRi9i/r5oHK/gXv85///K69Vs6soM0hJy0/eCNlw1X7l+aYA2PXWMtzo0TKeluWGLsH2t+HpOy9733vLko2Z6Ss1v1TykGaDhGTkoqnQ8rijHpOoSZl5kbEZ5oA7ynr5z1lYyMZEyU/WhdLb+opXeZo2ypd6umKmzRSNtVGs1fui9dcs4fMSJn/mfskRl/ExpY3+VJmBM3ImR81034ob/nBGylDyswcCM3RVClbq4i59zOkLP60N7eI2fJ7FdU4wXAKpCyXXB/5sqUMCUsf4NjyRUmJqXuIJFLg1uuml9RVUr5fr/1/ycudc6XJ5JP0q6R8V5LcciQCNPXSalOWxpH70mWeUyJmI2KmTa95/nmRlLkstARNKmL+A1UsUmbSI2WSO1J+GpYvnrBrWdglUrYFEUPK4td6LREzLTEyNnd98R7XT4GU1Wdes8YkKUPEyoZGS8p4T9n4OORIYkgGNaTMCmBoSeHUS6Tt72IvbdY4ct/tp7s/LNR/V8Tc31spM/+2n//zk58UXywpgja1LFFSof0Lt5v2zjvv3Ftq+dxzzw0ve9nLkDIJ0II0SFm/Uram/WE5U5hI2RE1/348R9RqTLzcn1++fHkwx67PUX/O/NDO43O+cOFCsIprDlesuP+cOnVquO666yb/efnLXz5ce+21g/vvN77xjcNHPvKR7G586EMf2uXloI90hFEpQ8TSoY7lmEPK3LpCEaAcSZFEdKTRFp9FTnvcMmJtyym/xj6sEAf7M2lkMLbMMafvUwd1jEmYL2T2/90ljKHli1NXUkjMJFee5AQ2V8T8vWO2DhsNMP9+/lAukTIJ/bI0SFlfUua+uDk08v7LnFs+qKNs5g5D6I87W9lTViM6JRUxdxzXJmW+dNq+mn4iZaVXcLv5g1KGiM0zYHNLmfTBf6p3OQ/2fnlbfU9ZiKuEZ85yypJljpJliaElibZ/bkTMiFjO8kWfVYqUWbF69tlngw9HftkmEvbDP/zDux+7pyyah0b3c3BwMCBlV+a5+QVKRcr6ljJfwsYmjuQPJ9UmXWFFb3vb24bv/u7vPi7FRmjMD9YsZa2K2NqkbEzE/H4iZYUXcsPZj6UMEZt/lMakzNYciwKZdJKHfLcnNr00spVbvl/nWJ80yrdlExk8mg/+ssPQaY5TEheKiPmi5YuYO94lUhaSMfMX+dADn/0iunjxYvbF6osYUvboHmvtfXRTA4WU9SdlWxQxM0qujBkR8x+S55SypZbkLSVi/lI9n3fonmKiR+azFKvsL6TDjBIRQ8pKCPeV9+DKlSv7fy7uq/1dtTYWKZOIk4bUTEVmNMqfEjTt8qUyODZRctrjl9VaZDAUCTP7z9yfx5YmuhJm+uufrlgiZb6Ifdebv3d4/NOPD/e9775dsY9+dF8UbF2ulN17772DWS9/5syZ4dZbb939c/bs2eN/zM/NPzfccMPxenrzYlekLHzCnmWMlJ06ntpLsfDnf412jO0RMxIWWoYYup+uKSJmRcz820bGxuTACoGNlJn7zE033bR7gbT59yte8Yrjf+w9yaQx+3jMfp/QPekP//APF3m2mVvExvagpYqJgWO5W1A9CVlOf20/t7h80b66xjBY+z61g8MbwrGU9TSpF7ljFVZqpcwUYx7kzUOyOU489FA/Jmg5EhGLwOUsn7MoUtqTU09K+aZNRAb3J+lcIpYiZaFomBEx94OULbNscAkBsONOpOzkClji9EXpiYljUrY2CbOjEVqiOPbV74qBkTIjW2bVUY6ULSFiLR3UIXm8cnlbSTY/O3/+/HDp0qW9Ilp6ns2J/k3Nua0tX7RStnYhM2O+FymrcYFKLry1pnEjZXbZ2ZiUuQxyZCZHmqzU2LwxmXMlSDpmrmQRGbyaWoqESviZGqz8h6JdY8sSp/aU+a0OpX388AXN/scXMaRsm1EZpOzq676GlG39xMSp7ygjYuYTi4qZNK4YfO5zn9vL59bx0Y9+VBQpqy0Pc0fDDIOcgzqmJMT+LhSttFLm53clrTZjn4FkCab0GWqLkTIpmzWkG12+eP/99+/95WGJSb0GwG4fYssXJf1NFbSUh3xfsiR1lZTv9pfI4BGNXJ5TY+VL2dT+MDsmOVKWKmJIGVJml6z+5q/9ym46SN6JJblPStPUkCFJW+ZqhzQaNtXGtUbETJ9zomJWxGLj6h4IsvTzU08i5i9LjAnNmJS541NL0EqWJcbmk/39VqXMRMs2FymbmhQ1LmrppOw1nZaU8Z6y8RmQIzW2tLVEBq3c2X6Zg0BMRNZ+pvaHpUpZSMTe9d//D8OVf/pPky7TlpYvvvDCC7t3vWjv5ZnrwTsJ9GHiFtuBlL1+dE9l6jxExOJXxNTBHX5uKwlSGQvV7gqa+X0NSavxzBaqI2epXmhZYnwUj1JIpGxM0DTGopaIuX3Y0vJFdz+ZYbB2Mcs66INljtLbxX66OaTMrYHTCPMjTb7ImP8f2+snkTc7LmOSOBbZypHKWHumli+OzeSpSJkvYkbCzOdL33TNcXFf/Z1PJV0kSBl7ysyEIVJ29UE3EilDxOK3m9IlivEaZCl+6qd+arZVSHOL2FwHdcSiYVNkU6XMLysnilZbxFwRMZKyJSkz47WVKJnpa5aUuZOaZY6yG7FJNbeU+S2R7jnyxS72kD8lgmMyE5OUMYq+pMT6pCk1obo0yx/jmMo/ll5DyqZE7NUvPL8nZKZfSNnVM7rFCBUHfehFqOTfBDpzAxGTEZ9ziaKsBdOpSpY51vgDec39YTk8S6XMrXPssJCc6F9uX2y+sYjQFqUsh2WveYqlzO94jZtEr7DHpMz2J/ZwbdLlSkFMZrSkybZxrE+57Q+N+VKRwZh4akpubE5IeMakzBcuc1z+2LJE0zc3Imb+HymT3ZGQsn1OnL54wkMyNzioQ3admVStRMXkLT5KKVnmOHc0zLSjdRFzuWpKmT9eVtJKInmxOeAu3ZQszduilG3qSPw531NGFG3/coxFyiTiJHkIj0nB1KEQGuX79buCpl3+VF2xm6EVyJj4hHhKxqqkfFtn7LAVCc9UKXP7G1qa6HNFyiQzrc29XETK2o+UmZephz5bfZHz1NXWelRMdqc4SuUvc7R559qPpiViqQd1pDDxZcz9f3MsvvbHSJm2kPl8JCLm9mtrUrYlITPjrB4pm7ooavyFR/ui1CzPfU+ZKdcewMB7ysYpS6QjJk3m92PilVu+X6f9f78ejfKn6pKUPyVloYiYqc/u7fmPH/r56CWAlEUR7RJIoiGykspStdgODvoYl0NXyhCxq+d+SlTM5NY4uKPsCpTldqNm5pCRkmWOYzW2cFCHjMZRqqkDQXzZ0ZA0LSlLjYZNMdmalKXMjzWkrSplLrAtLnOMRcrGJlQsWjI1ESUP7VLBCNWTU74VF0m0qaR8Sb+0yrd1+WNlfp4TiZPcXCT8TDm+lPkiZh76xo4mR8okIyFL06IMESlrP1Imm13DsOaj60MMcqJippySUxSlY5GbzhexsXIkyxxzRUwaGSo5MVHKJyXq5ouPG2HJFbQSKdMUMZfXVqVsK4d9LCZl7iTbyjLHXCkbkwvJA3+JdEhksKT8JaTJ1Cnp15Qgp0qWLUuSL5fnVJ+MlPkfd1nib/z4jyNlh4AODg52EUKOxJc+MpWl2/qeMg7qyJs/tY+zz2ulLJcvVznCKDnN0f0jeOiF162KWKxdUvHxj1WXSlqqlEnbI5sd4VRbkzI7dl/9iy8Pt37zqzgSv2Ty5OZd6zJHLSnjPWXjMytHatzSYuKUU/4SkcGYiLl91pIys4zRfnhP2dVzlEjZPpOtSVnqQR2hu9zWomGWQcoSRffBOEdycp9bpPmk0TBpeX46X/TM710O9vcx4bHl1o6IxdqlIT7SKJpEyjTakzLWW5Myw8aOV+r+uxSuraRtIlI2BWNNyxznkDKX3VKnEcZExm9javpa0mTqiS0JLJGy2FjZ+lP52PQhEfv33vy9w5Offnz4yV/4H686NdG2p0TKXBFr9T1lp0+fHq699trh+uuv30XCxj5Eygb1F2ZP3du3IGWpImb3crrctipihkHOEsUtipg7X8akTypjKUsGSx5kU2RvTvGZErQxKZuzPTGmW5SyGJM1/b55KXNh977McW4p8ydmTDBCEzlHOvxypqQip/yxyKCpd86DNUL8Sts/dvPIGStT1piIufVoS5kvYq0f9IGU7c+6FiN2azrog2WJZY9Ia4mKzR0R8ynb+kJRMZN2KgKVIkglo5tSzxLi4y9ztNxKT0wsYebn3aKUbekExq6kzJ+cvS1z5D1l+e9Zk8pMDWkKyeBU+1IjX25Zoby+iJlo2NRHQ8rGImKmXqRM9pXbogz9/+2dO4xmR5XHb894esbTz5meYDdhIyIEZARISBB4V7YInBCM1jbGWCuNhcDiIQcwQmicWNauhGR5JMvJkrQFkoXYla1ltAkBcoIHZ6REjpbIiMd4mp1zh+o+XV2PU89bVff/SZ/m8dWtx//Uvf39+pw6B4k+8iT6AIjJ7gFXqxG8YrVBjPR0wVhPINYS+Kh92mLY3BqhLP3p0k8PXUMZl7mHMEefp0ziLckBHa6kEDn653ZpMRuhPr9QaKL2ElvROKl6qnGofAJ/KRD75yeemH75zjvFoGyEOmXwlJ3eHi3CYY+eMoBY+hedEK8YjdZiOvslQYw0CU3coTQkYKO/+85whVo5JPxxCW9Y6Hpaaw8oa80ieeczDJRxWVoNc1x7nTIFKcpWEhiKhRpphsXY/m3gmSuc0haWSBCmXgRjpaFshJT4gDJAme3HZgig4nxYvi8fMV4xDiD5ZhLeU46MieGjPrwi1ivGgZZDWC4oaz0sMVbvFq8DlLVolXxzGhLKdHlaCnO8/YtfHJ+DUvWjfHAiBQzTtoiBDt6PZG6+NjrALJGN0ObZitHHd2ZOt4OtvQm89GtdoYk6oNkeC67wRQo9fPXb3+k6Jf61a9emq1evTnt7e8fv7e3tid5bW1sToAxQFgtlALF8Xzaop17T2S/hDVPKm8bm/5cSopgCZQCxvPeGtDdAmVSpPtutAsq4aVoKc9TDGSVbKBTQUqHDF6aX2r9as21dufrXwTAEPG1QGWovHc5cUOY7J6bGVp4yDmj0GQ9p1KFMPx+Wkn2Rxlr6TBmgTLITT9qEeIfCeg5r3Xr2RSqqrr/+cfuCaJFrzpioCxQSothSOvslQYw0zO0VM23cUCgDiIlu/6KNAGVF5V2889VBGVd86TDHWCgbvU4Z2cgHg7Y7JwbiQgAtpn/dM6ifD3vymecnlXBBpcQOhTJdDw5p5AmjlPjqxVPX0//lgrIl6pTt7OxMBwcH8JQF/CgBlMkAVUEZQCxgc7GmMSGKS6ezbwXESMbQ2mIhwKTMJIEyab8tJuqI27ltXwUoa9s+qbNbNZTp4tUOc8wBZXwNJm9TCkS4Nleox071FTOfWtAkgcGY+ROU6V4xSqDBwwZzQxnXLEf2RdteWLpOGaAs/EcAoOyhZqbQRCmAKdXhETu9/3r0ii0NYqRgjnT2MQk7TFCGRB3hz9SaVwDKaqpdfyxAmUXzGmGOuaFMX0qMtykWOqRjxfbPoc4Faan92yCXe7skZ+ik9cNuvHBjHrInKGupThmgLPyHxpqhLDVjIiDMvN968ootmahDVy82RFHqvfI9HRSUhfSHjIk+Vct+Digrq+/SvQPKBBYoFeaoZ2OUfNmPhQ6pZyu2fx/McKiSrFPaXofBHPM3bQmJfiYQI4+YLWU9ebBsUKZS0fvS3dfKvthqnTJAmeABpjVZE5QhUUf4/gi5opfEHS14w5SuORJ3xHjFdLsCxEJ2ejttAWXt2KLETABlEarmCnPUPWUSb1Mu6GgxG6ENhqQQJ9HP5E2U9k/XKv3VWPr5MGrDz4O5oMkFZbwOGZ+zDmmloaz1OmUloIzO9Z07d2668977EU8H+yUtwtCIxaNTvWFkQXjE7Ps4xitGvdU+L9YSiNH6Y71idC2vLZb6UJL2BY9YqtJlrgeUldG1lV4BZYmWSAlzdIUvrjEbYSqUmaBJ9WkDrxjINYGYzbOVCmW6JqhTNk2Hh4fTV7/61enChQuTFMouXbo0p8Yn4LK9NjY25s8BZYkPReHlObMvAsSEoic068Er1iqI6VCq5pmSzj7UlD4YQ6KOUEWXaQ8oW0b3WqMCyjIqHRrmGHKmLMYLxCFFukxJmB7vKwZqeqxTpocm2rIj6qnpSauY8EVJ9kXUKQOUSe9r3q5Fj93Pf/LmPEWVfVTipQSIxVg/7JoeEne0BmKk8FKJO3Tr+kIU4Q0Lux9aaA0oa8EK5eYAKCun7eQLcwyBMjXNmtCkoE6NbfI2pUCZDnf836GJNbg+vnBEqYYmEJOEC/J1uMBJEr7o255rrlO2ubk5F4iWpMSHp+xkJ/UMZQAx3xMhz+cxIYq1whNbStTB1bbBYWteMYBYnntkqV4AZUspX2dcQFkdnU8BGg159+7d+f/+7Uc/mnwQocOLrU4ZtdP7ygVNNkDL2b8N0lL0sZmXAxfZgF6+82HUJgbKlKdMB7ScUKavcw11ygBlcQ+vnqAMiTribBxzVctesRa9YUrjHrxiALGYO6LNawBlbdol16wAZbmUDOiHhzmmQpk+bEvZCE2SxEAc78cHaJL+TVkS+RiuzIcpUMbHoH5Qp+xEkf81ZKLU98/169fn/1JnygBlAQ8d1rQHKFOFm/UVSuuIIVGHfG+06hVrGcRI3dYTdwDE5PdATy0BZT1ZK3yugLJwzbJdkcNT5ppMzDk0CdTwMfVshPSZC5xi+1dj+kIPJf27oEzPnKjG5d4uX5p6Hb5KnSmjcSSQmLt4dCt1ygBlcY+i3qAMIBZnZ99VLSbu6AXESFsVrsnnXCtxh+msGBJ1+Hb8GJ8Dysawo20VgLIF7Ys6ZX7xfZAl9QzqIPbkM8/Pg+spwaUJPKRgFpt9EXXKLpzZHPCU+e8XSYseoEyyDmoDj5hUqYftWgxRbB3ESLdWvWLwhoXt/xFaA8pGsKJ9DYCyBe2LOmV+8X1QxnvQAc2WMdF0lkv148t6aEqs4QK0WChDnTJAmf/uiGuxJJTZzogpb5jKvuhaGUAs3O4thSi2mqhDV7XVxB0AsfD9P9IVgLKRrHl2LYCyBe2LOmVve9UPgTJTWKLJ45QDyvjEXRkWU6FMFwh1ynCmzHvTeBrUhDIk6ki1Vvz1LXnFevCGKaVbTNzBd8FnPvOZ+E2BK7tXAFDWvQmdCwCULWjfkDNlMefDaGkhUKPac0lyJNbQvVk565SZQMzk7dKzEd544cY8LWn4olqD7wwX6pQ9VOr//vu/gu4sJPp4P0ivlMaloQwglmKd9Gtb8Yr1BGKkemyIoq8WWKhF9bNhdD1ALFTFcdsDysa1La0MULagfUOgTE3Tl+hCX04MlNlS7rdSp8wFYj5oIn1ye8pcWwh1ymQ3GKCsbyhD/TDZPi/VKsQrRnNQX/xz1xbrFcRIk9jEHa7kHlJ7A8SkSqEdoGzMPUB2BZQtbNtYKFtjnTLb+TDdhC1CGeqU+W80QFl/UAYQ8+/r0i1ivGIcQHLMrzcQozXHesU40JaAMXjEcuzIsfsAlI1jXwVitCJ178NTtqB9c0CZPn1pNkLbsqWetVCPnRpP2j+110GMzof5sh6mQpk6g0bjm8aS9M+1tbVHnbLTOzAGyi5evDhtbW1NBwcH09WrV6e9vb3j9/b29kRv+vzRRx+dLl26NP9JiSRsr42Njflzep87d266815eUCodNih9lKXMAyBmV/kHP/iB1ATidrakJkuns+8ZxDiULp3OHhAmvhXQ8O8KAMr63gomEOMrApQtaN8SUMaXE3MOLQSaaKycdcpsiTo4HOlntnRwkkCTNHzRFHoo6V8CZdTGNA+Vfc6XBVKNIZnPqHXKAGVxD68QKMP5MLPGJgB75ZVXjhu/9NJLccZ5cJW0H2lNrBwhir1kTDSJ3oJXDBkTo28HXKgpACjra0twCKOZ+34RAyhb0L5rq1PmKtrMzaAXcPalnFfXUjsppIQm+vDBoG0bxWZfRJ0yf0p8QFncw8sHZQCxs7rqEKbAyQVfv/vd76Z79+5Nf/nLX6a//vWv85v+rt5//vOf57+rP//0pz9NNm+bDdR0MMt5VqxHb5iyXAvp7AFicc8nXOVWAFDW/g7xecNcKwCULWjftdUpe+OHP5yoAPDh4eEZ1V1Fm30hi9xrxAHNZlqpp8x0PeqUnVXln47uT78/d/7UBzWyL0qgjEIYKXQR4Ysn5nFB2Ycf3TtjYFVDzPeoHLF+mIIkl/fqj3/84wxfH3/88fyn/g6BMgI09VbwRv3pz0wbFKZ6xXoGMdqfS6ezB4j5nhL4PFUBQFmqgmWuTwExPiNAWRn7iHpdU50y3UtGX/74l70cUEaim6CJ/p+DXQ4o4wZGnTJAmeSG93moJH3kaCOBsjWDGGmswxj3iB0dHR2fPbx///4xjEmg7Itf/OJswp/97GfHHjLuKdOhjP5N/fIXBzQdFmOgrHcQ88GYNMwzJnGHnjXRF5qU4/5FH+tWAFDWjv1zgRigrBGbhpwpizkfRsuMOSPG5UmpU2YCsZiwQamnjEOZbmLUKfv3M94s0oi8XK9++zuTssvPf/LmLJ062/aFl1/13i3wlHklmhu0AGU8NJFsrtfpk6xkRI8YXzcBmc0zphLBqD8lUPbpT3/6uPu7d+9O9Nznr9dee20OY6TwRQmU6YBmmqsPzkYCMdKjZjp7eMMkTwm0KaUAoKyUsrJ+S4AYoEymffFWIVCmJhOa9TAGymLrlPkKObs8VDzrIa2Vp5HPAWXcmLk9Za6NgjplstuoVPZFCl+krIsU6rjW7IshGRMVjHOrjQ5hEiBTukih7BOf+MQpEHPdBTqkffe73z3lRdM9ZXpf5Dnzecx6TtShr3eJxB0AMdlzHK3KKwAoK68xHyE0UUfq7BC+mKpgwvWxUNZSnTIfiMXCkAtmfBDkg7jaUIY6Zf6bJCeU7e7uTjs7O3NK/Bgoo9lSevxeU+IjUYd/v9lamLxklKDjwoUL855wQdn+/r4YxKSQ9vTTT58JXzRBGf2fK/mIz3MWr1idK02evdLp7AFidWyLUcIUAJSF6RXTurQ3zDUnQFmMxTI1dpRWAAAZ+0lEQVRdkwPK9KnUqFMWAmKxUKauC816mJp9EXXKwsIXKXRRvXiyjyUTfawRykK8YbbH15o8YiYNbEk9OJTRdaYzZVQPj78oTDHmpXvNQqBMH693EKP11PaKAcRidi2uqakAoKyM2kuCGF8RoKyMfUW9loAyPnDMOTRbuKMNxEKyEcZ4qHTI8kFaKpTp6fiVniXCKVGn7GS3pnjKrl27Nl25cuW4cPRaoAwgJnrMihsRlFGiBvrhrIcD8rBOG5Q99thjx2PduXNHDGkcxHiyCQKEUCi7devWPO7NmzePz1mJBWikYc109kjU0YjRMQ2xAoAysVTehq2AGKDMa6o6DVqvU6aDmClDogmCbKGHOaBMt4w+Vk4o42P5YNC2Y1LrlFG/vjptknDN7/2HOdEH9f/TF1/0JvqwecTo+qUSfVCa+8uXL09rgjKAWLlns4IyGoGDmV6LTAJl+iw5pOnJPmxZ/1xQpqfIVzCmxu0Rymqls4c3rNw9hJ7LKwAoS9O4RRADlKXZNPvVjz/77NynxLOVmrhDTd40VkxYog+CUrMe+vq3gZMLVGLgUI0T4hmka2KhzOex0+fj2pS03lgoU+Gceh0yPh6gTPZIiM2+CBCT6ZvaikOZDmb0bwVnMVDG50aAJkm/zqFMhzCq96he9FnPUBYbosjhyqcnQCz17sD1rSgAKAuzRO1EHWGzO9sa4YupCha4niDNlmUxFso4cP3DZz97POsYENNByOepUe1jYCgEyjgEuTxbMfNwQRDqlC1Tp4w8ZXSW5+DgYKjwRSTqKPBQFXSpQ5kCM/rTVzya9iEPX3QNFwJlqh8OYXrfPUJZjsQdADHBpkaT4RQAlPlN2ro3zLUCQJnfvou2CPGimSaqIM4EX7y98syEhumFQFMMDIX0z6FM1yLVY+eCMh1S9bFt0Jp6pkxqK5enrOc6ZSNBGRVTt73WXsi51gPYBGVqbP23ra5Mh3y+JlBzQZl+xkl6pqwXT1msV4w0VdpIi0GjkHOtOwfj1FQAUGZWu2cQ4ysClNW8mxLHcnnQbF1LoEwPleMQ4UtNHwJNqFP2zikzpUKZDqGus3w8fFE/HyY5U+baukuGL47iKdOhDCCW+LCMuNwFZao7SotP79/+9rfGEVweNcmUYhN9tAxlJRN3IFGHZFehzUgKAMpOrDkKiAHKBrlDfZCme8eefOb5eeW3X7890Zc+lVHMBWVcKtOX/lxQpicR8cGgzYSS+cR47NR4kv51zUx1yqjNq9/+znGCDZdNXNvVNh/dM0hQpl76+bBcUMZh7/13TgOo75aLyb44mqcMIObbJWU/D4EyBWf05/nz56dHHnlkfv/qV7+KmqTJ+xOSfbFFKCuVuAPnw6K2GC4aRIG1Q9mIIAYoG+Tm5MtQYY46iFGiBoICqVdGCh3S0Dk+xxgYCh1HMn+px84Udijp3wZl+raT2iQGynTdYxN9fOHlV513y5J1ynqBMtsZMSmEkQHWXkOsxiM7B5RxQKO/q/fbb799agkcoihT4ihQVsorBhCrcQdgjB4UWCOUjQ5igLIe7jzhHPVio3SZ6XyY1CsTCx0Sz1YslNnCKWmtOjhJ5i+dhwkIJf2PDmU6iCF88fTNGpqow3SrA8KED8CMzXJD2bvvvns8u6985SszoL311lvGTIm9Q1kJrxhALOPmRlfDKLAGKOstY2LOzYUzZTnVrNSXCcTuvPe+cfT//OUvi3jK1GAmSHGdbbrxwo35UhWup/ox1UCjz3wQpI/la099SqFMF1QCnqZrYhJ9qFT0JvCUQp9ql5ISnzxlHMKoTz38EVA2TaEgxosRKzsBxCo9QA3DPP744xOBhS85BA9bVH+3hS9++ctfPvaUKY9ZTSijZf7mN78pKmruxB0AsaLmQucDKDAqlK3JG+bahoCyTm7SEBAzLclUIyn0TJmpXx8EpWY99PWvAwr/dwgM+eBQh1ApoLnmLw1fdI0l0ScFyggOXTXKSJe1Qhnqh3Xy8HRMU8GYahIDZRx8vvSlLx2fL+Phi0tAGa2Ff9HJBWg50tmT3uQdRKKO/u8hrKCuAiNBGUDs7N4BlNW9n4JG00HM5g2TdOqCMu6Vob6kdceorQQK1PxiPFQh/evzyemx06FMCoM5oMw2FtlJok8KlPnOlC0JZY8++uh0+fLluU7Z/v7+/N7b25t2d3ennZ2daXt7e35Tu4sXL85/0i8ibC/yfKjP6e+m+w0gJnnatN2GwhQJUDhchEIZz774uc997hSIqaQfLUAZt0QqoOXyisEb1vb9gdm1rUDvUAYQc+8vQFlj919OEONLc0GZ+vL5ry++OH/J5y8foEmgYCkos8GM6XydamsLo3RBmb6FpBpKPWW2LRoyji3RR891ympBGUCssYdk4HQIwlwv5R2jLwsuTxn/MkHPaVP4oi3Rx1KeMtu69TMbNi9arsQdfB4+b2SgedEcCqxKgR6hDCAm36KAMrlWRVqmhiVKJyWBMt4XARq9fGF6uaDM5q0L6V/N1weSMR67ECizwaA+r1Qo09fr8gyOWKesNJTZCjrrWRNxPkz6FKrXjoOYyStmAgMdykyHzX1nynqBMt0SuhctR+IOgFi9/Y6R1qNAT1CmrIJfxMj3J6BMrlVUSxN0mTpKCU2UTCwUyqSAFgJNITDkg0HbmiXzCZmHPo6kfx3KUKfMv0Nj6pTVhDKAmN+GS7eIATE+Z0nGr1GhTOmgNOCeMwVopgyR6jr9bBj9P76ILX1HYPxRFfjUpz5lXJoeMn3hwoWJSse43pubm3N4P/+TQrL12oc+Lam0B34R41PJ/zmgzK9RUguCsuvXr0+Hh4dn+ikNYnzAFCjTJx4T5kh9xMCQHqJH/bg8YRJoQp2y0xZNKR69ZJ2y0lAmufGRMVGiUrk2HMQ4BPhCEW0w5gOJEaHMdNaMhy2GwJhPv3I7AT1DgfUowO9Z+n6pXrWhDCCWf88ByvJretyj7iWjcCj+G/deoYxLplLuSzxbsVBmqkWm5oA6ZU94E7PkTvTRSp2ypaAMIFbwoSno2gZigkuPm5jOOEhAbiQoy+UVA4iF7Dy0hQL5FNDhrAaUcRDDvZ/PlqonQFlmTU0gZqvNNQKUcflM59C4ZysXlPExUaesPJS1WqesJpQBxDI/KAO60xN1xH4R8B02bxHKnnrqqen+/ftOtSgKQw81oi9OtnNzqjMVoijxiiFjYsCGRVMosIAC/Pn23HPPzTUSc4UvAsTqGRRQlqi1L1GHKWxQDTkalOlS6pAWk/VQEo6oxg3JRhhaxJqPoVLR27x1OjSG1Euz1Y5L9Qzasi9Sv67wxZbrlJWCMvKG0AsglvhwTLg8tzeMpuKDuZGhLMYrBhBL2MC4FAosqIB+PlafyhtvvHF8zsx2poxf43t2LrjU4YYGlEWY1AdivMs1QxnXgQCthKdMNx+HONQpe6hO7vBFXfOlikcDyiIeXg1fkhvEQr9ItAplR0dHzvp6Nk8ZN7U0cQdArOEbBFODApkU8EGb5JdYmaaCbjQFAGXCLRECYoAys6guQCWPjMmjFOIpo1Ft7TmgxXjs1Iok80nx2Jk8ZbYtGjIO6pTJi0fDUyZ8KGZotjSI8SWMBmUmEKP16ok7AGIZNjK6gAIdKuAL6e5wSd1PGVDmMGEsiAHKwqGMijabPFsSCOKjSdrHeOxCoEyfj/o36pTZb7aYlPiXL1+eyFt2cHAw7e/vz++9vb1pd3d32tnZmba3t+c3taGUv/QnQa/tRTCmPqe/I3yxzM+3lkBsdCgzpbPX09eHehTL7Ar0CgWgQA0FAGI1VI4fA1CmaaeDWOq5L4Qvnggs0UJatNq25VuEMtQp8z+gQqHs2WefnSELUObXdukWtRJ1pK5zNE8Z6aG8YvCGpe4OXA8F+lUAINaP7VYPZTm8YS5zS0CkxnbJWacsdr4xWlDKff2FOmUnikghNDbRxxdeftVp7qXqlAHKYu/COtfl9obRrEt7dEaEMmXt0trV2VUYBQpAAYkC+pkx3P8S1dpoMzSUKeC6e/fuKbVLgxgfLAZESmyNXqGMayHxokkhRZJ90XRmS9I/n7OrvSmMMuRMGY0jmU/uRB8t1CkDlJV4SqT1mRvEan+RGA3KauuXtntwNRSAAikKwBuWol471w4LZSbw0mVPDU2UmBFQdqJSTi1sgCaFFAmU6faVFMg2XROTEp8Sn6hXDs9giqesVJ0yClm0vXiRddXm+vXr818p2xygTPL0Kd+mdxDjCgHKyu8XjAAFoEA+BQBi+bRspadVQlkNGFMGzgkiKZtmBE+Za/0EaSHZCGOgjMZX0CcFtByeMtdYUgiNhbLcdcpCQYzbPATKKNnH1tYWEn2kPDQs144EYoCyAhsEXUIBKFBMAYBYMWmb6Hg4KNM9ZE8+8/x0+/XbE//NO6DsoR4qVK6WHjUAlc6gmRJrcG9T7uyLLhjMAWX8SaEDWmko850po7n56pSlgBigrImfE9OoIAYoa2N/YRZQAArYFQCIrWd3DAFlpoyJNQBAsk1anseIUKbbxBTmiDplJyoRUHE9fv6TN+cP1d6IhbKfPvBc2l6m0ERTW56SnqAAnjLJEydPmxwZE3s7bI7wxTx7B71AASiQrgBALF3DHns4BWW2xBitLUySqKNlGFJ61vJQ0Xijhy9K9yhBWm5PmWtsV+hh7kQftrH0RB96og4CKBXOGQtlBHaulw5iCvr4Na66YDYoo1plV69ePVOnjIcvUpvNzU3UKfPcJGvwhrkkAJRJn6J9t8OX3b7tN+rse/sl1qh2WHpdGw++HNmrqT6YnZ65cKkJS0CMzw1QdtpSgLITPVx7g4pY+yDLlXhDv5aHF+phjiaPXa7si3wsGofOlKnX78+dPzXNWChzecNoAIlHTFqg2QRlqng0oCz+qbx2EOPKAcri91FPVwLKerLW2HPFXhzbvjGrm6HMBl4mEKoJaaEgBiizbwFAmQzKfFkPJWe4uBVynylzQZ/N+jlT4ucOS5Q+tHQo+9rXvnZcPBpQJlXxYTuAmFkvQFnYPkJrKAAFwhUAiIVrtqYrxGfKagGa6XxYjEHgKTutGqBMBmUqpNSWzXGNULYUiPEdDCiLeQqeXAMQ8+sHKPNrNEIL9aUYddxGsGYfawCI9WGnFmYphjI+WaoR9MEHH5yaf4oHLReI8QkBygBlthssdG9Iilbbxor1lPk8dmo8CSSmeMo+/OjemaVJwhLpImloouRBCCiTqGSGMPrf2C+ga/oyASgL22O9tl7Tnu7VRiPMG/tsBCvWX0MUlOnTdHnR6DMd2FLCEqUShX7xlvYb2q7leawh+6LJXik2USn311KnTEFZaqKO0PtGbw8o8yuY2xuWAnP+2bbXAlDWnk1KzUhi61Jjo98xFUCijjHtWntVWaCMT9oEXLZFlcw+mPLFO6cRWp4HoGxKrmHnK1od6ymzJRzJWadMD0ukDIx69kV+L4RmTMx5HwHKzGrmBrFYj1pOWy/Vl+SL+sbGxqS/z58/Pz3yyCPzW/87/Zu/33rrrenWrVunlnjz5s3p17/+9Zllf/7zn5+eeuqp6ejoaC5RYXsdHh4a+1yzLZfaQxh3XQrAG7Yue9dYbXYo45M2hTnS5yVhTI3fMgypOdbQwaUHoCwdyvh+N4U50ue2bI2pKfFdRav5vHj4Ygvnw2IebICyE9UAYjE7yH8NoMyvEVpAgbUrABBb+w4ou/6iUObympUGEkDZ6Y2DRB8netTYG5JzaKlQRiuypdznIEjj2F5LnA+LeaStHcoAYjG7JuwaQFmYXmgNBdaiAEBsLZZefp3ZocwXvvjKK69MH3/88fT973//ePUlAK3GF2+J+VqeBzxleT1lrv1gCnMsWadsBBDjeq4NyjiEkQ6xoWj4MiF5Sj9sAyiTa4WWUGB0BfDsHN3Cba4vGcpMEMazrtGXC/WFQm1yAjP1eumll4qEM7YMQ2rtJWDUts3gKTtRZum9obxoOT1lLgijlS+dqCP18WeDMiogfeXKlWl/f39+7+3tTbu7u/N7a2tr2t7enqjN5ubmXNfMdTaHzgqpz+nvObNHStaf2xuWAnOS+Y7WBlA2mkWxHiggVwCJOuRaoWU5BaKgzAdifLo6lBGg0eZXYEZQRq/cgLL0F2+lQcvzgKesnqfMdAu7QNmW6IP3MzqI6c+R69evz/9FiQ2oeDTBFoFWz1CWG8RiPWrlfsT00zOgrB9bjTpTyR4cde1LrAvesCVUx5guBcRQFgJiJijjm18HMkBZ+U0KT9mJxj2Asq1O2WhhidKdb/KU9QplADGp1eu2k3whRvbFujZZ02jw1NSxNkCsjs4YJU6BjQfekjnXrqn4sw5ioeE8/MuHHrJIY9LQ9+/fn1MJw1MWZ0DpVYCyvqCM7gce5mizcy+JOqT71NZOh7Lnnntu9pL14ikDiKXugPLXA8rKa4wR/ApI9qG/F7TgCgDEsB96UWDjQbjL3z744APrfHOAmApRVIOosDlA2fvV9gmgrC8oU0WbTRtkLSDG194blCFRR7VHW7aBJF+G4SnLJjc6ggJFFQCIFZUXnRdSYIYy3jcBWikQ4+OoQ/XwlBWyrNYtoKxvKJOAWOh9W2fnpY+iAIefKWvRU5bbG0bK4YxY+v6R9gAokyqFdiUUoP1353/enR77l8dx30cIjPDPCNFwSXMKREGZ/ltg0xkxV5YzUkFB2dHR0XT+/HmELxbeGoCy/qCs94yJubZ0TSij55HyhkggNzeIAcJy7ZrwflqFMvpZSvvS9qLEN7du3Tr18c2bN/HFPnwLLH4FvDthJoBeYXqhdfsKiKHMdz6MluoDMS4HoCx/xknXdgOUtQFlZAfbiyBMhfa6bCmBhfYfPfIZtgZlADG57XpqCSjryVqY61oVAIit1fLrWPdxog/fck2JOkJBDFB2+1S9qNzJTQBlvl388PPa2Rd9IMZnbYOytYEY16QFKAOIye6tnlsBynq2HuY+sgIAsZGti7WdYiPKvsiBS5dHT9KRAmKAMkDZjRduzNvg9uttaaH2Zi5QDgEx2yNpzSDWApTxOcSGFeLLRD8/cAFl/dgKMx1fATw7x7cxVnhWgY1vfvObf/vxj3/s1OYPf/jDdPHixWlraysoRNHVKcIXEb7Iz0zlgiHJTV7KUwYQk6gf3sblKaNaZfv7+8fvvb29aXd3d37T82p7e3suMr25uTmnz3eFWNMziZ8piwExHDYPt28rVwDKWrEE5rFWBQBia7U81q0UmKHs4OBgojd9uaEvNfSmLzPqS82lS5cAZZF7phQAhE4HZ8pOFMtlExeE0WhI1BG6S83tbVCmikcvDWX4IpHHzkv3Aihb2gIYf20K4JdYa7M41utTAFDmUyjx81wAkDgN4zkqdX6plpeqZS2Uvj4t4A1L3Ynh17cIZQCxcDu2fgWgrHULYX4jKIBn5whWxBpKKQAoK6Xs3/ttGUQAZbKzbQCxwjeJp3sTlH3961+fwxHpbfKU7ezszN7+nOGL+DKx7D4oPTqgrLTC6H+tCuDZuVbLY92hCgDKQhULbA8oOxGsZS10TxlALHCjF2y+JJThy0RBwzbWNaCsMYNgOl0rgGdn1+bD5BdSAFBWWPiWQQSesrOesg8/umfcEfr5MNu2QcbE/DdUKJSRl4wSfcR4yvTZxyT7yK8AeqyhAKCshsoYY2QFAGIjWxdrq6GAGMoo2QcdrA8pEO1aALIvIvtii9kXOZQhUUeNR5B/jNJQRs8iwJjfDqO3AJSNbmGsL7cCSNSRW1H0t3YFAGWFdwA8ZScCt6AFD0ukmml6vTR9O5iKOcMbVvim0bovAWUmEKNh4Rmra9uWRgOUtWQNzKVVBeANa9UymNcIChihjEJ/KASIp8SHpyzO3C2ACM18zSnxcT4sbu+2cpUPyqiEx5UrV45LerjCF01rAoi1Yull59EilD399NNz7Tx6216Hh4fTrVu3Tn188+ZN/IJh2e001OgAsaHMicU0rACgrLBxAGXLeMoAYoU3doXuFYwpD5YeKvONb3xjzr7ogrJPfvKTxpkCxCoYsLMhAGWdGQzTLaoAQKyovOgcChgVAJQV3hiAsnpQBhArvJkLd88hTIGYa0gd0lxtAWGFjTdA9y1DGYVR285zw1M2wOZrZAkAsUYMgWmsVgFAWWHTA8rKQZkLwmhUJOoovLkzdK97w2K6xGHzGNVwja4AoAx7Ym0K4Nm5Notjva0rACgrbCFAWV4oA4gV3rAVus8NYvCCVTDaCoYAlK3AyFjiBG8YNgEUaFcBQFlh2wDK0qEMYYmFN2mF7gFiFUTGEEkKAMqS5MPFDSsAEGvYOJgaFGAKAMoKbwdAWRyUAcQKb8wK3QPEKoiMIbIpACjLJiU6akABgFgDRsAUoECgAoCyQMFCmwPK5FAGEAvdXW21D03UYZs9vky0Zde1zAZQthZLj7tOPDvHtS1Wtg4FFocyyih17ty56c5772dVvGUYUgvNvWaXgK3XKfvwo3tnpo9EHVlviSKd5faG0SRxRqyIqdCpRwFAGbZIbwogUUdvFsN8oYBbgRnKrl27Nl29evW4+GrN4tGAsjpbtBcoA4jV2Q8po+QGMUBYijVwbS4FAGW5lEQ/JRWAN6ykuugbCiyrwMa3vvWtvx0cHADKCtmhZY8dAfHGxkZ2L6UupS0sUQcwlwlefvnlQhZCtxIFAGISldCmZwUAZT1bb+y5A8TGti9WBwWUAoCywnthrVCG82GFN1aF7gFiFUTGEM0oAChrxhSYyAMFAGLYBlBgfQoAygrbfE1QBhArvJkqdA8QqyAyhmhSAUBZk2ZZ1aQAYqsyNxYLBc4oACgrvClGhzKAWOENVLj7HBkTcdi8sJHQfRUFAGVVZMYgTAE8O7EdoAAU4Ar8P8yTSmLzROezAAAAAElFTkSuQmCC;" vertex="1" parent="1">
          <mxGeometry x="420" y="100" width="605" height="550" as="geometry" />
        </mxCell>
      </root>
    </mxGraphModel>
  </diagram>
</mxfile>
